%TF.GenerationSoftware,KiCad,Pcbnew,10.0.4*%
%TF.CreationDate,2026-08-02T01:45:48+02:00*%
%TF.ProjectId,onboard-systems,6f6e626f-6172-4642-9d73-797374656d73,rev?*%
%TF.SameCoordinates,Original*%
%TF.FileFunction,Legend,Top*%
%TF.FilePolarity,Positive*%
%FSLAX46Y46*%
G04 Gerber Fmt 4.6, Leading zero omitted, Abs format (unit mm)*
G04 Created by KiCad (PCBNEW 10.0.4) date 2026-08-02 01:45:48*
%MOMM*%
%LPD*%
G01*
G04 APERTURE LIST*
%ADD10C,0.150000*%
%ADD11C,0.100000*%
%ADD12C,0.120000*%
%ADD13C,0.127000*%
%ADD14C,0.200000*%
G04 APERTURE END LIST*
D10*
X166016667Y-67007200D02*
X166159524Y-67054819D01*
X166159524Y-67054819D02*
X166397619Y-67054819D01*
X166397619Y-67054819D02*
X166492857Y-67007200D01*
X166492857Y-67007200D02*
X166540476Y-66959580D01*
X166540476Y-66959580D02*
X166588095Y-66864342D01*
X166588095Y-66864342D02*
X166588095Y-66769104D01*
X166588095Y-66769104D02*
X166540476Y-66673866D01*
X166540476Y-66673866D02*
X166492857Y-66626247D01*
X166492857Y-66626247D02*
X166397619Y-66578628D01*
X166397619Y-66578628D02*
X166207143Y-66531009D01*
X166207143Y-66531009D02*
X166111905Y-66483390D01*
X166111905Y-66483390D02*
X166064286Y-66435771D01*
X166064286Y-66435771D02*
X166016667Y-66340533D01*
X166016667Y-66340533D02*
X166016667Y-66245295D01*
X166016667Y-66245295D02*
X166064286Y-66150057D01*
X166064286Y-66150057D02*
X166111905Y-66102438D01*
X166111905Y-66102438D02*
X166207143Y-66054819D01*
X166207143Y-66054819D02*
X166445238Y-66054819D01*
X166445238Y-66054819D02*
X166588095Y-66102438D01*
X166921429Y-66054819D02*
X167159524Y-67054819D01*
X167159524Y-67054819D02*
X167350000Y-66340533D01*
X167350000Y-66340533D02*
X167540476Y-67054819D01*
X167540476Y-67054819D02*
X167778572Y-66054819D01*
X168683333Y-67054819D02*
X168111905Y-67054819D01*
X168397619Y-67054819D02*
X168397619Y-66054819D01*
X168397619Y-66054819D02*
X168302381Y-66197676D01*
X168302381Y-66197676D02*
X168207143Y-66292914D01*
X168207143Y-66292914D02*
X168111905Y-66340533D01*
D11*
X169278571Y-68972371D02*
X169392857Y-68972371D01*
X169392857Y-68972371D02*
X169450000Y-69000942D01*
X169450000Y-69000942D02*
X169507143Y-69058085D01*
X169507143Y-69058085D02*
X169535714Y-69172371D01*
X169535714Y-69172371D02*
X169535714Y-69372371D01*
X169535714Y-69372371D02*
X169507143Y-69486657D01*
X169507143Y-69486657D02*
X169450000Y-69543800D01*
X169450000Y-69543800D02*
X169392857Y-69572371D01*
X169392857Y-69572371D02*
X169278571Y-69572371D01*
X169278571Y-69572371D02*
X169221429Y-69543800D01*
X169221429Y-69543800D02*
X169164286Y-69486657D01*
X169164286Y-69486657D02*
X169135714Y-69372371D01*
X169135714Y-69372371D02*
X169135714Y-69172371D01*
X169135714Y-69172371D02*
X169164286Y-69058085D01*
X169164286Y-69058085D02*
X169221429Y-69000942D01*
X169221429Y-69000942D02*
X169278571Y-68972371D01*
X169992857Y-69258085D02*
X169792857Y-69258085D01*
X169792857Y-69572371D02*
X169792857Y-68972371D01*
X169792857Y-68972371D02*
X170078571Y-68972371D01*
X170507143Y-69258085D02*
X170307143Y-69258085D01*
X170307143Y-69572371D02*
X170307143Y-68972371D01*
X170307143Y-68972371D02*
X170592857Y-68972371D01*
X164178571Y-68972371D02*
X164292857Y-68972371D01*
X164292857Y-68972371D02*
X164350000Y-69000942D01*
X164350000Y-69000942D02*
X164407143Y-69058085D01*
X164407143Y-69058085D02*
X164435714Y-69172371D01*
X164435714Y-69172371D02*
X164435714Y-69372371D01*
X164435714Y-69372371D02*
X164407143Y-69486657D01*
X164407143Y-69486657D02*
X164350000Y-69543800D01*
X164350000Y-69543800D02*
X164292857Y-69572371D01*
X164292857Y-69572371D02*
X164178571Y-69572371D01*
X164178571Y-69572371D02*
X164121429Y-69543800D01*
X164121429Y-69543800D02*
X164064286Y-69486657D01*
X164064286Y-69486657D02*
X164035714Y-69372371D01*
X164035714Y-69372371D02*
X164035714Y-69172371D01*
X164035714Y-69172371D02*
X164064286Y-69058085D01*
X164064286Y-69058085D02*
X164121429Y-69000942D01*
X164121429Y-69000942D02*
X164178571Y-68972371D01*
X164692857Y-69572371D02*
X164692857Y-68972371D01*
X164692857Y-68972371D02*
X165035714Y-69572371D01*
X165035714Y-69572371D02*
X165035714Y-68972371D01*
D10*
X157438095Y-75454819D02*
X158009523Y-75454819D01*
X157723809Y-76454819D02*
X157723809Y-75454819D01*
X158342857Y-76454819D02*
X158342857Y-75454819D01*
X158342857Y-75454819D02*
X158723809Y-75454819D01*
X158723809Y-75454819D02*
X158819047Y-75502438D01*
X158819047Y-75502438D02*
X158866666Y-75550057D01*
X158866666Y-75550057D02*
X158914285Y-75645295D01*
X158914285Y-75645295D02*
X158914285Y-75788152D01*
X158914285Y-75788152D02*
X158866666Y-75883390D01*
X158866666Y-75883390D02*
X158819047Y-75931009D01*
X158819047Y-75931009D02*
X158723809Y-75978628D01*
X158723809Y-75978628D02*
X158342857Y-75978628D01*
X159295238Y-75550057D02*
X159342857Y-75502438D01*
X159342857Y-75502438D02*
X159438095Y-75454819D01*
X159438095Y-75454819D02*
X159676190Y-75454819D01*
X159676190Y-75454819D02*
X159771428Y-75502438D01*
X159771428Y-75502438D02*
X159819047Y-75550057D01*
X159819047Y-75550057D02*
X159866666Y-75645295D01*
X159866666Y-75645295D02*
X159866666Y-75740533D01*
X159866666Y-75740533D02*
X159819047Y-75883390D01*
X159819047Y-75883390D02*
X159247619Y-76454819D01*
X159247619Y-76454819D02*
X159866666Y-76454819D01*
X172371429Y-75354819D02*
X172942857Y-75354819D01*
X172657143Y-76354819D02*
X172657143Y-75354819D01*
X173276191Y-76354819D02*
X173276191Y-75354819D01*
X173276191Y-75354819D02*
X173657143Y-75354819D01*
X173657143Y-75354819D02*
X173752381Y-75402438D01*
X173752381Y-75402438D02*
X173800000Y-75450057D01*
X173800000Y-75450057D02*
X173847619Y-75545295D01*
X173847619Y-75545295D02*
X173847619Y-75688152D01*
X173847619Y-75688152D02*
X173800000Y-75783390D01*
X173800000Y-75783390D02*
X173752381Y-75831009D01*
X173752381Y-75831009D02*
X173657143Y-75878628D01*
X173657143Y-75878628D02*
X173276191Y-75878628D01*
X174276191Y-75973866D02*
X175038096Y-75973866D01*
X175847619Y-75831009D02*
X175990476Y-75878628D01*
X175990476Y-75878628D02*
X176038095Y-75926247D01*
X176038095Y-75926247D02*
X176085714Y-76021485D01*
X176085714Y-76021485D02*
X176085714Y-76164342D01*
X176085714Y-76164342D02*
X176038095Y-76259580D01*
X176038095Y-76259580D02*
X175990476Y-76307200D01*
X175990476Y-76307200D02*
X175895238Y-76354819D01*
X175895238Y-76354819D02*
X175514286Y-76354819D01*
X175514286Y-76354819D02*
X175514286Y-75354819D01*
X175514286Y-75354819D02*
X175847619Y-75354819D01*
X175847619Y-75354819D02*
X175942857Y-75402438D01*
X175942857Y-75402438D02*
X175990476Y-75450057D01*
X175990476Y-75450057D02*
X176038095Y-75545295D01*
X176038095Y-75545295D02*
X176038095Y-75640533D01*
X176038095Y-75640533D02*
X175990476Y-75735771D01*
X175990476Y-75735771D02*
X175942857Y-75783390D01*
X175942857Y-75783390D02*
X175847619Y-75831009D01*
X175847619Y-75831009D02*
X175514286Y-75831009D01*
X176466667Y-76069104D02*
X176942857Y-76069104D01*
X176371429Y-76354819D02*
X176704762Y-75354819D01*
X176704762Y-75354819D02*
X177038095Y-76354819D01*
X177228572Y-75354819D02*
X177800000Y-75354819D01*
X177514286Y-76354819D02*
X177514286Y-75354819D01*
X178133334Y-75973866D02*
X178895239Y-75973866D01*
X179371429Y-75973866D02*
X180133334Y-75973866D01*
X179752381Y-76354819D02*
X179752381Y-75592914D01*
X181133333Y-76354819D02*
X180561905Y-76354819D01*
X180847619Y-76354819D02*
X180847619Y-75354819D01*
X180847619Y-75354819D02*
X180752381Y-75497676D01*
X180752381Y-75497676D02*
X180657143Y-75592914D01*
X180657143Y-75592914D02*
X180561905Y-75640533D01*
X176233319Y-83566904D02*
X177042842Y-83566904D01*
X177042842Y-83566904D02*
X177138080Y-83519285D01*
X177138080Y-83519285D02*
X177185700Y-83471666D01*
X177185700Y-83471666D02*
X177233319Y-83376428D01*
X177233319Y-83376428D02*
X177233319Y-83185952D01*
X177233319Y-83185952D02*
X177185700Y-83090714D01*
X177185700Y-83090714D02*
X177138080Y-83043095D01*
X177138080Y-83043095D02*
X177042842Y-82995476D01*
X177042842Y-82995476D02*
X176233319Y-82995476D01*
X177233319Y-81995476D02*
X177233319Y-82566904D01*
X177233319Y-82281190D02*
X176233319Y-82281190D01*
X176233319Y-82281190D02*
X176376176Y-82376428D01*
X176376176Y-82376428D02*
X176471414Y-82471666D01*
X176471414Y-82471666D02*
X176519033Y-82566904D01*
X174704819Y-137421904D02*
X175514342Y-137421904D01*
X175514342Y-137421904D02*
X175609580Y-137374285D01*
X175609580Y-137374285D02*
X175657200Y-137326666D01*
X175657200Y-137326666D02*
X175704819Y-137231428D01*
X175704819Y-137231428D02*
X175704819Y-137040952D01*
X175704819Y-137040952D02*
X175657200Y-136945714D01*
X175657200Y-136945714D02*
X175609580Y-136898095D01*
X175609580Y-136898095D02*
X175514342Y-136850476D01*
X175514342Y-136850476D02*
X174704819Y-136850476D01*
X174704819Y-136469523D02*
X174704819Y-135850476D01*
X174704819Y-135850476D02*
X175085771Y-136183809D01*
X175085771Y-136183809D02*
X175085771Y-136040952D01*
X175085771Y-136040952D02*
X175133390Y-135945714D01*
X175133390Y-135945714D02*
X175181009Y-135898095D01*
X175181009Y-135898095D02*
X175276247Y-135850476D01*
X175276247Y-135850476D02*
X175514342Y-135850476D01*
X175514342Y-135850476D02*
X175609580Y-135898095D01*
X175609580Y-135898095D02*
X175657200Y-135945714D01*
X175657200Y-135945714D02*
X175704819Y-136040952D01*
X175704819Y-136040952D02*
X175704819Y-136326666D01*
X175704819Y-136326666D02*
X175657200Y-136421904D01*
X175657200Y-136421904D02*
X175609580Y-136469523D01*
D12*
X156171331Y-127157142D02*
X156771331Y-126957142D01*
X156771331Y-126957142D02*
X156171331Y-126757142D01*
X156771331Y-126557141D02*
X156171331Y-126557141D01*
X156771331Y-126271427D02*
X156171331Y-126271427D01*
X156171331Y-126271427D02*
X156771331Y-125928570D01*
X156771331Y-125928570D02*
X156171331Y-125928570D01*
X156171331Y-129768571D02*
X156171331Y-129397143D01*
X156171331Y-129397143D02*
X156399902Y-129597143D01*
X156399902Y-129597143D02*
X156399902Y-129511428D01*
X156399902Y-129511428D02*
X156428474Y-129454286D01*
X156428474Y-129454286D02*
X156457045Y-129425714D01*
X156457045Y-129425714D02*
X156514188Y-129397143D01*
X156514188Y-129397143D02*
X156657045Y-129397143D01*
X156657045Y-129397143D02*
X156714188Y-129425714D01*
X156714188Y-129425714D02*
X156742760Y-129454286D01*
X156742760Y-129454286D02*
X156771331Y-129511428D01*
X156771331Y-129511428D02*
X156771331Y-129682857D01*
X156771331Y-129682857D02*
X156742760Y-129740000D01*
X156742760Y-129740000D02*
X156714188Y-129768571D01*
X156171331Y-129225714D02*
X156771331Y-129025714D01*
X156771331Y-129025714D02*
X156171331Y-128825714D01*
X156771331Y-128539999D02*
X156742760Y-128597142D01*
X156742760Y-128597142D02*
X156714188Y-128625713D01*
X156714188Y-128625713D02*
X156657045Y-128654285D01*
X156657045Y-128654285D02*
X156485617Y-128654285D01*
X156485617Y-128654285D02*
X156428474Y-128625713D01*
X156428474Y-128625713D02*
X156399902Y-128597142D01*
X156399902Y-128597142D02*
X156371331Y-128539999D01*
X156371331Y-128539999D02*
X156371331Y-128454285D01*
X156371331Y-128454285D02*
X156399902Y-128397142D01*
X156399902Y-128397142D02*
X156428474Y-128368571D01*
X156428474Y-128368571D02*
X156485617Y-128339999D01*
X156485617Y-128339999D02*
X156657045Y-128339999D01*
X156657045Y-128339999D02*
X156714188Y-128368571D01*
X156714188Y-128368571D02*
X156742760Y-128397142D01*
X156742760Y-128397142D02*
X156771331Y-128454285D01*
X156771331Y-128454285D02*
X156771331Y-128539999D01*
X173222010Y-132274048D02*
X173248200Y-132195476D01*
X173248200Y-132195476D02*
X173248200Y-132064524D01*
X173248200Y-132064524D02*
X173222010Y-132012143D01*
X173222010Y-132012143D02*
X173195819Y-131985952D01*
X173195819Y-131985952D02*
X173143438Y-131959762D01*
X173143438Y-131959762D02*
X173091057Y-131959762D01*
X173091057Y-131959762D02*
X173038676Y-131985952D01*
X173038676Y-131985952D02*
X173012486Y-132012143D01*
X173012486Y-132012143D02*
X172986295Y-132064524D01*
X172986295Y-132064524D02*
X172960105Y-132169286D01*
X172960105Y-132169286D02*
X172933914Y-132221667D01*
X172933914Y-132221667D02*
X172907724Y-132247857D01*
X172907724Y-132247857D02*
X172855343Y-132274048D01*
X172855343Y-132274048D02*
X172802962Y-132274048D01*
X172802962Y-132274048D02*
X172750581Y-132247857D01*
X172750581Y-132247857D02*
X172724390Y-132221667D01*
X172724390Y-132221667D02*
X172698200Y-132169286D01*
X172698200Y-132169286D02*
X172698200Y-132038333D01*
X172698200Y-132038333D02*
X172724390Y-131959762D01*
X173195819Y-131409761D02*
X173222010Y-131435952D01*
X173222010Y-131435952D02*
X173248200Y-131514523D01*
X173248200Y-131514523D02*
X173248200Y-131566904D01*
X173248200Y-131566904D02*
X173222010Y-131645476D01*
X173222010Y-131645476D02*
X173169629Y-131697857D01*
X173169629Y-131697857D02*
X173117248Y-131724047D01*
X173117248Y-131724047D02*
X173012486Y-131750238D01*
X173012486Y-131750238D02*
X172933914Y-131750238D01*
X172933914Y-131750238D02*
X172829152Y-131724047D01*
X172829152Y-131724047D02*
X172776771Y-131697857D01*
X172776771Y-131697857D02*
X172724390Y-131645476D01*
X172724390Y-131645476D02*
X172698200Y-131566904D01*
X172698200Y-131566904D02*
X172698200Y-131514523D01*
X172698200Y-131514523D02*
X172724390Y-131435952D01*
X172724390Y-131435952D02*
X172750581Y-131409761D01*
X172698200Y-131226428D02*
X173248200Y-130859761D01*
X172698200Y-130859761D02*
X173248200Y-131226428D01*
X156199902Y-132037142D02*
X156171331Y-132094285D01*
X156171331Y-132094285D02*
X156171331Y-132179999D01*
X156171331Y-132179999D02*
X156199902Y-132265713D01*
X156199902Y-132265713D02*
X156257045Y-132322856D01*
X156257045Y-132322856D02*
X156314188Y-132351427D01*
X156314188Y-132351427D02*
X156428474Y-132379999D01*
X156428474Y-132379999D02*
X156514188Y-132379999D01*
X156514188Y-132379999D02*
X156628474Y-132351427D01*
X156628474Y-132351427D02*
X156685617Y-132322856D01*
X156685617Y-132322856D02*
X156742760Y-132265713D01*
X156742760Y-132265713D02*
X156771331Y-132179999D01*
X156771331Y-132179999D02*
X156771331Y-132122856D01*
X156771331Y-132122856D02*
X156742760Y-132037142D01*
X156742760Y-132037142D02*
X156714188Y-132008570D01*
X156714188Y-132008570D02*
X156514188Y-132008570D01*
X156514188Y-132008570D02*
X156514188Y-132122856D01*
X156771331Y-131751427D02*
X156171331Y-131751427D01*
X156171331Y-131751427D02*
X156771331Y-131408570D01*
X156771331Y-131408570D02*
X156171331Y-131408570D01*
X156771331Y-131122856D02*
X156171331Y-131122856D01*
X156171331Y-131122856D02*
X156171331Y-130979999D01*
X156171331Y-130979999D02*
X156199902Y-130894285D01*
X156199902Y-130894285D02*
X156257045Y-130837142D01*
X156257045Y-130837142D02*
X156314188Y-130808571D01*
X156314188Y-130808571D02*
X156428474Y-130779999D01*
X156428474Y-130779999D02*
X156514188Y-130779999D01*
X156514188Y-130779999D02*
X156628474Y-130808571D01*
X156628474Y-130808571D02*
X156685617Y-130837142D01*
X156685617Y-130837142D02*
X156742760Y-130894285D01*
X156742760Y-130894285D02*
X156771331Y-130979999D01*
X156771331Y-130979999D02*
X156771331Y-131122856D01*
X173222010Y-134814048D02*
X173248200Y-134735476D01*
X173248200Y-134735476D02*
X173248200Y-134604524D01*
X173248200Y-134604524D02*
X173222010Y-134552143D01*
X173222010Y-134552143D02*
X173195819Y-134525952D01*
X173195819Y-134525952D02*
X173143438Y-134499762D01*
X173143438Y-134499762D02*
X173091057Y-134499762D01*
X173091057Y-134499762D02*
X173038676Y-134525952D01*
X173038676Y-134525952D02*
X173012486Y-134552143D01*
X173012486Y-134552143D02*
X172986295Y-134604524D01*
X172986295Y-134604524D02*
X172960105Y-134709286D01*
X172960105Y-134709286D02*
X172933914Y-134761667D01*
X172933914Y-134761667D02*
X172907724Y-134787857D01*
X172907724Y-134787857D02*
X172855343Y-134814048D01*
X172855343Y-134814048D02*
X172802962Y-134814048D01*
X172802962Y-134814048D02*
X172750581Y-134787857D01*
X172750581Y-134787857D02*
X172724390Y-134761667D01*
X172724390Y-134761667D02*
X172698200Y-134709286D01*
X172698200Y-134709286D02*
X172698200Y-134578333D01*
X172698200Y-134578333D02*
X172724390Y-134499762D01*
X173248200Y-134264047D02*
X172698200Y-134264047D01*
X172698200Y-134264047D02*
X172698200Y-134133095D01*
X172698200Y-134133095D02*
X172724390Y-134054523D01*
X172724390Y-134054523D02*
X172776771Y-134002142D01*
X172776771Y-134002142D02*
X172829152Y-133975952D01*
X172829152Y-133975952D02*
X172933914Y-133949761D01*
X172933914Y-133949761D02*
X173012486Y-133949761D01*
X173012486Y-133949761D02*
X173117248Y-133975952D01*
X173117248Y-133975952D02*
X173169629Y-134002142D01*
X173169629Y-134002142D02*
X173222010Y-134054523D01*
X173222010Y-134054523D02*
X173248200Y-134133095D01*
X173248200Y-134133095D02*
X173248200Y-134264047D01*
X172698200Y-133766428D02*
X173248200Y-133399761D01*
X172698200Y-133399761D02*
X173248200Y-133766428D01*
X156742760Y-134834285D02*
X156771331Y-134748571D01*
X156771331Y-134748571D02*
X156771331Y-134605713D01*
X156771331Y-134605713D02*
X156742760Y-134548571D01*
X156742760Y-134548571D02*
X156714188Y-134519999D01*
X156714188Y-134519999D02*
X156657045Y-134491428D01*
X156657045Y-134491428D02*
X156599902Y-134491428D01*
X156599902Y-134491428D02*
X156542760Y-134519999D01*
X156542760Y-134519999D02*
X156514188Y-134548571D01*
X156514188Y-134548571D02*
X156485617Y-134605713D01*
X156485617Y-134605713D02*
X156457045Y-134719999D01*
X156457045Y-134719999D02*
X156428474Y-134777142D01*
X156428474Y-134777142D02*
X156399902Y-134805713D01*
X156399902Y-134805713D02*
X156342760Y-134834285D01*
X156342760Y-134834285D02*
X156285617Y-134834285D01*
X156285617Y-134834285D02*
X156228474Y-134805713D01*
X156228474Y-134805713D02*
X156199902Y-134777142D01*
X156199902Y-134777142D02*
X156171331Y-134719999D01*
X156171331Y-134719999D02*
X156171331Y-134577142D01*
X156171331Y-134577142D02*
X156199902Y-134491428D01*
X156714188Y-133891427D02*
X156742760Y-133919999D01*
X156742760Y-133919999D02*
X156771331Y-134005713D01*
X156771331Y-134005713D02*
X156771331Y-134062856D01*
X156771331Y-134062856D02*
X156742760Y-134148570D01*
X156742760Y-134148570D02*
X156685617Y-134205713D01*
X156685617Y-134205713D02*
X156628474Y-134234284D01*
X156628474Y-134234284D02*
X156514188Y-134262856D01*
X156514188Y-134262856D02*
X156428474Y-134262856D01*
X156428474Y-134262856D02*
X156314188Y-134234284D01*
X156314188Y-134234284D02*
X156257045Y-134205713D01*
X156257045Y-134205713D02*
X156199902Y-134148570D01*
X156199902Y-134148570D02*
X156171331Y-134062856D01*
X156171331Y-134062856D02*
X156171331Y-134005713D01*
X156171331Y-134005713D02*
X156199902Y-133919999D01*
X156199902Y-133919999D02*
X156228474Y-133891427D01*
X156771331Y-133348570D02*
X156771331Y-133634284D01*
X156771331Y-133634284D02*
X156171331Y-133634284D01*
X173195819Y-137746904D02*
X173222010Y-137773095D01*
X173222010Y-137773095D02*
X173248200Y-137851666D01*
X173248200Y-137851666D02*
X173248200Y-137904047D01*
X173248200Y-137904047D02*
X173222010Y-137982619D01*
X173222010Y-137982619D02*
X173169629Y-138035000D01*
X173169629Y-138035000D02*
X173117248Y-138061190D01*
X173117248Y-138061190D02*
X173012486Y-138087381D01*
X173012486Y-138087381D02*
X172933914Y-138087381D01*
X172933914Y-138087381D02*
X172829152Y-138061190D01*
X172829152Y-138061190D02*
X172776771Y-138035000D01*
X172776771Y-138035000D02*
X172724390Y-137982619D01*
X172724390Y-137982619D02*
X172698200Y-137904047D01*
X172698200Y-137904047D02*
X172698200Y-137851666D01*
X172698200Y-137851666D02*
X172724390Y-137773095D01*
X172724390Y-137773095D02*
X172750581Y-137746904D01*
X173222010Y-137537381D02*
X173248200Y-137458809D01*
X173248200Y-137458809D02*
X173248200Y-137327857D01*
X173248200Y-137327857D02*
X173222010Y-137275476D01*
X173222010Y-137275476D02*
X173195819Y-137249285D01*
X173195819Y-137249285D02*
X173143438Y-137223095D01*
X173143438Y-137223095D02*
X173091057Y-137223095D01*
X173091057Y-137223095D02*
X173038676Y-137249285D01*
X173038676Y-137249285D02*
X173012486Y-137275476D01*
X173012486Y-137275476D02*
X172986295Y-137327857D01*
X172986295Y-137327857D02*
X172960105Y-137432619D01*
X172960105Y-137432619D02*
X172933914Y-137485000D01*
X172933914Y-137485000D02*
X172907724Y-137511190D01*
X172907724Y-137511190D02*
X172855343Y-137537381D01*
X172855343Y-137537381D02*
X172802962Y-137537381D01*
X172802962Y-137537381D02*
X172750581Y-137511190D01*
X172750581Y-137511190D02*
X172724390Y-137485000D01*
X172724390Y-137485000D02*
X172698200Y-137432619D01*
X172698200Y-137432619D02*
X172698200Y-137301666D01*
X172698200Y-137301666D02*
X172724390Y-137223095D01*
X173300581Y-137118333D02*
X173300581Y-136699285D01*
X173091057Y-136594523D02*
X173091057Y-136332618D01*
X173248200Y-136646904D02*
X172698200Y-136463570D01*
X172698200Y-136463570D02*
X173248200Y-136280237D01*
X172698200Y-136096903D02*
X173143438Y-136096903D01*
X173143438Y-136096903D02*
X173195819Y-136070713D01*
X173195819Y-136070713D02*
X173222010Y-136044522D01*
X173222010Y-136044522D02*
X173248200Y-135992141D01*
X173248200Y-135992141D02*
X173248200Y-135887379D01*
X173248200Y-135887379D02*
X173222010Y-135834998D01*
X173222010Y-135834998D02*
X173195819Y-135808808D01*
X173195819Y-135808808D02*
X173143438Y-135782617D01*
X173143438Y-135782617D02*
X172698200Y-135782617D01*
X172698200Y-135573094D02*
X173248200Y-135206427D01*
X172698200Y-135206427D02*
X173248200Y-135573094D01*
X156742760Y-137388571D02*
X156771331Y-137302857D01*
X156771331Y-137302857D02*
X156771331Y-137159999D01*
X156771331Y-137159999D02*
X156742760Y-137102857D01*
X156742760Y-137102857D02*
X156714188Y-137074285D01*
X156714188Y-137074285D02*
X156657045Y-137045714D01*
X156657045Y-137045714D02*
X156599902Y-137045714D01*
X156599902Y-137045714D02*
X156542760Y-137074285D01*
X156542760Y-137074285D02*
X156514188Y-137102857D01*
X156514188Y-137102857D02*
X156485617Y-137159999D01*
X156485617Y-137159999D02*
X156457045Y-137274285D01*
X156457045Y-137274285D02*
X156428474Y-137331428D01*
X156428474Y-137331428D02*
X156399902Y-137359999D01*
X156399902Y-137359999D02*
X156342760Y-137388571D01*
X156342760Y-137388571D02*
X156285617Y-137388571D01*
X156285617Y-137388571D02*
X156228474Y-137359999D01*
X156228474Y-137359999D02*
X156199902Y-137331428D01*
X156199902Y-137331428D02*
X156171331Y-137274285D01*
X156171331Y-137274285D02*
X156171331Y-137131428D01*
X156171331Y-137131428D02*
X156199902Y-137045714D01*
X156771331Y-136788570D02*
X156171331Y-136788570D01*
X156171331Y-136788570D02*
X156171331Y-136645713D01*
X156171331Y-136645713D02*
X156199902Y-136559999D01*
X156199902Y-136559999D02*
X156257045Y-136502856D01*
X156257045Y-136502856D02*
X156314188Y-136474285D01*
X156314188Y-136474285D02*
X156428474Y-136445713D01*
X156428474Y-136445713D02*
X156514188Y-136445713D01*
X156514188Y-136445713D02*
X156628474Y-136474285D01*
X156628474Y-136474285D02*
X156685617Y-136502856D01*
X156685617Y-136502856D02*
X156742760Y-136559999D01*
X156742760Y-136559999D02*
X156771331Y-136645713D01*
X156771331Y-136645713D02*
X156771331Y-136788570D01*
X156599902Y-136217142D02*
X156599902Y-135931428D01*
X156771331Y-136274285D02*
X156171331Y-136074285D01*
X156171331Y-136074285D02*
X156771331Y-135874285D01*
X173248200Y-140627380D02*
X172698200Y-140627380D01*
X172698200Y-140627380D02*
X172698200Y-140496428D01*
X172698200Y-140496428D02*
X172724390Y-140417856D01*
X172724390Y-140417856D02*
X172776771Y-140365475D01*
X172776771Y-140365475D02*
X172829152Y-140339285D01*
X172829152Y-140339285D02*
X172933914Y-140313094D01*
X172933914Y-140313094D02*
X173012486Y-140313094D01*
X173012486Y-140313094D02*
X173117248Y-140339285D01*
X173117248Y-140339285D02*
X173169629Y-140365475D01*
X173169629Y-140365475D02*
X173222010Y-140417856D01*
X173222010Y-140417856D02*
X173248200Y-140496428D01*
X173248200Y-140496428D02*
X173248200Y-140627380D01*
X172698200Y-139972618D02*
X172698200Y-139867856D01*
X172698200Y-139867856D02*
X172724390Y-139815475D01*
X172724390Y-139815475D02*
X172776771Y-139763094D01*
X172776771Y-139763094D02*
X172881533Y-139736904D01*
X172881533Y-139736904D02*
X173064867Y-139736904D01*
X173064867Y-139736904D02*
X173169629Y-139763094D01*
X173169629Y-139763094D02*
X173222010Y-139815475D01*
X173222010Y-139815475D02*
X173248200Y-139867856D01*
X173248200Y-139867856D02*
X173248200Y-139972618D01*
X173248200Y-139972618D02*
X173222010Y-140024999D01*
X173222010Y-140024999D02*
X173169629Y-140077380D01*
X173169629Y-140077380D02*
X173064867Y-140103571D01*
X173064867Y-140103571D02*
X172881533Y-140103571D01*
X172881533Y-140103571D02*
X172776771Y-140077380D01*
X172776771Y-140077380D02*
X172724390Y-140024999D01*
X172724390Y-140024999D02*
X172698200Y-139972618D01*
X173300581Y-139632143D02*
X173300581Y-139213095D01*
X173091057Y-139108333D02*
X173091057Y-138846428D01*
X173248200Y-139160714D02*
X172698200Y-138977380D01*
X172698200Y-138977380D02*
X173248200Y-138794047D01*
X172698200Y-138610713D02*
X173143438Y-138610713D01*
X173143438Y-138610713D02*
X173195819Y-138584523D01*
X173195819Y-138584523D02*
X173222010Y-138558332D01*
X173222010Y-138558332D02*
X173248200Y-138505951D01*
X173248200Y-138505951D02*
X173248200Y-138401189D01*
X173248200Y-138401189D02*
X173222010Y-138348808D01*
X173222010Y-138348808D02*
X173195819Y-138322618D01*
X173195819Y-138322618D02*
X173143438Y-138296427D01*
X173143438Y-138296427D02*
X172698200Y-138296427D01*
X172698200Y-138086904D02*
X173248200Y-137720237D01*
X172698200Y-137720237D02*
X173248200Y-138086904D01*
X156771331Y-139671427D02*
X156171331Y-139671427D01*
X156171331Y-139671427D02*
X156171331Y-139528570D01*
X156171331Y-139528570D02*
X156199902Y-139442856D01*
X156199902Y-139442856D02*
X156257045Y-139385713D01*
X156257045Y-139385713D02*
X156314188Y-139357142D01*
X156314188Y-139357142D02*
X156428474Y-139328570D01*
X156428474Y-139328570D02*
X156514188Y-139328570D01*
X156514188Y-139328570D02*
X156628474Y-139357142D01*
X156628474Y-139357142D02*
X156685617Y-139385713D01*
X156685617Y-139385713D02*
X156742760Y-139442856D01*
X156742760Y-139442856D02*
X156771331Y-139528570D01*
X156771331Y-139528570D02*
X156771331Y-139671427D01*
X156171331Y-138957142D02*
X156171331Y-138842856D01*
X156171331Y-138842856D02*
X156199902Y-138785713D01*
X156199902Y-138785713D02*
X156257045Y-138728570D01*
X156257045Y-138728570D02*
X156371331Y-138699999D01*
X156371331Y-138699999D02*
X156571331Y-138699999D01*
X156571331Y-138699999D02*
X156685617Y-138728570D01*
X156685617Y-138728570D02*
X156742760Y-138785713D01*
X156742760Y-138785713D02*
X156771331Y-138842856D01*
X156771331Y-138842856D02*
X156771331Y-138957142D01*
X156771331Y-138957142D02*
X156742760Y-139014285D01*
X156742760Y-139014285D02*
X156685617Y-139071427D01*
X156685617Y-139071427D02*
X156571331Y-139099999D01*
X156571331Y-139099999D02*
X156371331Y-139099999D01*
X156371331Y-139099999D02*
X156257045Y-139071427D01*
X156257045Y-139071427D02*
X156199902Y-139014285D01*
X156199902Y-139014285D02*
X156171331Y-138957142D01*
X172724390Y-142420952D02*
X172698200Y-142473333D01*
X172698200Y-142473333D02*
X172698200Y-142551904D01*
X172698200Y-142551904D02*
X172724390Y-142630476D01*
X172724390Y-142630476D02*
X172776771Y-142682857D01*
X172776771Y-142682857D02*
X172829152Y-142709047D01*
X172829152Y-142709047D02*
X172933914Y-142735238D01*
X172933914Y-142735238D02*
X173012486Y-142735238D01*
X173012486Y-142735238D02*
X173117248Y-142709047D01*
X173117248Y-142709047D02*
X173169629Y-142682857D01*
X173169629Y-142682857D02*
X173222010Y-142630476D01*
X173222010Y-142630476D02*
X173248200Y-142551904D01*
X173248200Y-142551904D02*
X173248200Y-142499523D01*
X173248200Y-142499523D02*
X173222010Y-142420952D01*
X173222010Y-142420952D02*
X173195819Y-142394761D01*
X173195819Y-142394761D02*
X173012486Y-142394761D01*
X173012486Y-142394761D02*
X173012486Y-142499523D01*
X173248200Y-142159047D02*
X172698200Y-142159047D01*
X172698200Y-142159047D02*
X173248200Y-141844761D01*
X173248200Y-141844761D02*
X172698200Y-141844761D01*
X173248200Y-141582857D02*
X172698200Y-141582857D01*
X172698200Y-141582857D02*
X172698200Y-141451905D01*
X172698200Y-141451905D02*
X172724390Y-141373333D01*
X172724390Y-141373333D02*
X172776771Y-141320952D01*
X172776771Y-141320952D02*
X172829152Y-141294762D01*
X172829152Y-141294762D02*
X172933914Y-141268571D01*
X172933914Y-141268571D02*
X173012486Y-141268571D01*
X173012486Y-141268571D02*
X173117248Y-141294762D01*
X173117248Y-141294762D02*
X173169629Y-141320952D01*
X173169629Y-141320952D02*
X173222010Y-141373333D01*
X173222010Y-141373333D02*
X173248200Y-141451905D01*
X173248200Y-141451905D02*
X173248200Y-141582857D01*
X172750581Y-141059048D02*
X172724390Y-141032857D01*
X172724390Y-141032857D02*
X172698200Y-140980476D01*
X172698200Y-140980476D02*
X172698200Y-140849524D01*
X172698200Y-140849524D02*
X172724390Y-140797143D01*
X172724390Y-140797143D02*
X172750581Y-140770952D01*
X172750581Y-140770952D02*
X172802962Y-140744762D01*
X172802962Y-140744762D02*
X172855343Y-140744762D01*
X172855343Y-140744762D02*
X172933914Y-140770952D01*
X172933914Y-140770952D02*
X173248200Y-141085238D01*
X173248200Y-141085238D02*
X173248200Y-140744762D01*
X156714188Y-141839999D02*
X156742760Y-141868571D01*
X156742760Y-141868571D02*
X156771331Y-141954285D01*
X156771331Y-141954285D02*
X156771331Y-142011428D01*
X156771331Y-142011428D02*
X156742760Y-142097142D01*
X156742760Y-142097142D02*
X156685617Y-142154285D01*
X156685617Y-142154285D02*
X156628474Y-142182856D01*
X156628474Y-142182856D02*
X156514188Y-142211428D01*
X156514188Y-142211428D02*
X156428474Y-142211428D01*
X156428474Y-142211428D02*
X156314188Y-142182856D01*
X156314188Y-142182856D02*
X156257045Y-142154285D01*
X156257045Y-142154285D02*
X156199902Y-142097142D01*
X156199902Y-142097142D02*
X156171331Y-142011428D01*
X156171331Y-142011428D02*
X156171331Y-141954285D01*
X156171331Y-141954285D02*
X156199902Y-141868571D01*
X156199902Y-141868571D02*
X156228474Y-141839999D01*
X156742760Y-141611428D02*
X156771331Y-141525714D01*
X156771331Y-141525714D02*
X156771331Y-141382856D01*
X156771331Y-141382856D02*
X156742760Y-141325714D01*
X156742760Y-141325714D02*
X156714188Y-141297142D01*
X156714188Y-141297142D02*
X156657045Y-141268571D01*
X156657045Y-141268571D02*
X156599902Y-141268571D01*
X156599902Y-141268571D02*
X156542760Y-141297142D01*
X156542760Y-141297142D02*
X156514188Y-141325714D01*
X156514188Y-141325714D02*
X156485617Y-141382856D01*
X156485617Y-141382856D02*
X156457045Y-141497142D01*
X156457045Y-141497142D02*
X156428474Y-141554285D01*
X156428474Y-141554285D02*
X156399902Y-141582856D01*
X156399902Y-141582856D02*
X156342760Y-141611428D01*
X156342760Y-141611428D02*
X156285617Y-141611428D01*
X156285617Y-141611428D02*
X156228474Y-141582856D01*
X156228474Y-141582856D02*
X156199902Y-141554285D01*
X156199902Y-141554285D02*
X156171331Y-141497142D01*
X156171331Y-141497142D02*
X156171331Y-141354285D01*
X156171331Y-141354285D02*
X156199902Y-141268571D01*
X156771331Y-145108570D02*
X156171331Y-145108570D01*
X156771331Y-144822856D02*
X156171331Y-144822856D01*
X156171331Y-144822856D02*
X156771331Y-144479999D01*
X156771331Y-144479999D02*
X156171331Y-144479999D01*
X156171331Y-144280000D02*
X156171331Y-143937143D01*
X156771331Y-144108571D02*
X156171331Y-144108571D01*
X156771331Y-143422857D02*
X156771331Y-143765714D01*
X156771331Y-143594285D02*
X156171331Y-143594285D01*
X156171331Y-143594285D02*
X156257045Y-143651428D01*
X156257045Y-143651428D02*
X156314188Y-143708571D01*
X156314188Y-143708571D02*
X156342760Y-143765714D01*
X156771331Y-147648570D02*
X156171331Y-147648570D01*
X156771331Y-147362856D02*
X156171331Y-147362856D01*
X156171331Y-147362856D02*
X156771331Y-147019999D01*
X156771331Y-147019999D02*
X156171331Y-147019999D01*
X156171331Y-146820000D02*
X156171331Y-146477143D01*
X156771331Y-146648571D02*
X156171331Y-146648571D01*
X156228474Y-146305714D02*
X156199902Y-146277142D01*
X156199902Y-146277142D02*
X156171331Y-146220000D01*
X156171331Y-146220000D02*
X156171331Y-146077142D01*
X156171331Y-146077142D02*
X156199902Y-146020000D01*
X156199902Y-146020000D02*
X156228474Y-145991428D01*
X156228474Y-145991428D02*
X156285617Y-145962857D01*
X156285617Y-145962857D02*
X156342760Y-145962857D01*
X156342760Y-145962857D02*
X156428474Y-145991428D01*
X156428474Y-145991428D02*
X156771331Y-146334285D01*
X156771331Y-146334285D02*
X156771331Y-145962857D01*
D10*
X164998095Y-122004819D02*
X164998095Y-122814342D01*
X164998095Y-122814342D02*
X165045714Y-122909580D01*
X165045714Y-122909580D02*
X165093333Y-122957200D01*
X165093333Y-122957200D02*
X165188571Y-123004819D01*
X165188571Y-123004819D02*
X165379047Y-123004819D01*
X165379047Y-123004819D02*
X165474285Y-122957200D01*
X165474285Y-122957200D02*
X165521904Y-122909580D01*
X165521904Y-122909580D02*
X165569523Y-122814342D01*
X165569523Y-122814342D02*
X165569523Y-122004819D01*
X165998095Y-122100057D02*
X166045714Y-122052438D01*
X166045714Y-122052438D02*
X166140952Y-122004819D01*
X166140952Y-122004819D02*
X166379047Y-122004819D01*
X166379047Y-122004819D02*
X166474285Y-122052438D01*
X166474285Y-122052438D02*
X166521904Y-122100057D01*
X166521904Y-122100057D02*
X166569523Y-122195295D01*
X166569523Y-122195295D02*
X166569523Y-122290533D01*
X166569523Y-122290533D02*
X166521904Y-122433390D01*
X166521904Y-122433390D02*
X165950476Y-123004819D01*
X165950476Y-123004819D02*
X166569523Y-123004819D01*
D12*
X173992857Y-103471331D02*
X174192857Y-104071331D01*
X174192857Y-104071331D02*
X174392857Y-103471331D01*
X174592858Y-104071331D02*
X174592858Y-103471331D01*
X174878572Y-104071331D02*
X174878572Y-103471331D01*
X174878572Y-103471331D02*
X175221429Y-104071331D01*
X175221429Y-104071331D02*
X175221429Y-103471331D01*
X171381428Y-103471331D02*
X171752856Y-103471331D01*
X171752856Y-103471331D02*
X171552856Y-103699902D01*
X171552856Y-103699902D02*
X171638571Y-103699902D01*
X171638571Y-103699902D02*
X171695714Y-103728474D01*
X171695714Y-103728474D02*
X171724285Y-103757045D01*
X171724285Y-103757045D02*
X171752856Y-103814188D01*
X171752856Y-103814188D02*
X171752856Y-103957045D01*
X171752856Y-103957045D02*
X171724285Y-104014188D01*
X171724285Y-104014188D02*
X171695714Y-104042760D01*
X171695714Y-104042760D02*
X171638571Y-104071331D01*
X171638571Y-104071331D02*
X171467142Y-104071331D01*
X171467142Y-104071331D02*
X171409999Y-104042760D01*
X171409999Y-104042760D02*
X171381428Y-104014188D01*
X171924285Y-103471331D02*
X172124285Y-104071331D01*
X172124285Y-104071331D02*
X172324285Y-103471331D01*
X172610000Y-104071331D02*
X172552857Y-104042760D01*
X172552857Y-104042760D02*
X172524286Y-104014188D01*
X172524286Y-104014188D02*
X172495714Y-103957045D01*
X172495714Y-103957045D02*
X172495714Y-103785617D01*
X172495714Y-103785617D02*
X172524286Y-103728474D01*
X172524286Y-103728474D02*
X172552857Y-103699902D01*
X172552857Y-103699902D02*
X172610000Y-103671331D01*
X172610000Y-103671331D02*
X172695714Y-103671331D01*
X172695714Y-103671331D02*
X172752857Y-103699902D01*
X172752857Y-103699902D02*
X172781429Y-103728474D01*
X172781429Y-103728474D02*
X172810000Y-103785617D01*
X172810000Y-103785617D02*
X172810000Y-103957045D01*
X172810000Y-103957045D02*
X172781429Y-104014188D01*
X172781429Y-104014188D02*
X172752857Y-104042760D01*
X172752857Y-104042760D02*
X172695714Y-104071331D01*
X172695714Y-104071331D02*
X172610000Y-104071331D01*
X169112857Y-103499902D02*
X169055715Y-103471331D01*
X169055715Y-103471331D02*
X168970000Y-103471331D01*
X168970000Y-103471331D02*
X168884286Y-103499902D01*
X168884286Y-103499902D02*
X168827143Y-103557045D01*
X168827143Y-103557045D02*
X168798572Y-103614188D01*
X168798572Y-103614188D02*
X168770000Y-103728474D01*
X168770000Y-103728474D02*
X168770000Y-103814188D01*
X168770000Y-103814188D02*
X168798572Y-103928474D01*
X168798572Y-103928474D02*
X168827143Y-103985617D01*
X168827143Y-103985617D02*
X168884286Y-104042760D01*
X168884286Y-104042760D02*
X168970000Y-104071331D01*
X168970000Y-104071331D02*
X169027143Y-104071331D01*
X169027143Y-104071331D02*
X169112857Y-104042760D01*
X169112857Y-104042760D02*
X169141429Y-104014188D01*
X169141429Y-104014188D02*
X169141429Y-103814188D01*
X169141429Y-103814188D02*
X169027143Y-103814188D01*
X169398572Y-104071331D02*
X169398572Y-103471331D01*
X169398572Y-103471331D02*
X169741429Y-104071331D01*
X169741429Y-104071331D02*
X169741429Y-103471331D01*
X170027143Y-104071331D02*
X170027143Y-103471331D01*
X170027143Y-103471331D02*
X170170000Y-103471331D01*
X170170000Y-103471331D02*
X170255714Y-103499902D01*
X170255714Y-103499902D02*
X170312857Y-103557045D01*
X170312857Y-103557045D02*
X170341428Y-103614188D01*
X170341428Y-103614188D02*
X170370000Y-103728474D01*
X170370000Y-103728474D02*
X170370000Y-103814188D01*
X170370000Y-103814188D02*
X170341428Y-103928474D01*
X170341428Y-103928474D02*
X170312857Y-103985617D01*
X170312857Y-103985617D02*
X170255714Y-104042760D01*
X170255714Y-104042760D02*
X170170000Y-104071331D01*
X170170000Y-104071331D02*
X170027143Y-104071331D01*
X166315714Y-104042760D02*
X166401429Y-104071331D01*
X166401429Y-104071331D02*
X166544286Y-104071331D01*
X166544286Y-104071331D02*
X166601429Y-104042760D01*
X166601429Y-104042760D02*
X166630000Y-104014188D01*
X166630000Y-104014188D02*
X166658571Y-103957045D01*
X166658571Y-103957045D02*
X166658571Y-103899902D01*
X166658571Y-103899902D02*
X166630000Y-103842760D01*
X166630000Y-103842760D02*
X166601429Y-103814188D01*
X166601429Y-103814188D02*
X166544286Y-103785617D01*
X166544286Y-103785617D02*
X166430000Y-103757045D01*
X166430000Y-103757045D02*
X166372857Y-103728474D01*
X166372857Y-103728474D02*
X166344286Y-103699902D01*
X166344286Y-103699902D02*
X166315714Y-103642760D01*
X166315714Y-103642760D02*
X166315714Y-103585617D01*
X166315714Y-103585617D02*
X166344286Y-103528474D01*
X166344286Y-103528474D02*
X166372857Y-103499902D01*
X166372857Y-103499902D02*
X166430000Y-103471331D01*
X166430000Y-103471331D02*
X166572857Y-103471331D01*
X166572857Y-103471331D02*
X166658571Y-103499902D01*
X167258572Y-104014188D02*
X167230000Y-104042760D01*
X167230000Y-104042760D02*
X167144286Y-104071331D01*
X167144286Y-104071331D02*
X167087143Y-104071331D01*
X167087143Y-104071331D02*
X167001429Y-104042760D01*
X167001429Y-104042760D02*
X166944286Y-103985617D01*
X166944286Y-103985617D02*
X166915715Y-103928474D01*
X166915715Y-103928474D02*
X166887143Y-103814188D01*
X166887143Y-103814188D02*
X166887143Y-103728474D01*
X166887143Y-103728474D02*
X166915715Y-103614188D01*
X166915715Y-103614188D02*
X166944286Y-103557045D01*
X166944286Y-103557045D02*
X167001429Y-103499902D01*
X167001429Y-103499902D02*
X167087143Y-103471331D01*
X167087143Y-103471331D02*
X167144286Y-103471331D01*
X167144286Y-103471331D02*
X167230000Y-103499902D01*
X167230000Y-103499902D02*
X167258572Y-103528474D01*
X167801429Y-104071331D02*
X167515715Y-104071331D01*
X167515715Y-104071331D02*
X167515715Y-103471331D01*
X163704285Y-104042760D02*
X163790000Y-104071331D01*
X163790000Y-104071331D02*
X163932857Y-104071331D01*
X163932857Y-104071331D02*
X163990000Y-104042760D01*
X163990000Y-104042760D02*
X164018571Y-104014188D01*
X164018571Y-104014188D02*
X164047142Y-103957045D01*
X164047142Y-103957045D02*
X164047142Y-103899902D01*
X164047142Y-103899902D02*
X164018571Y-103842760D01*
X164018571Y-103842760D02*
X163990000Y-103814188D01*
X163990000Y-103814188D02*
X163932857Y-103785617D01*
X163932857Y-103785617D02*
X163818571Y-103757045D01*
X163818571Y-103757045D02*
X163761428Y-103728474D01*
X163761428Y-103728474D02*
X163732857Y-103699902D01*
X163732857Y-103699902D02*
X163704285Y-103642760D01*
X163704285Y-103642760D02*
X163704285Y-103585617D01*
X163704285Y-103585617D02*
X163732857Y-103528474D01*
X163732857Y-103528474D02*
X163761428Y-103499902D01*
X163761428Y-103499902D02*
X163818571Y-103471331D01*
X163818571Y-103471331D02*
X163961428Y-103471331D01*
X163961428Y-103471331D02*
X164047142Y-103499902D01*
X164304286Y-104071331D02*
X164304286Y-103471331D01*
X164304286Y-103471331D02*
X164447143Y-103471331D01*
X164447143Y-103471331D02*
X164532857Y-103499902D01*
X164532857Y-103499902D02*
X164590000Y-103557045D01*
X164590000Y-103557045D02*
X164618571Y-103614188D01*
X164618571Y-103614188D02*
X164647143Y-103728474D01*
X164647143Y-103728474D02*
X164647143Y-103814188D01*
X164647143Y-103814188D02*
X164618571Y-103928474D01*
X164618571Y-103928474D02*
X164590000Y-103985617D01*
X164590000Y-103985617D02*
X164532857Y-104042760D01*
X164532857Y-104042760D02*
X164447143Y-104071331D01*
X164447143Y-104071331D02*
X164304286Y-104071331D01*
X165018571Y-103471331D02*
X165132857Y-103471331D01*
X165132857Y-103471331D02*
X165190000Y-103499902D01*
X165190000Y-103499902D02*
X165247143Y-103557045D01*
X165247143Y-103557045D02*
X165275714Y-103671331D01*
X165275714Y-103671331D02*
X165275714Y-103871331D01*
X165275714Y-103871331D02*
X165247143Y-103985617D01*
X165247143Y-103985617D02*
X165190000Y-104042760D01*
X165190000Y-104042760D02*
X165132857Y-104071331D01*
X165132857Y-104071331D02*
X165018571Y-104071331D01*
X165018571Y-104071331D02*
X164961429Y-104042760D01*
X164961429Y-104042760D02*
X164904286Y-103985617D01*
X164904286Y-103985617D02*
X164875714Y-103871331D01*
X164875714Y-103871331D02*
X164875714Y-103671331D01*
X164875714Y-103671331D02*
X164904286Y-103557045D01*
X164904286Y-103557045D02*
X164961429Y-103499902D01*
X164961429Y-103499902D02*
X165018571Y-103471331D01*
X161221428Y-104042760D02*
X161307143Y-104071331D01*
X161307143Y-104071331D02*
X161450000Y-104071331D01*
X161450000Y-104071331D02*
X161507143Y-104042760D01*
X161507143Y-104042760D02*
X161535714Y-104014188D01*
X161535714Y-104014188D02*
X161564285Y-103957045D01*
X161564285Y-103957045D02*
X161564285Y-103899902D01*
X161564285Y-103899902D02*
X161535714Y-103842760D01*
X161535714Y-103842760D02*
X161507143Y-103814188D01*
X161507143Y-103814188D02*
X161450000Y-103785617D01*
X161450000Y-103785617D02*
X161335714Y-103757045D01*
X161335714Y-103757045D02*
X161278571Y-103728474D01*
X161278571Y-103728474D02*
X161250000Y-103699902D01*
X161250000Y-103699902D02*
X161221428Y-103642760D01*
X161221428Y-103642760D02*
X161221428Y-103585617D01*
X161221428Y-103585617D02*
X161250000Y-103528474D01*
X161250000Y-103528474D02*
X161278571Y-103499902D01*
X161278571Y-103499902D02*
X161335714Y-103471331D01*
X161335714Y-103471331D02*
X161478571Y-103471331D01*
X161478571Y-103471331D02*
X161564285Y-103499902D01*
X161821429Y-104071331D02*
X161821429Y-103471331D01*
X161821429Y-103471331D02*
X161964286Y-103471331D01*
X161964286Y-103471331D02*
X162050000Y-103499902D01*
X162050000Y-103499902D02*
X162107143Y-103557045D01*
X162107143Y-103557045D02*
X162135714Y-103614188D01*
X162135714Y-103614188D02*
X162164286Y-103728474D01*
X162164286Y-103728474D02*
X162164286Y-103814188D01*
X162164286Y-103814188D02*
X162135714Y-103928474D01*
X162135714Y-103928474D02*
X162107143Y-103985617D01*
X162107143Y-103985617D02*
X162050000Y-104042760D01*
X162050000Y-104042760D02*
X161964286Y-104071331D01*
X161964286Y-104071331D02*
X161821429Y-104071331D01*
X162392857Y-103899902D02*
X162678572Y-103899902D01*
X162335714Y-104071331D02*
X162535714Y-103471331D01*
X162535714Y-103471331D02*
X162735714Y-104071331D01*
X159310000Y-104014188D02*
X159281428Y-104042760D01*
X159281428Y-104042760D02*
X159195714Y-104071331D01*
X159195714Y-104071331D02*
X159138571Y-104071331D01*
X159138571Y-104071331D02*
X159052857Y-104042760D01*
X159052857Y-104042760D02*
X158995714Y-103985617D01*
X158995714Y-103985617D02*
X158967143Y-103928474D01*
X158967143Y-103928474D02*
X158938571Y-103814188D01*
X158938571Y-103814188D02*
X158938571Y-103728474D01*
X158938571Y-103728474D02*
X158967143Y-103614188D01*
X158967143Y-103614188D02*
X158995714Y-103557045D01*
X158995714Y-103557045D02*
X159052857Y-103499902D01*
X159052857Y-103499902D02*
X159138571Y-103471331D01*
X159138571Y-103471331D02*
X159195714Y-103471331D01*
X159195714Y-103471331D02*
X159281428Y-103499902D01*
X159281428Y-103499902D02*
X159310000Y-103528474D01*
X159538571Y-104042760D02*
X159624286Y-104071331D01*
X159624286Y-104071331D02*
X159767143Y-104071331D01*
X159767143Y-104071331D02*
X159824286Y-104042760D01*
X159824286Y-104042760D02*
X159852857Y-104014188D01*
X159852857Y-104014188D02*
X159881428Y-103957045D01*
X159881428Y-103957045D02*
X159881428Y-103899902D01*
X159881428Y-103899902D02*
X159852857Y-103842760D01*
X159852857Y-103842760D02*
X159824286Y-103814188D01*
X159824286Y-103814188D02*
X159767143Y-103785617D01*
X159767143Y-103785617D02*
X159652857Y-103757045D01*
X159652857Y-103757045D02*
X159595714Y-103728474D01*
X159595714Y-103728474D02*
X159567143Y-103699902D01*
X159567143Y-103699902D02*
X159538571Y-103642760D01*
X159538571Y-103642760D02*
X159538571Y-103585617D01*
X159538571Y-103585617D02*
X159567143Y-103528474D01*
X159567143Y-103528474D02*
X159595714Y-103499902D01*
X159595714Y-103499902D02*
X159652857Y-103471331D01*
X159652857Y-103471331D02*
X159795714Y-103471331D01*
X159795714Y-103471331D02*
X159881428Y-103499902D01*
X156327143Y-104071331D02*
X156327143Y-103471331D01*
X156612857Y-104071331D02*
X156612857Y-103471331D01*
X156612857Y-103471331D02*
X156955714Y-104071331D01*
X156955714Y-104071331D02*
X156955714Y-103471331D01*
X157155713Y-103471331D02*
X157498571Y-103471331D01*
X157327142Y-104071331D02*
X157327142Y-103471331D01*
%TO.C,SW1*%
X171550000Y-75800000D02*
X163150000Y-75800000D01*
X171550000Y-70400000D02*
X171550000Y-75800000D01*
X167350000Y-70500000D02*
X167350000Y-69000000D01*
X163150000Y-75800000D02*
X163150000Y-70400000D01*
X163150000Y-70400000D02*
X171550000Y-70400000D01*
%TO.C,TP2*%
X159900000Y-73200000D02*
G75*
G02*
X156100000Y-73200000I-1900000J0D01*
G01*
X156100000Y-73200000D02*
G75*
G02*
X159900000Y-73200000I1900000J0D01*
G01*
%TO.C,TP-BAT-+1*%
X178000000Y-73100000D02*
G75*
G02*
X174200000Y-73100000I-1900000J0D01*
G01*
X174200000Y-73100000D02*
G75*
G02*
X178000000Y-73100000I1900000J0D01*
G01*
%TO.C,U1*%
D13*
X174121000Y-79490000D02*
X174121000Y-97270000D01*
X153166000Y-79490000D02*
X174121000Y-79490000D01*
X174121000Y-97270000D02*
X153166000Y-97270000D01*
X153166000Y-97270000D02*
X153166000Y-79490000D01*
D14*
X171300000Y-78880000D02*
G75*
G02*
X171100000Y-78880000I-100000J0D01*
G01*
X171100000Y-78880000D02*
G75*
G02*
X171300000Y-78880000I100000J0D01*
G01*
%TO.C,U3*%
D12*
X173540000Y-124060000D02*
X173540000Y-149260000D01*
X155960000Y-124060000D02*
X173540000Y-124060000D01*
X173540000Y-149260000D02*
X155960000Y-149260000D01*
X155960000Y-149260000D02*
X155960000Y-124060000D01*
%TO.C,U2*%
X178360000Y-120840000D02*
X153160000Y-120840000D01*
X178360000Y-103260000D02*
X178360000Y-120840000D01*
X153160000Y-120840000D02*
X153160000Y-103260000D01*
X153160000Y-103260000D02*
X178360000Y-103260000D01*
%TD*%
M02*
