%TF.GenerationSoftware,KiCad,Pcbnew,10.0.4*%
%TF.CreationDate,2026-08-02T01:45:48+02:00*%
%TF.ProjectId,onboard-systems,6f6e626f-6172-4642-9d73-797374656d73,rev?*%
%TF.SameCoordinates,Original*%
%TF.FileFunction,Copper,L2,Bot*%
%TF.FilePolarity,Positive*%
%FSLAX46Y46*%
G04 Gerber Fmt 4.6, Leading zero omitted, Abs format (unit mm)*
G04 Created by KiCad (PCBNEW 10.0.4) date 2026-08-02 01:45:48*
%MOMM*%
%LPD*%
G01*
G04 APERTURE LIST*
%TA.AperFunction,ComponentPad*%
%ADD10C,2.400000*%
%TD*%
%TA.AperFunction,ComponentPad*%
%ADD11C,3.400000*%
%TD*%
%TA.AperFunction,ComponentPad*%
%ADD12R,1.508000X1.508000*%
%TD*%
%TA.AperFunction,ComponentPad*%
%ADD13C,1.508000*%
%TD*%
%TA.AperFunction,ComponentPad*%
%ADD14C,1.778000*%
%TD*%
%TA.AperFunction,ComponentPad*%
%ADD15C,3.200000*%
%TD*%
G04 APERTURE END LIST*
D10*
%TO.P,SW1,2*%
%TO.N,Net-(SW1-Pad2)*%
X168600000Y-73100000D03*
%TO.P,SW1,1*%
%TO.N,Net-(SW1-Pad1)*%
X166100000Y-73100000D03*
%TD*%
D11*
%TO.P,TP2,1,1_1*%
%TO.N,Net-(SW1-Pad1)*%
X158000000Y-73200000D03*
%TD*%
%TO.P,TP-BAT-+1,1,1_1*%
%TO.N,Net-(SW1-Pad2)*%
X176100000Y-73100000D03*
%TD*%
D12*
%TO.P,U1,1,D0/GPIO1_1*%
%TO.N,unconnected-(U1-D0{slash}GPIO1-Pad1)*%
X171200000Y-80760000D03*
D13*
%TO.P,U1,2,D1/GPIO2_2*%
%TO.N,unconnected-(U1-D1{slash}GPIO2-Pad2)*%
X168660000Y-80760000D03*
%TO.P,U1,3,D2/GPIO3_3*%
%TO.N,unconnected-(U1-D2{slash}GPIO3-Pad3)*%
X166120000Y-80760000D03*
%TO.P,U1,4,D3/GPIO4_4*%
%TO.N,unconnected-(U1-D3{slash}GPIO4-Pad4)*%
X163580000Y-80760000D03*
%TO.P,U1,5,D4/GPIO5_5*%
%TO.N,Net-(U1-D4{slash}GPIO5)*%
X161040000Y-80760000D03*
%TO.P,U1,6,D5/GPIO6_6*%
%TO.N,Net-(U1-D5{slash}GPIO6)*%
X158500000Y-80760000D03*
%TO.P,U1,7,D6/GPIO43_7*%
%TO.N,unconnected-(U1-D6{slash}GPIO43-Pad7)*%
X155960000Y-80760000D03*
%TO.P,U1,8,D7/GPIO44_8*%
%TO.N,unconnected-(U1-D7{slash}GPIO44-Pad8)*%
X155960000Y-96000000D03*
%TO.P,U1,9,D8/GPIO7_9*%
%TO.N,unconnected-(U1-D8{slash}GPIO7-Pad9)*%
X158500000Y-96000000D03*
%TO.P,U1,10,D9/GPIO8_10*%
%TO.N,unconnected-(U1-D9{slash}GPIO8-Pad10)*%
X161040000Y-96000000D03*
%TO.P,U1,11,D10/GPIO9_11*%
%TO.N,unconnected-(U1-D10{slash}GPIO9-Pad11)*%
X163580000Y-96000000D03*
%TO.P,U1,12,3V3_12*%
%TO.N,Net-(U1-3V3)*%
X166120000Y-96000000D03*
%TO.P,U1,13,GND_13*%
%TO.N,GND*%
X168660000Y-96000000D03*
%TO.P,U1,14,5V_14*%
%TO.N,unconnected-(U1-5V-Pad14)*%
X171200000Y-96000000D03*
%TD*%
D14*
%TO.P,U3,1,VIN_1*%
%TO.N,Net-(U1-3V3)*%
X158400000Y-126500000D03*
%TO.P,U3,2,3Vo_2*%
%TO.N,unconnected-(U3-3Vo-Pad2)*%
X158400000Y-129040000D03*
%TO.P,U3,3,GND_3*%
%TO.N,GND*%
X158400000Y-131580000D03*
%TO.P,U3,4,SCL_4*%
%TO.N,Net-(U1-D5{slash}GPIO6)*%
X158400000Y-134120000D03*
%TO.P,U3,5,SDA_5*%
%TO.N,Net-(U1-D4{slash}GPIO5)*%
X158400000Y-136660000D03*
%TO.P,U3,6,DO_6*%
%TO.N,unconnected-(U3-DO-Pad6)*%
X158400000Y-139200000D03*
%TO.P,U3,7,CS_7*%
%TO.N,unconnected-(U3-CS-Pad7)*%
X158400000Y-141740000D03*
%TO.P,U3,8,INT1_8*%
%TO.N,unconnected-(U3-INT1-Pad8)*%
X158400000Y-144280000D03*
%TO.P,U3,9,INT2_9*%
%TO.N,unconnected-(U3-INT2-Pad9)*%
X158400000Y-146820000D03*
%TO.P,U3,10,SCX_10*%
%TO.N,unconnected-(U3-SCX-Pad10)*%
X171100000Y-131580000D03*
%TO.P,U3,11,SDX_11*%
%TO.N,unconnected-(U3-SDX-Pad11)*%
X171100000Y-134120000D03*
%TO.P,U3,12,CS_AUX_12*%
%TO.N,unconnected-(U3-CS_AUX-Pad12)*%
X171100000Y-136660000D03*
%TO.P,U3,13,DO_AUX_13*%
%TO.N,unconnected-(U3-DO_AUX-Pad13)*%
X171100000Y-139200000D03*
%TO.P,U3,14,GND2_14*%
%TO.N,unconnected-(U3-GND2-Pad14)*%
X171100000Y-141740000D03*
D15*
%TO.P,U3,MH1*%
%TO.N,N/C*%
X171100000Y-126500000D03*
%TO.P,U3,MH2*%
X171100000Y-146820000D03*
%TD*%
D14*
%TO.P,U2,1,VIN_1*%
%TO.N,Net-(U1-3V3)*%
X174650000Y-105700000D03*
%TO.P,U2,2,3Vo_2*%
%TO.N,unconnected-(U2-3Vo-Pad2)*%
X172110000Y-105700000D03*
%TO.P,U2,3,GND_3*%
%TO.N,GND*%
X169570000Y-105700000D03*
%TO.P,U2,4,SCL_4*%
%TO.N,Net-(U1-D5{slash}GPIO6)*%
X167030000Y-105700000D03*
%TO.P,U2,5,SDO_5*%
%TO.N,unconnected-(U2-SDO-Pad5)*%
X164490000Y-105700000D03*
%TO.P,U2,6,SDA_6*%
%TO.N,Net-(U1-D4{slash}GPIO5)*%
X161950000Y-105700000D03*
%TO.P,U2,7,CS_7*%
%TO.N,unconnected-(U2-CS-Pad7)*%
X159410000Y-105700000D03*
%TO.P,U2,8,INT_8*%
%TO.N,unconnected-(U2-INT-Pad8)*%
X156870000Y-105700000D03*
D15*
%TO.P,U2,MH1*%
%TO.N,N/C*%
X175920000Y-118400000D03*
%TO.P,U2,MH2*%
X155600000Y-118400000D03*
%TD*%
M02*
