%TF.GenerationSoftware,KiCad,Pcbnew,10.0.4*%
%TF.CreationDate,2026-08-02T01:45:48+02:00*%
%TF.ProjectId,onboard-systems,6f6e626f-6172-4642-9d73-797374656d73,rev?*%
%TF.SameCoordinates,Original*%
%TF.FileFunction,Soldermask,Bot*%
%TF.FilePolarity,Negative*%
%FSLAX46Y46*%
G04 Gerber Fmt 4.6, Leading zero omitted, Abs format (unit mm)*
G04 Created by KiCad (PCBNEW 10.0.4) date 2026-08-02 01:45:48*
%MOMM*%
%LPD*%
G01*
G04 APERTURE LIST*
G04 Aperture macros list*
%AMRoundRect*
0 Rectangle with rounded corners*
0 $1 Rounding radius*
0 $2 $3 $4 $5 $6 $7 $8 $9 X,Y pos of 4 corners*
0 Add a 4 corners polygon primitive as box body*
4,1,4,$2,$3,$4,$5,$6,$7,$8,$9,$2,$3,0*
0 Add four circle primitives for the rounded corners*
1,1,$1+$1,$2,$3*
1,1,$1+$1,$4,$5*
1,1,$1+$1,$6,$7*
1,1,$1+$1,$8,$9*
0 Add four rect primitives between the rounded corners*
20,1,$1+$1,$2,$3,$4,$5,0*
20,1,$1+$1,$4,$5,$6,$7,0*
20,1,$1+$1,$6,$7,$8,$9,0*
20,1,$1+$1,$8,$9,$2,$3,0*%
G04 Aperture macros list end*
%ADD10C,2.400000*%
%ADD11C,3.400000*%
%ADD12RoundRect,0.102000X-0.754000X0.754000X-0.754000X-0.754000X0.754000X-0.754000X0.754000X0.754000X0*%
%ADD13C,1.712000*%
%ADD14C,1.778000*%
%ADD15C,3.200000*%
G04 APERTURE END LIST*
D10*
%TO.C,SW1*%
X168600000Y-73100000D03*
X166100000Y-73100000D03*
%TD*%
D11*
%TO.C,TP2*%
X158000000Y-73200000D03*
%TD*%
%TO.C,TP-BAT-+1*%
X176100000Y-73100000D03*
%TD*%
D12*
%TO.C,U1*%
X171200000Y-80760000D03*
D13*
X168660000Y-80760000D03*
X166120000Y-80760000D03*
X163580000Y-80760000D03*
X161040000Y-80760000D03*
X158500000Y-80760000D03*
X155960000Y-80760000D03*
X155960000Y-96000000D03*
X158500000Y-96000000D03*
X161040000Y-96000000D03*
X163580000Y-96000000D03*
X166120000Y-96000000D03*
X168660000Y-96000000D03*
X171200000Y-96000000D03*
%TD*%
D14*
%TO.C,U3*%
X158400000Y-126500000D03*
X158400000Y-129040000D03*
X158400000Y-131580000D03*
X158400000Y-134120000D03*
X158400000Y-136660000D03*
X158400000Y-139200000D03*
X158400000Y-141740000D03*
X158400000Y-144280000D03*
X158400000Y-146820000D03*
X171100000Y-131580000D03*
X171100000Y-134120000D03*
X171100000Y-136660000D03*
X171100000Y-139200000D03*
X171100000Y-141740000D03*
D15*
X171100000Y-126500000D03*
X171100000Y-146820000D03*
%TD*%
D14*
%TO.C,U2*%
X174650000Y-105700000D03*
X172110000Y-105700000D03*
X169570000Y-105700000D03*
X167030000Y-105700000D03*
X164490000Y-105700000D03*
X161950000Y-105700000D03*
X159410000Y-105700000D03*
X156870000Y-105700000D03*
D15*
X175920000Y-118400000D03*
X155600000Y-118400000D03*
%TD*%
M02*
