M48
; DRILL file KiCad 10.0.4 date 2026-08-06T19:29:45
; FORMAT={-:-/ absolute / metric / decimal}
; #@! TF.CreationDate,2026-08-06T19:29:45+02:00
; #@! TF.GenerationSoftware,Kicad,Pcbnew,10.0.4
; #@! TF.FileFunction,Plated,1,2,PTH
FMAT,2
METRIC
; #@! TA.AperFunction,Plated,PTH,ComponentDrill
T1C1.000
; #@! TA.AperFunction,Plated,PTH,ComponentDrill
T2C1.016
; #@! TA.AperFunction,Plated,PTH,ComponentDrill
T3C2.500
%
G90
G05
T1
X161.849Y-80.76
X161.849Y-96.0
X164.389Y-80.76
X164.389Y-96.0
X166.929Y-80.76
X166.929Y-96.0
X169.469Y-80.76
X169.469Y-96.0
X172.009Y-80.76
X172.009Y-96.0
X174.549Y-80.76
X174.549Y-96.0
X177.089Y-80.76
X177.089Y-96.0
T2
X158.399Y-105.7
X160.939Y-105.7
X161.949Y-131.58
X161.949Y-134.12
X161.949Y-136.66
X161.949Y-139.2
X161.949Y-141.74
X163.479Y-105.7
X166.019Y-105.7
X168.559Y-105.7
X171.099Y-105.7
X173.639Y-105.7
X174.649Y-126.5
X174.649Y-129.04
X174.649Y-131.58
X174.649Y-134.12
X174.649Y-136.66
X174.649Y-139.2
X174.649Y-141.74
X174.649Y-144.28
X174.649Y-146.82
X176.179Y-105.7
T3
X157.129Y-118.4
X161.949Y-126.5
X161.949Y-146.82
X177.449Y-118.4
M30
