M48
; DRILL file KiCad 10.0.4 date 2026-08-02T02:43:48
; FORMAT={-:-/ absolute / metric / decimal}
; #@! TF.CreationDate,2026-08-02T02:43:48+02:00
; #@! TF.GenerationSoftware,Kicad,Pcbnew,10.0.4
; #@! TF.FileFunction,Plated,1,2,PTH
FMAT,2
METRIC
; #@! TA.AperFunction,Plated,PTH,ComponentDrill
T1C1.000
; #@! TA.AperFunction,Plated,PTH,ComponentDrill
T2C1.016
; #@! TA.AperFunction,Plated,PTH,ComponentDrill
T3C1.300
; #@! TA.AperFunction,Plated,PTH,ComponentDrill
T4C1.850
; #@! TA.AperFunction,Plated,PTH,ComponentDrill
T5C2.500
%
G90
G05
T1
X155.96Y-80.76
X155.96Y-96.0
X158.5Y-80.76
X158.5Y-96.0
X161.04Y-80.76
X161.04Y-96.0
X163.58Y-80.76
X163.58Y-96.0
X166.12Y-80.76
X166.12Y-96.0
X168.66Y-80.76
X168.66Y-96.0
X171.2Y-80.76
X171.2Y-96.0
T2
X156.87Y-105.7
X158.4Y-126.5
X158.4Y-129.04
X158.4Y-131.58
X158.4Y-134.12
X158.4Y-136.66
X158.4Y-139.2
X158.4Y-141.74
X158.4Y-144.28
X158.4Y-146.82
X159.41Y-105.7
X161.95Y-105.7
X164.49Y-105.7
X167.03Y-105.7
X169.57Y-105.7
X171.1Y-131.58
X171.1Y-134.12
X171.1Y-136.66
X171.1Y-139.2
X171.1Y-141.74
X172.11Y-105.7
X174.65Y-105.7
T3
X166.1Y-73.1
X168.6Y-73.1
T4
X158.0Y-73.2
X176.1Y-73.1
T5
X155.6Y-118.4
X171.1Y-126.5
X171.1Y-146.82
X175.92Y-118.4
M30
