%TF.GenerationSoftware,KiCad,Pcbnew,10.0.4*%
%TF.CreationDate,2026-08-02T02:43:47+02:00*%
%TF.ProjectId,onboard-systems,6f6e626f-6172-4642-9d73-797374656d73,rev?*%
%TF.SameCoordinates,Original*%
%TF.FileFunction,Copper,L1,Top*%
%TF.FilePolarity,Positive*%
%FSLAX46Y46*%
G04 Gerber Fmt 4.6, Leading zero omitted, Abs format (unit mm)*
G04 Created by KiCad (PCBNEW 10.0.4) date 2026-08-02 02:43:47*
%MOMM*%
%LPD*%
G01*
G04 APERTURE LIST*
%TA.AperFunction,ComponentPad*%
%ADD10C,3.400000*%
%TD*%
%TA.AperFunction,ComponentPad*%
%ADD11C,1.508000*%
%TD*%
%TA.AperFunction,ComponentPad*%
%ADD12R,1.508000X1.508000*%
%TD*%
%TA.AperFunction,ComponentPad*%
%ADD13C,3.200000*%
%TD*%
%TA.AperFunction,ComponentPad*%
%ADD14C,1.778000*%
%TD*%
%TA.AperFunction,ComponentPad*%
%ADD15C,2.400000*%
%TD*%
%TA.AperFunction,Conductor*%
%ADD16C,0.600000*%
%TD*%
G04 APERTURE END LIST*
D10*
%TO.P,TP-BAT-+1,1,1_1*%
%TO.N,Net-(SW1-Pad2)*%
X176100000Y-73100000D03*
%TD*%
D11*
%TO.P,U1,14,5V_14*%
%TO.N,unconnected-(U1-5V-Pad14)*%
X171200000Y-96000000D03*
%TO.P,U1,13,GND_13*%
%TO.N,GND*%
X168660000Y-96000000D03*
%TO.P,U1,12,3V3_12*%
%TO.N,Net-(U1-3V3)*%
X166120000Y-96000000D03*
%TO.P,U1,11,D10/GPIO9_11*%
%TO.N,unconnected-(U1-D10{slash}GPIO9-Pad11)*%
X163580000Y-96000000D03*
%TO.P,U1,10,D9/GPIO8_10*%
%TO.N,unconnected-(U1-D9{slash}GPIO8-Pad10)*%
X161040000Y-96000000D03*
%TO.P,U1,9,D8/GPIO7_9*%
%TO.N,unconnected-(U1-D8{slash}GPIO7-Pad9)*%
X158500000Y-96000000D03*
%TO.P,U1,8,D7/GPIO44_8*%
%TO.N,unconnected-(U1-D7{slash}GPIO44-Pad8)*%
X155960000Y-96000000D03*
%TO.P,U1,7,D6/GPIO43_7*%
%TO.N,unconnected-(U1-D6{slash}GPIO43-Pad7)*%
X155960000Y-80760000D03*
%TO.P,U1,6,D5/GPIO6_6*%
%TO.N,Net-(U1-D5{slash}GPIO6)*%
X158500000Y-80760000D03*
%TO.P,U1,5,D4/GPIO5_5*%
%TO.N,Net-(U1-D4{slash}GPIO5)*%
X161040000Y-80760000D03*
%TO.P,U1,4,D3/GPIO4_4*%
%TO.N,unconnected-(U1-D3{slash}GPIO4-Pad4)*%
X163580000Y-80760000D03*
%TO.P,U1,3,D2/GPIO3_3*%
%TO.N,unconnected-(U1-D2{slash}GPIO3-Pad3)*%
X166120000Y-80760000D03*
%TO.P,U1,2,D1/GPIO2_2*%
%TO.N,unconnected-(U1-D1{slash}GPIO2-Pad2)*%
X168660000Y-80760000D03*
D12*
%TO.P,U1,1,D0/GPIO1_1*%
%TO.N,unconnected-(U1-D0{slash}GPIO1-Pad1)*%
X171200000Y-80760000D03*
%TD*%
D10*
%TO.P,TP2,1,1_1*%
%TO.N,Net-(SW1-Pad1)*%
X158000000Y-73200000D03*
%TD*%
D13*
%TO.P,U3,MH2*%
%TO.N,N/C*%
X171100000Y-146820000D03*
%TO.P,U3,MH1*%
X171100000Y-126500000D03*
D14*
%TO.P,U3,14,GND2_14*%
%TO.N,unconnected-(U3-GND2-Pad14)*%
X171100000Y-141740000D03*
%TO.P,U3,13,DO_AUX_13*%
%TO.N,unconnected-(U3-DO_AUX-Pad13)*%
X171100000Y-139200000D03*
%TO.P,U3,12,CS_AUX_12*%
%TO.N,unconnected-(U3-CS_AUX-Pad12)*%
X171100000Y-136660000D03*
%TO.P,U3,11,SDX_11*%
%TO.N,unconnected-(U3-SDX-Pad11)*%
X171100000Y-134120000D03*
%TO.P,U3,10,SCX_10*%
%TO.N,unconnected-(U3-SCX-Pad10)*%
X171100000Y-131580000D03*
%TO.P,U3,9,INT2_9*%
%TO.N,unconnected-(U3-INT2-Pad9)*%
X158400000Y-146820000D03*
%TO.P,U3,8,INT1_8*%
%TO.N,unconnected-(U3-INT1-Pad8)*%
X158400000Y-144280000D03*
%TO.P,U3,7,CS_7*%
%TO.N,unconnected-(U3-CS-Pad7)*%
X158400000Y-141740000D03*
%TO.P,U3,6,DO_6*%
%TO.N,unconnected-(U3-DO-Pad6)*%
X158400000Y-139200000D03*
%TO.P,U3,5,SDA_5*%
%TO.N,Net-(U1-D4{slash}GPIO5)*%
X158400000Y-136660000D03*
%TO.P,U3,4,SCL_4*%
%TO.N,Net-(U1-D5{slash}GPIO6)*%
X158400000Y-134120000D03*
%TO.P,U3,3,GND_3*%
%TO.N,GND*%
X158400000Y-131580000D03*
%TO.P,U3,2,3Vo_2*%
%TO.N,unconnected-(U3-3Vo-Pad2)*%
X158400000Y-129040000D03*
%TO.P,U3,1,VIN_1*%
%TO.N,Net-(U1-3V3)*%
X158400000Y-126500000D03*
%TD*%
D15*
%TO.P,SW1,1*%
%TO.N,Net-(SW1-Pad1)*%
X166100000Y-73100000D03*
%TO.P,SW1,2*%
%TO.N,Net-(SW1-Pad2)*%
X168600000Y-73100000D03*
%TD*%
D13*
%TO.P,U2,MH2*%
%TO.N,N/C*%
X155600000Y-118400000D03*
%TO.P,U2,MH1*%
X175920000Y-118400000D03*
D14*
%TO.P,U2,8,INT_8*%
%TO.N,unconnected-(U2-INT-Pad8)*%
X156870000Y-105700000D03*
%TO.P,U2,7,CS_7*%
%TO.N,unconnected-(U2-CS-Pad7)*%
X159410000Y-105700000D03*
%TO.P,U2,6,SDA_6*%
%TO.N,Net-(U1-D4{slash}GPIO5)*%
X161950000Y-105700000D03*
%TO.P,U2,5,SDO_5*%
%TO.N,unconnected-(U2-SDO-Pad5)*%
X164490000Y-105700000D03*
%TO.P,U2,4,SCL_4*%
%TO.N,Net-(U1-D5{slash}GPIO6)*%
X167030000Y-105700000D03*
%TO.P,U2,3,GND_3*%
%TO.N,GND*%
X169570000Y-105700000D03*
%TO.P,U2,2,3Vo_2*%
%TO.N,unconnected-(U2-3Vo-Pad2)*%
X172110000Y-105700000D03*
%TO.P,U2,1,VIN_1*%
%TO.N,Net-(U1-3V3)*%
X174650000Y-105700000D03*
%TD*%
%TO.N,Net-(U1-D5{slash}GPIO6)*%
D16*
X156700000Y-147500000D02*
X157700000Y-148500000D01*
X157700000Y-148500000D02*
X166000000Y-148500000D01*
%TO.N,Net-(SW1-Pad2)*%
X168600000Y-73100000D02*
X176100000Y-73100000D01*
%TO.N,Net-(SW1-Pad1)*%
X166000000Y-73200000D02*
X166100000Y-73100000D01*
X158000000Y-73200000D02*
X166000000Y-73200000D01*
%TO.N,Net-(U1-3V3)*%
X164500000Y-97600000D02*
X166100000Y-96000000D01*
X163000000Y-97400000D02*
X163100000Y-97500000D01*
X155200000Y-105100000D02*
X155500000Y-104800000D01*
X174600000Y-105700000D02*
X158400000Y-121900000D01*
%TO.N,GND*%
X155900000Y-94400000D02*
X167100000Y-94400000D01*
X155800000Y-94500000D02*
X155900000Y-94400000D01*
%TO.N,Net-(U1-3V3)*%
X163100000Y-97500000D02*
X163400000Y-97500000D01*
X162800000Y-97400000D02*
X163000000Y-97400000D01*
X155200000Y-106500000D02*
X155200000Y-105100000D01*
%TO.N,GND*%
X167100000Y-94400000D02*
X168700000Y-96000000D01*
X157000000Y-120300000D02*
X157100000Y-120300000D01*
%TO.N,Net-(U1-3V3)*%
X164500000Y-115800000D02*
X155200000Y-106500000D01*
%TO.N,GND*%
X154200000Y-107000000D02*
X154200000Y-95600000D01*
X155300000Y-94500000D02*
X155800000Y-94500000D01*
%TO.N,Net-(U1-3V3)*%
X163400000Y-97500000D02*
X163500000Y-97600000D01*
X163500000Y-97600000D02*
X164500000Y-97600000D01*
%TO.N,GND*%
X157100000Y-120300000D02*
X162300000Y-115100000D01*
%TO.N,Net-(U1-3V3)*%
X158400000Y-121900000D02*
X158400000Y-126500000D01*
%TO.N,GND*%
X162300000Y-115100000D02*
X154200000Y-107000000D01*
%TO.N,Net-(U1-3V3)*%
X155500000Y-104800000D02*
X155500000Y-104700000D01*
X155500000Y-104700000D02*
X162800000Y-97400000D01*
%TO.N,GND*%
X154200000Y-95600000D02*
X155300000Y-94500000D01*
%TO.N,Net-(U1-D5{slash}GPIO6)*%
X171800000Y-143400000D02*
X172700000Y-142500000D01*
%TO.N,GND*%
X173300000Y-102000000D02*
X176300000Y-105000000D01*
%TO.N,Net-(U1-D5{slash}GPIO6)*%
X174300000Y-128199999D02*
X174300000Y-127800000D01*
X156700000Y-136000000D02*
X156700000Y-147500000D01*
%TO.N,GND*%
X176300000Y-105000000D02*
X176300000Y-113700000D01*
X156700000Y-120600000D02*
X157000000Y-120300000D01*
X156800000Y-129400000D02*
X156700000Y-129300000D01*
%TO.N,Net-(U1-D5{slash}GPIO6)*%
X173800000Y-96100000D02*
X173800000Y-80700000D01*
%TO.N,GND*%
X158500000Y-131500000D02*
X156800000Y-129800000D01*
X176300000Y-113700000D02*
X158400000Y-131600000D01*
X169600000Y-105700000D02*
X173300000Y-102000000D01*
%TO.N,Net-(U1-D5{slash}GPIO6)*%
X158400000Y-134300000D02*
X156700000Y-136000000D01*
X172800000Y-142000000D02*
X172800000Y-129699999D01*
X166000000Y-148500000D02*
X171100000Y-143400000D01*
X171100000Y-143400000D02*
X171800000Y-143400000D01*
%TO.N,GND*%
X156700000Y-129300000D02*
X156700000Y-120600000D01*
%TO.N,Net-(U1-D5{slash}GPIO6)*%
X174500000Y-126200000D02*
X180100000Y-120600000D01*
X180100000Y-120600000D02*
X180100000Y-120100000D01*
X172800000Y-129699999D02*
X174300000Y-128199999D01*
X173800000Y-80700000D02*
X172300000Y-79200000D01*
X172700000Y-142500000D02*
X172700000Y-142100000D01*
X172700000Y-142100000D02*
X172800000Y-142000000D01*
X180100000Y-120100000D02*
X180300000Y-119900000D01*
X160100000Y-79200000D02*
X158500000Y-80800000D01*
X172300000Y-79200000D02*
X160100000Y-79200000D01*
X174500000Y-127600000D02*
X174500000Y-126200000D01*
X180300000Y-102600000D02*
X173800000Y-96100000D01*
X180300000Y-119900000D02*
X180300000Y-102600000D01*
X174300000Y-127800000D02*
X174500000Y-127600000D01*
%TO.N,GND*%
X156800000Y-129800000D02*
X156800000Y-129400000D01*
%TO.N,Net-(U1-D5{slash}GPIO6)*%
X177300000Y-104500000D02*
X177300000Y-116400000D01*
X172900000Y-124800000D02*
X172800000Y-124800000D01*
X177900000Y-119700000D02*
X177900000Y-119800000D01*
X167200000Y-105700000D02*
X171900000Y-101000000D01*
%TO.N,Net-(U1-D4{slash}GPIO5)*%
X173000000Y-128000000D02*
X171100000Y-129900000D01*
%TO.N,Net-(U1-D5{slash}GPIO6)*%
X178300000Y-117400000D02*
X178300000Y-119100000D01*
%TO.N,Net-(U1-D4{slash}GPIO5)*%
X165200000Y-129900000D02*
X158400000Y-136700000D01*
%TO.N,Net-(U1-D5{slash}GPIO6)*%
X177900000Y-119800000D02*
X172900000Y-124800000D01*
X178100000Y-119500000D02*
X177900000Y-119700000D01*
X177300000Y-116400000D02*
X178300000Y-117400000D01*
X171900000Y-101000000D02*
X173800000Y-101000000D01*
X173800000Y-101000000D02*
X177300000Y-104500000D01*
%TO.N,Net-(U1-D4{slash}GPIO5)*%
X172700000Y-96200000D02*
X172800000Y-96100000D01*
X172800000Y-92600000D02*
X161000000Y-80800000D01*
X172600000Y-96900000D02*
X172600000Y-96600000D01*
X172800000Y-96100000D02*
X172800000Y-92600000D01*
X172700000Y-96500000D02*
X172700000Y-96200000D01*
X171300000Y-98200000D02*
X172600000Y-96900000D01*
X172600000Y-96600000D02*
X172700000Y-96500000D01*
X171100000Y-129900000D02*
X165200000Y-129900000D01*
%TO.N,Net-(U1-D5{slash}GPIO6)*%
X178300000Y-119100000D02*
X178100000Y-119300000D01*
X178100000Y-119300000D02*
X178100000Y-119500000D01*
X168400000Y-124100000D02*
X158400000Y-134100000D01*
X172300000Y-124300000D02*
X172000000Y-124300000D01*
X171500000Y-124100000D02*
X168400000Y-124100000D01*
X171600000Y-124200000D02*
X171500000Y-124100000D01*
X171900000Y-124200000D02*
X171600000Y-124200000D01*
X172000000Y-124300000D02*
X171900000Y-124200000D01*
X172800000Y-124800000D02*
X172300000Y-124300000D01*
%TO.N,Net-(U1-D4{slash}GPIO5)*%
X179100000Y-119700000D02*
X179100000Y-120000000D01*
X179300000Y-116900000D02*
X179300000Y-119500000D01*
X173500000Y-127200000D02*
X173300000Y-127400000D01*
X173000000Y-127900000D02*
X173000000Y-128000000D01*
X173300000Y-127600000D02*
X173000000Y-127900000D01*
X173300000Y-127400000D02*
X173300000Y-127600000D01*
X178300000Y-104000000D02*
X178300000Y-115900000D01*
X178700000Y-120500000D02*
X173500000Y-125700000D01*
X179100000Y-120000000D02*
X178700000Y-120400000D01*
X178700000Y-120400000D02*
X178700000Y-120500000D01*
X178300000Y-115900000D02*
X179300000Y-116900000D01*
X174300000Y-100000000D02*
X178300000Y-104000000D01*
X173500000Y-125700000D02*
X173500000Y-127200000D01*
X179300000Y-119500000D02*
X179100000Y-119700000D01*
X170400000Y-97300000D02*
X173100000Y-100000000D01*
X162000000Y-105700000D02*
X170400000Y-97300000D01*
X173100000Y-100000000D02*
X174300000Y-100000000D01*
%TD*%
%TA.AperFunction,Conductor*%
%TO.N,GND*%
G36*
X181142539Y-67420185D02*
G01*
X181188294Y-67472989D01*
X181199500Y-67524500D01*
X181199500Y-102096560D01*
X181179815Y-102163599D01*
X181127011Y-102209354D01*
X181057853Y-102219298D01*
X180994297Y-102190273D01*
X180972398Y-102165451D01*
X180921790Y-102089712D01*
X180921789Y-102089711D01*
X180810289Y-101978211D01*
X174636819Y-95804741D01*
X174603334Y-95743418D01*
X174600500Y-95717060D01*
X174600500Y-80621156D01*
X174600499Y-80621154D01*
X174590463Y-80570697D01*
X174589629Y-80566503D01*
X174569737Y-80466502D01*
X174550815Y-80420821D01*
X174510379Y-80323199D01*
X174509397Y-80320827D01*
X174509390Y-80320814D01*
X174421790Y-80189712D01*
X174421789Y-80189711D01*
X174310289Y-80078211D01*
X173701802Y-79469724D01*
X172810292Y-78578213D01*
X172810288Y-78578210D01*
X172679185Y-78490609D01*
X172679172Y-78490602D01*
X172533501Y-78430264D01*
X172533489Y-78430261D01*
X172378845Y-78399500D01*
X172378842Y-78399500D01*
X160178843Y-78399500D01*
X160021158Y-78399500D01*
X160021153Y-78399500D01*
X159866510Y-78430260D01*
X159866502Y-78430262D01*
X159720824Y-78490604D01*
X159720814Y-78490609D01*
X159589711Y-78578210D01*
X159589707Y-78578213D01*
X158698196Y-79469724D01*
X158636873Y-79503209D01*
X158603603Y-79505471D01*
X158603603Y-79505500D01*
X158603186Y-79505500D01*
X158600804Y-79505662D01*
X158598742Y-79505500D01*
X158598731Y-79505500D01*
X158401269Y-79505500D01*
X158401264Y-79505500D01*
X158206236Y-79536389D01*
X158018441Y-79597408D01*
X157842495Y-79687058D01*
X157682753Y-79803115D01*
X157543115Y-79942753D01*
X157427058Y-80102495D01*
X157340485Y-80272403D01*
X157292510Y-80323199D01*
X157224689Y-80339994D01*
X157158554Y-80317456D01*
X157119515Y-80272403D01*
X157032944Y-80102499D01*
X157015298Y-80078211D01*
X156916884Y-79942753D01*
X156777246Y-79803115D01*
X156617504Y-79687058D01*
X156617503Y-79687057D01*
X156617501Y-79687056D01*
X156441561Y-79597409D01*
X156441558Y-79597408D01*
X156253763Y-79536389D01*
X156058736Y-79505500D01*
X156058731Y-79505500D01*
X155861269Y-79505500D01*
X155861264Y-79505500D01*
X155666236Y-79536389D01*
X155478441Y-79597408D01*
X155302495Y-79687058D01*
X155142753Y-79803115D01*
X155003115Y-79942753D01*
X154887058Y-80102495D01*
X154797408Y-80278441D01*
X154736389Y-80466236D01*
X154705500Y-80661263D01*
X154705500Y-80858736D01*
X154736389Y-81053763D01*
X154777408Y-81180005D01*
X154797409Y-81241561D01*
X154870518Y-81385043D01*
X154887058Y-81417504D01*
X155003115Y-81577246D01*
X155142753Y-81716884D01*
X155292234Y-81825486D01*
X155302499Y-81832944D01*
X155478439Y-81922591D01*
X155603637Y-81963270D01*
X155666236Y-81983610D01*
X155861264Y-82014500D01*
X155861269Y-82014500D01*
X156058736Y-82014500D01*
X156253763Y-81983610D01*
X156441561Y-81922591D01*
X156617501Y-81832944D01*
X156722955Y-81756328D01*
X156777246Y-81716884D01*
X156777248Y-81716881D01*
X156777252Y-81716879D01*
X156916879Y-81577252D01*
X156916881Y-81577248D01*
X156916884Y-81577246D01*
X157032941Y-81417505D01*
X157032942Y-81417504D01*
X157032944Y-81417501D01*
X157119517Y-81247593D01*
X157167490Y-81196800D01*
X157235311Y-81180005D01*
X157301446Y-81202542D01*
X157340482Y-81247593D01*
X157410518Y-81385043D01*
X157427058Y-81417505D01*
X157543115Y-81577246D01*
X157682753Y-81716884D01*
X157832234Y-81825486D01*
X157842499Y-81832944D01*
X158018439Y-81922591D01*
X158143637Y-81963270D01*
X158206236Y-81983610D01*
X158401264Y-82014500D01*
X158401269Y-82014500D01*
X158598736Y-82014500D01*
X158793763Y-81983610D01*
X158981561Y-81922591D01*
X159157501Y-81832944D01*
X159262955Y-81756328D01*
X159317246Y-81716884D01*
X159317248Y-81716881D01*
X159317252Y-81716879D01*
X159456879Y-81577252D01*
X159456881Y-81577248D01*
X159456884Y-81577246D01*
X159572941Y-81417505D01*
X159572942Y-81417504D01*
X159572944Y-81417501D01*
X159659517Y-81247593D01*
X159707490Y-81196800D01*
X159775311Y-81180005D01*
X159841446Y-81202542D01*
X159880482Y-81247593D01*
X159950518Y-81385043D01*
X159967058Y-81417505D01*
X160083115Y-81577246D01*
X160222753Y-81716884D01*
X160372234Y-81825486D01*
X160382499Y-81832944D01*
X160558439Y-81922591D01*
X160683637Y-81963270D01*
X160746236Y-81983610D01*
X160941264Y-82014500D01*
X160941269Y-82014500D01*
X161031060Y-82014500D01*
X161098099Y-82034185D01*
X161118741Y-82050819D01*
X171963181Y-92895259D01*
X171996666Y-92956582D01*
X171999500Y-92982940D01*
X171999500Y-94797058D01*
X171979815Y-94864097D01*
X171927011Y-94909852D01*
X171857853Y-94919796D01*
X171819205Y-94907543D01*
X171681561Y-94837409D01*
X171681558Y-94837408D01*
X171493763Y-94776389D01*
X171298736Y-94745500D01*
X171298731Y-94745500D01*
X171101269Y-94745500D01*
X171101264Y-94745500D01*
X170906236Y-94776389D01*
X170718441Y-94837408D01*
X170542495Y-94927058D01*
X170382753Y-95043115D01*
X170243115Y-95182753D01*
X170127058Y-95342495D01*
X170127056Y-95342499D01*
X170040203Y-95512954D01*
X169992230Y-95563749D01*
X169924409Y-95580544D01*
X169858274Y-95558006D01*
X169819235Y-95512953D01*
X169732520Y-95342768D01*
X169732512Y-95342755D01*
X169706542Y-95307010D01*
X169706541Y-95307009D01*
X169142962Y-95870590D01*
X169125925Y-95807007D01*
X169060099Y-95692993D01*
X168967007Y-95599901D01*
X168852993Y-95534075D01*
X168789409Y-95517037D01*
X169352989Y-94953457D01*
X169317239Y-94927483D01*
X169141373Y-94837873D01*
X168953646Y-94776876D01*
X168758697Y-94746000D01*
X168561303Y-94746000D01*
X168366353Y-94776876D01*
X168178626Y-94837873D01*
X168002762Y-94927482D01*
X168002760Y-94927483D01*
X167967010Y-94953456D01*
X167967010Y-94953457D01*
X168530591Y-95517037D01*
X168467007Y-95534075D01*
X168352993Y-95599901D01*
X168259901Y-95692993D01*
X168194075Y-95807007D01*
X168177037Y-95870590D01*
X167613457Y-95307010D01*
X167613456Y-95307010D01*
X167587483Y-95342760D01*
X167587479Y-95342767D01*
X167500763Y-95512954D01*
X167452788Y-95563749D01*
X167384967Y-95580544D01*
X167318833Y-95558006D01*
X167279798Y-95512957D01*
X167192944Y-95342499D01*
X167192942Y-95342496D01*
X167192941Y-95342494D01*
X167076884Y-95182753D01*
X166937246Y-95043115D01*
X166777504Y-94927058D01*
X166777503Y-94927057D01*
X166777501Y-94927056D01*
X166601561Y-94837409D01*
X166601558Y-94837408D01*
X166413763Y-94776389D01*
X166218736Y-94745500D01*
X166218731Y-94745500D01*
X166021269Y-94745500D01*
X166021264Y-94745500D01*
X165826236Y-94776389D01*
X165638441Y-94837408D01*
X165462495Y-94927058D01*
X165302753Y-95043115D01*
X165163115Y-95182753D01*
X165047058Y-95342495D01*
X165047056Y-95342499D01*
X164966805Y-95500000D01*
X164960485Y-95512403D01*
X164912510Y-95563199D01*
X164844689Y-95579994D01*
X164778554Y-95557456D01*
X164739515Y-95512403D01*
X164652944Y-95342499D01*
X164627159Y-95307009D01*
X164536884Y-95182753D01*
X164397246Y-95043115D01*
X164237504Y-94927058D01*
X164237503Y-94927057D01*
X164237501Y-94927056D01*
X164061561Y-94837409D01*
X164061558Y-94837408D01*
X163873763Y-94776389D01*
X163678736Y-94745500D01*
X163678731Y-94745500D01*
X163481269Y-94745500D01*
X163481264Y-94745500D01*
X163286236Y-94776389D01*
X163098441Y-94837408D01*
X162922495Y-94927058D01*
X162762753Y-95043115D01*
X162623115Y-95182753D01*
X162507058Y-95342495D01*
X162507056Y-95342499D01*
X162426805Y-95500000D01*
X162420485Y-95512403D01*
X162372510Y-95563199D01*
X162304689Y-95579994D01*
X162238554Y-95557456D01*
X162199515Y-95512403D01*
X162112944Y-95342499D01*
X162087159Y-95307009D01*
X161996884Y-95182753D01*
X161857246Y-95043115D01*
X161697504Y-94927058D01*
X161697503Y-94927057D01*
X161697501Y-94927056D01*
X161521561Y-94837409D01*
X161521558Y-94837408D01*
X161333763Y-94776389D01*
X161138736Y-94745500D01*
X161138731Y-94745500D01*
X160941269Y-94745500D01*
X160941264Y-94745500D01*
X160746236Y-94776389D01*
X160558441Y-94837408D01*
X160382495Y-94927058D01*
X160222753Y-95043115D01*
X160083115Y-95182753D01*
X159967058Y-95342495D01*
X159967056Y-95342499D01*
X159886805Y-95500000D01*
X159880485Y-95512403D01*
X159832510Y-95563199D01*
X159764689Y-95579994D01*
X159698554Y-95557456D01*
X159659515Y-95512403D01*
X159572944Y-95342499D01*
X159547159Y-95307009D01*
X159456884Y-95182753D01*
X159317246Y-95043115D01*
X159157504Y-94927058D01*
X159157503Y-94927057D01*
X159157501Y-94927056D01*
X158981561Y-94837409D01*
X158981558Y-94837408D01*
X158793763Y-94776389D01*
X158598736Y-94745500D01*
X158598731Y-94745500D01*
X158401269Y-94745500D01*
X158401264Y-94745500D01*
X158206236Y-94776389D01*
X158018441Y-94837408D01*
X157842495Y-94927058D01*
X157682753Y-95043115D01*
X157543115Y-95182753D01*
X157427058Y-95342495D01*
X157427056Y-95342499D01*
X157346805Y-95500000D01*
X157340485Y-95512403D01*
X157292510Y-95563199D01*
X157224689Y-95579994D01*
X157158554Y-95557456D01*
X157119515Y-95512403D01*
X157032944Y-95342499D01*
X157007159Y-95307009D01*
X156916884Y-95182753D01*
X156777246Y-95043115D01*
X156617504Y-94927058D01*
X156617503Y-94927057D01*
X156617501Y-94927056D01*
X156441561Y-94837409D01*
X156441558Y-94837408D01*
X156253763Y-94776389D01*
X156058736Y-94745500D01*
X156058731Y-94745500D01*
X155861269Y-94745500D01*
X155861264Y-94745500D01*
X155666236Y-94776389D01*
X155478441Y-94837408D01*
X155302495Y-94927058D01*
X155142753Y-95043115D01*
X155003115Y-95182753D01*
X154887058Y-95342495D01*
X154797408Y-95518441D01*
X154736389Y-95706236D01*
X154705500Y-95901263D01*
X154705500Y-96098736D01*
X154736389Y-96293763D01*
X154797408Y-96481558D01*
X154797409Y-96481561D01*
X154840397Y-96565928D01*
X154887058Y-96657504D01*
X155003115Y-96817246D01*
X155142753Y-96956884D01*
X155266158Y-97046541D01*
X155302499Y-97072944D01*
X155478439Y-97162591D01*
X155576541Y-97194466D01*
X155666236Y-97223610D01*
X155861264Y-97254500D01*
X155861269Y-97254500D01*
X156058736Y-97254500D01*
X156253763Y-97223610D01*
X156255268Y-97223121D01*
X156441561Y-97162591D01*
X156617501Y-97072944D01*
X156707192Y-97007779D01*
X156777246Y-96956884D01*
X156777248Y-96956881D01*
X156777252Y-96956879D01*
X156916879Y-96817252D01*
X156916881Y-96817248D01*
X156916884Y-96817246D01*
X157032941Y-96657505D01*
X157032943Y-96657502D01*
X157032944Y-96657501D01*
X157119517Y-96487593D01*
X157167490Y-96436800D01*
X157235311Y-96420005D01*
X157301446Y-96442542D01*
X157340482Y-96487593D01*
X157380397Y-96565928D01*
X157427058Y-96657505D01*
X157543115Y-96817246D01*
X157682753Y-96956884D01*
X157806158Y-97046541D01*
X157842499Y-97072944D01*
X158018439Y-97162591D01*
X158116541Y-97194466D01*
X158206236Y-97223610D01*
X158401264Y-97254500D01*
X158401269Y-97254500D01*
X158598736Y-97254500D01*
X158793763Y-97223610D01*
X158795268Y-97223121D01*
X158981561Y-97162591D01*
X159157501Y-97072944D01*
X159247192Y-97007779D01*
X159317246Y-96956884D01*
X159317248Y-96956881D01*
X159317252Y-96956879D01*
X159456879Y-96817252D01*
X159456881Y-96817248D01*
X159456884Y-96817246D01*
X159572941Y-96657505D01*
X159572943Y-96657502D01*
X159572944Y-96657501D01*
X159659517Y-96487593D01*
X159707490Y-96436800D01*
X159775311Y-96420005D01*
X159841446Y-96442542D01*
X159880482Y-96487593D01*
X159920397Y-96565928D01*
X159967058Y-96657505D01*
X160083115Y-96817246D01*
X160222753Y-96956884D01*
X160346158Y-97046541D01*
X160382499Y-97072944D01*
X160558439Y-97162591D01*
X160656541Y-97194466D01*
X160746236Y-97223610D01*
X160941264Y-97254500D01*
X160941269Y-97254500D01*
X161138736Y-97254500D01*
X161333763Y-97223610D01*
X161335268Y-97223121D01*
X161521561Y-97162591D01*
X161606436Y-97119344D01*
X161675102Y-97106448D01*
X161739843Y-97132724D01*
X161780100Y-97189830D01*
X161783093Y-97259635D01*
X161750410Y-97317510D01*
X156546764Y-102521158D01*
X154989711Y-104078211D01*
X154940141Y-104127781D01*
X154878209Y-104189712D01*
X154790609Y-104320814D01*
X154790604Y-104320824D01*
X154760097Y-104394475D01*
X154755465Y-104401406D01*
X154754369Y-104406448D01*
X154733218Y-104434702D01*
X154689711Y-104478210D01*
X154689710Y-104478211D01*
X154578213Y-104589707D01*
X154578210Y-104589711D01*
X154490609Y-104720814D01*
X154490602Y-104720827D01*
X154430264Y-104866498D01*
X154430261Y-104866510D01*
X154399500Y-105021153D01*
X154399500Y-106578846D01*
X154430261Y-106733489D01*
X154430264Y-106733501D01*
X154490602Y-106879172D01*
X154490609Y-106879185D01*
X154578210Y-107010288D01*
X154578213Y-107010292D01*
X163280240Y-115712319D01*
X163313725Y-115773642D01*
X163308741Y-115843334D01*
X163280240Y-115887681D01*
X160357267Y-118810655D01*
X157889711Y-121278211D01*
X157833960Y-121333962D01*
X157778209Y-121389712D01*
X157690609Y-121520814D01*
X157690602Y-121520827D01*
X157630264Y-121666498D01*
X157630261Y-121666510D01*
X157599500Y-121821153D01*
X157599500Y-125300898D01*
X157579815Y-125367937D01*
X157548385Y-125401216D01*
X157494807Y-125440142D01*
X157494802Y-125440146D01*
X157340142Y-125594806D01*
X157211595Y-125771739D01*
X157112298Y-125966616D01*
X157112297Y-125966619D01*
X157044714Y-126174623D01*
X157010500Y-126390638D01*
X157010500Y-126609361D01*
X157044714Y-126825376D01*
X157112297Y-127033380D01*
X157112298Y-127033383D01*
X157211595Y-127228260D01*
X157340142Y-127405193D01*
X157494806Y-127559857D01*
X157645969Y-127669682D01*
X157688635Y-127725011D01*
X157694614Y-127794625D01*
X157662009Y-127856420D01*
X157645969Y-127870318D01*
X157494806Y-127980142D01*
X157340142Y-128134806D01*
X157211595Y-128311739D01*
X157112298Y-128506616D01*
X157112297Y-128506619D01*
X157044714Y-128714623D01*
X157010500Y-128930638D01*
X157010500Y-129149361D01*
X157044714Y-129365376D01*
X157112297Y-129573380D01*
X157112298Y-129573383D01*
X157211595Y-129768260D01*
X157340142Y-129945193D01*
X157340148Y-129945199D01*
X157494801Y-130099852D01*
X157646395Y-130209991D01*
X157689060Y-130265319D01*
X157695039Y-130334932D01*
X157662434Y-130396728D01*
X157646394Y-130410626D01*
X157610360Y-130436805D01*
X157610360Y-130436807D01*
X158264057Y-131090504D01*
X158203919Y-131106619D01*
X158088080Y-131173498D01*
X157993498Y-131268080D01*
X157926619Y-131383919D01*
X157910504Y-131444057D01*
X157256807Y-130790360D01*
X157256806Y-130790360D01*
X157212023Y-130852001D01*
X157112762Y-131046808D01*
X157112761Y-131046811D01*
X157045202Y-131254740D01*
X157011000Y-131470683D01*
X157011000Y-131689316D01*
X157045202Y-131905259D01*
X157112761Y-132113188D01*
X157112762Y-132113191D01*
X157212020Y-132307993D01*
X157212021Y-132307995D01*
X157256806Y-132369638D01*
X157256807Y-132369638D01*
X157910504Y-131715941D01*
X157926619Y-131776081D01*
X157993498Y-131891920D01*
X158088080Y-131986502D01*
X158203919Y-132053381D01*
X158264057Y-132069494D01*
X157610360Y-132723190D01*
X157610360Y-132723192D01*
X157646394Y-132749372D01*
X157689060Y-132804701D01*
X157695039Y-132874315D01*
X157662434Y-132936110D01*
X157646394Y-132950008D01*
X157494807Y-133060142D01*
X157494802Y-133060146D01*
X157340142Y-133214806D01*
X157211595Y-133391739D01*
X157112298Y-133586616D01*
X157112297Y-133586619D01*
X157044714Y-133794623D01*
X157010500Y-134010638D01*
X157010500Y-134229361D01*
X157045472Y-134450162D01*
X157036518Y-134519455D01*
X157010679Y-134557241D01*
X156189711Y-135378211D01*
X156153297Y-135414625D01*
X156078209Y-135489712D01*
X155990609Y-135620814D01*
X155990602Y-135620827D01*
X155930264Y-135766498D01*
X155930261Y-135766510D01*
X155899500Y-135921153D01*
X155899500Y-147578846D01*
X155930261Y-147733489D01*
X155930264Y-147733501D01*
X155990602Y-147879172D01*
X155990609Y-147879185D01*
X156078210Y-148010288D01*
X156078213Y-148010292D01*
X157189707Y-149121786D01*
X157189711Y-149121789D01*
X157320814Y-149209390D01*
X157320818Y-149209392D01*
X157320821Y-149209394D01*
X157466503Y-149269738D01*
X157621153Y-149300499D01*
X157621157Y-149300500D01*
X157621158Y-149300500D01*
X166078844Y-149300500D01*
X166078845Y-149300499D01*
X166233497Y-149269737D01*
X166379179Y-149209394D01*
X166510289Y-149121789D01*
X168787819Y-146844257D01*
X168849142Y-146810773D01*
X168918834Y-146815757D01*
X168974767Y-146857629D01*
X168999184Y-146923093D01*
X168999500Y-146931939D01*
X168999500Y-146957667D01*
X168999501Y-146957684D01*
X169035438Y-147230655D01*
X169035439Y-147230660D01*
X169035440Y-147230666D01*
X169035441Y-147230668D01*
X169106704Y-147496630D01*
X169212075Y-147751017D01*
X169212080Y-147751028D01*
X169286065Y-147879172D01*
X169349751Y-147989479D01*
X169349753Y-147989482D01*
X169349754Y-147989483D01*
X169517370Y-148207926D01*
X169517376Y-148207933D01*
X169712066Y-148402623D01*
X169712072Y-148402628D01*
X169930521Y-148570249D01*
X170083778Y-148658732D01*
X170168971Y-148707919D01*
X170168976Y-148707921D01*
X170168979Y-148707923D01*
X170423368Y-148813295D01*
X170689334Y-148884560D01*
X170962326Y-148920500D01*
X170962333Y-148920500D01*
X171237667Y-148920500D01*
X171237674Y-148920500D01*
X171510666Y-148884560D01*
X171776632Y-148813295D01*
X172031021Y-148707923D01*
X172269479Y-148570249D01*
X172487928Y-148402628D01*
X172682628Y-148207928D01*
X172850249Y-147989479D01*
X172987923Y-147751021D01*
X173093295Y-147496632D01*
X173164560Y-147230666D01*
X173200500Y-146957674D01*
X173200500Y-146682326D01*
X173164560Y-146409334D01*
X173093295Y-146143368D01*
X172987923Y-145888979D01*
X172987921Y-145888976D01*
X172987919Y-145888971D01*
X172911151Y-145756007D01*
X172850249Y-145650521D01*
X172682628Y-145432072D01*
X172682623Y-145432066D01*
X172487933Y-145237376D01*
X172487926Y-145237370D01*
X172269483Y-145069754D01*
X172269482Y-145069753D01*
X172269479Y-145069751D01*
X172162974Y-145008260D01*
X172031028Y-144932080D01*
X172031017Y-144932075D01*
X171776630Y-144826704D01*
X171643649Y-144791072D01*
X171510666Y-144755440D01*
X171510660Y-144755439D01*
X171510655Y-144755438D01*
X171237684Y-144719501D01*
X171237679Y-144719500D01*
X171237674Y-144719500D01*
X171211939Y-144719500D01*
X171144900Y-144699815D01*
X171099145Y-144647011D01*
X171089201Y-144577853D01*
X171118226Y-144514297D01*
X171124258Y-144507819D01*
X171242717Y-144389361D01*
X171395259Y-144236819D01*
X171456582Y-144203334D01*
X171482940Y-144200500D01*
X171878844Y-144200500D01*
X171878845Y-144200499D01*
X172033497Y-144169737D01*
X172179179Y-144109394D01*
X172310289Y-144021789D01*
X173321789Y-143010289D01*
X173409394Y-142879179D01*
X173469737Y-142733497D01*
X173500500Y-142578842D01*
X173500500Y-142425316D01*
X173509939Y-142377864D01*
X173569736Y-142233499D01*
X173569735Y-142233499D01*
X173569737Y-142233497D01*
X173572879Y-142217704D01*
X173600500Y-142078843D01*
X173600500Y-141921158D01*
X173600500Y-130082939D01*
X173620185Y-130015900D01*
X173636819Y-129995258D01*
X174921786Y-128710291D01*
X174921788Y-128710289D01*
X174948884Y-128669737D01*
X175009394Y-128579178D01*
X175069737Y-128433496D01*
X175076301Y-128400500D01*
X175100500Y-128278842D01*
X175100500Y-128179765D01*
X175120185Y-128112726D01*
X175121398Y-128110874D01*
X175140272Y-128082628D01*
X175209394Y-127979179D01*
X175269738Y-127833497D01*
X175300500Y-127678842D01*
X175300500Y-127521157D01*
X175300500Y-126582940D01*
X175320185Y-126515901D01*
X175336819Y-126495259D01*
X180721786Y-121110292D01*
X180721789Y-121110289D01*
X180809394Y-120979179D01*
X180869737Y-120833497D01*
X180900500Y-120678842D01*
X180900500Y-120521158D01*
X180900500Y-120479765D01*
X180905828Y-120461619D01*
X180906166Y-120442711D01*
X180919665Y-120414495D01*
X180920185Y-120412726D01*
X180921398Y-120410874D01*
X180972398Y-120334548D01*
X181026011Y-120289743D01*
X181095336Y-120281036D01*
X181158363Y-120311191D01*
X181195082Y-120370634D01*
X181199500Y-120403439D01*
X181199500Y-150175500D01*
X181179815Y-150242539D01*
X181127011Y-150288294D01*
X181075500Y-150299500D01*
X152924500Y-150299500D01*
X152857461Y-150279815D01*
X152811706Y-150227011D01*
X152800500Y-150175500D01*
X152800500Y-118262332D01*
X153499500Y-118262332D01*
X153499500Y-118537667D01*
X153499501Y-118537684D01*
X153535438Y-118810655D01*
X153535439Y-118810660D01*
X153535440Y-118810666D01*
X153535441Y-118810668D01*
X153606704Y-119076630D01*
X153712075Y-119331017D01*
X153712080Y-119331028D01*
X153794861Y-119474407D01*
X153849751Y-119569479D01*
X153849753Y-119569482D01*
X153849754Y-119569483D01*
X154017370Y-119787926D01*
X154017376Y-119787933D01*
X154212066Y-119982623D01*
X154212072Y-119982628D01*
X154430521Y-120150249D01*
X154583778Y-120238732D01*
X154668971Y-120287919D01*
X154668976Y-120287921D01*
X154668979Y-120287923D01*
X154923368Y-120393295D01*
X155189334Y-120464560D01*
X155462326Y-120500500D01*
X155462333Y-120500500D01*
X155737667Y-120500500D01*
X155737674Y-120500500D01*
X156010666Y-120464560D01*
X156276632Y-120393295D01*
X156531021Y-120287923D01*
X156769479Y-120150249D01*
X156987928Y-119982628D01*
X157182628Y-119787928D01*
X157350249Y-119569479D01*
X157487923Y-119331021D01*
X157593295Y-119076632D01*
X157664560Y-118810666D01*
X157700500Y-118537674D01*
X157700500Y-118262326D01*
X157664560Y-117989334D01*
X157593295Y-117723368D01*
X157487923Y-117468979D01*
X157487921Y-117468976D01*
X157487919Y-117468971D01*
X157438732Y-117383778D01*
X157350249Y-117230521D01*
X157182628Y-117012072D01*
X157182623Y-117012066D01*
X156987933Y-116817376D01*
X156987926Y-116817370D01*
X156769483Y-116649754D01*
X156769482Y-116649753D01*
X156769479Y-116649751D01*
X156674407Y-116594861D01*
X156531028Y-116512080D01*
X156531017Y-116512075D01*
X156276630Y-116406704D01*
X156143649Y-116371072D01*
X156010666Y-116335440D01*
X156010660Y-116335439D01*
X156010655Y-116335438D01*
X155737684Y-116299501D01*
X155737679Y-116299500D01*
X155737674Y-116299500D01*
X155462326Y-116299500D01*
X155462320Y-116299500D01*
X155462315Y-116299501D01*
X155189344Y-116335438D01*
X155189337Y-116335439D01*
X155189334Y-116335440D01*
X155133125Y-116350500D01*
X154923369Y-116406704D01*
X154668982Y-116512075D01*
X154668971Y-116512080D01*
X154430516Y-116649754D01*
X154212073Y-116817370D01*
X154212066Y-116817376D01*
X154017376Y-117012066D01*
X154017370Y-117012073D01*
X153849754Y-117230516D01*
X153712080Y-117468971D01*
X153712075Y-117468982D01*
X153606704Y-117723369D01*
X153535441Y-117989331D01*
X153535438Y-117989344D01*
X153499501Y-118262315D01*
X153499500Y-118262332D01*
X152800500Y-118262332D01*
X152800500Y-73055778D01*
X155799500Y-73055778D01*
X155799500Y-73344221D01*
X155799501Y-73344238D01*
X155837149Y-73630206D01*
X155837150Y-73630211D01*
X155837151Y-73630217D01*
X155837152Y-73630219D01*
X155911809Y-73908844D01*
X155911814Y-73908860D01*
X156022191Y-74175336D01*
X156022199Y-74175352D01*
X156166420Y-74425148D01*
X156166431Y-74425164D01*
X156342024Y-74654002D01*
X156342030Y-74654009D01*
X156545990Y-74857969D01*
X156545996Y-74857974D01*
X156774844Y-75033575D01*
X156774851Y-75033579D01*
X157024647Y-75177800D01*
X157024663Y-75177808D01*
X157291139Y-75288185D01*
X157291145Y-75288186D01*
X157291155Y-75288191D01*
X157569783Y-75362849D01*
X157855772Y-75400500D01*
X157855779Y-75400500D01*
X158144221Y-75400500D01*
X158144228Y-75400500D01*
X158430217Y-75362849D01*
X158708845Y-75288191D01*
X158708857Y-75288185D01*
X158708860Y-75288185D01*
X158975336Y-75177808D01*
X158975339Y-75177806D01*
X158975345Y-75177804D01*
X159225156Y-75033575D01*
X159454004Y-74857974D01*
X159657974Y-74654004D01*
X159833575Y-74425156D01*
X159977804Y-74175345D01*
X160018520Y-74077048D01*
X160062360Y-74022644D01*
X160128654Y-74000579D01*
X160133081Y-74000500D01*
X164586395Y-74000500D01*
X164653434Y-74020185D01*
X164684771Y-74049014D01*
X164818751Y-74223622D01*
X164818757Y-74223629D01*
X164976370Y-74381242D01*
X164976377Y-74381248D01*
X165033610Y-74425164D01*
X165153226Y-74516948D01*
X165346274Y-74628405D01*
X165552219Y-74713710D01*
X165767537Y-74771404D01*
X165988543Y-74800500D01*
X165988550Y-74800500D01*
X166211450Y-74800500D01*
X166211457Y-74800500D01*
X166432463Y-74771404D01*
X166647781Y-74713710D01*
X166853726Y-74628405D01*
X167046774Y-74516948D01*
X167223624Y-74381247D01*
X167262318Y-74342553D01*
X167323640Y-74309067D01*
X167393332Y-74314051D01*
X167437682Y-74342553D01*
X167476371Y-74381243D01*
X167476377Y-74381248D01*
X167533610Y-74425164D01*
X167653226Y-74516948D01*
X167846274Y-74628405D01*
X168052219Y-74713710D01*
X168267537Y-74771404D01*
X168488543Y-74800500D01*
X168488550Y-74800500D01*
X168711450Y-74800500D01*
X168711457Y-74800500D01*
X168932463Y-74771404D01*
X169147781Y-74713710D01*
X169353726Y-74628405D01*
X169546774Y-74516948D01*
X169723624Y-74381247D01*
X169881247Y-74223624D01*
X170016948Y-74046774D01*
X170065604Y-73962499D01*
X170116171Y-73914284D01*
X170172991Y-73900500D01*
X173966919Y-73900500D01*
X174033958Y-73920185D01*
X174079713Y-73972989D01*
X174081480Y-73977048D01*
X174122191Y-74075336D01*
X174122199Y-74075352D01*
X174266420Y-74325148D01*
X174266431Y-74325164D01*
X174442024Y-74554002D01*
X174442030Y-74554009D01*
X174645990Y-74757969D01*
X174645997Y-74757975D01*
X174701414Y-74800498D01*
X174874844Y-74933575D01*
X174874851Y-74933579D01*
X175124647Y-75077800D01*
X175124663Y-75077808D01*
X175391139Y-75188185D01*
X175391145Y-75188186D01*
X175391155Y-75188191D01*
X175669783Y-75262849D01*
X175955772Y-75300500D01*
X175955779Y-75300500D01*
X176244221Y-75300500D01*
X176244228Y-75300500D01*
X176530217Y-75262849D01*
X176808845Y-75188191D01*
X176808857Y-75188185D01*
X176808860Y-75188185D01*
X177075336Y-75077808D01*
X177075339Y-75077806D01*
X177075345Y-75077804D01*
X177325156Y-74933575D01*
X177554004Y-74757974D01*
X177757974Y-74554004D01*
X177933575Y-74325156D01*
X178077804Y-74075345D01*
X178089639Y-74046774D01*
X178188185Y-73808860D01*
X178188185Y-73808857D01*
X178188191Y-73808845D01*
X178262849Y-73530217D01*
X178300500Y-73244228D01*
X178300500Y-72955772D01*
X178262849Y-72669783D01*
X178188191Y-72391155D01*
X178188186Y-72391145D01*
X178188185Y-72391139D01*
X178077808Y-72124663D01*
X178077800Y-72124647D01*
X177933579Y-71874851D01*
X177933575Y-71874844D01*
X177757974Y-71645996D01*
X177757969Y-71645990D01*
X177554009Y-71442030D01*
X177554002Y-71442024D01*
X177325164Y-71266431D01*
X177325162Y-71266429D01*
X177325156Y-71266425D01*
X177325151Y-71266422D01*
X177325148Y-71266420D01*
X177075352Y-71122199D01*
X177075336Y-71122191D01*
X176808860Y-71011814D01*
X176808848Y-71011810D01*
X176808845Y-71011809D01*
X176530217Y-70937151D01*
X176530211Y-70937150D01*
X176530206Y-70937149D01*
X176244238Y-70899501D01*
X176244233Y-70899500D01*
X176244228Y-70899500D01*
X175955772Y-70899500D01*
X175955766Y-70899500D01*
X175955761Y-70899501D01*
X175669793Y-70937149D01*
X175669786Y-70937150D01*
X175669783Y-70937151D01*
X175437093Y-70999500D01*
X175391155Y-71011809D01*
X175391139Y-71011814D01*
X175124663Y-71122191D01*
X175124647Y-71122199D01*
X174874851Y-71266420D01*
X174874835Y-71266431D01*
X174645997Y-71442024D01*
X174645990Y-71442030D01*
X174442030Y-71645990D01*
X174442024Y-71645997D01*
X174266431Y-71874835D01*
X174266420Y-71874851D01*
X174122199Y-72124647D01*
X174122191Y-72124663D01*
X174081480Y-72222952D01*
X174037640Y-72277356D01*
X173971346Y-72299421D01*
X173966919Y-72299500D01*
X170172991Y-72299500D01*
X170105952Y-72279815D01*
X170065604Y-72237500D01*
X170016952Y-72153233D01*
X170016948Y-72153226D01*
X169881247Y-71976376D01*
X169881242Y-71976370D01*
X169723629Y-71818757D01*
X169723622Y-71818751D01*
X169546782Y-71683058D01*
X169546780Y-71683057D01*
X169546774Y-71683052D01*
X169353726Y-71571595D01*
X169353722Y-71571593D01*
X169147790Y-71486293D01*
X169147783Y-71486291D01*
X169147781Y-71486290D01*
X168932463Y-71428596D01*
X168932457Y-71428595D01*
X168932452Y-71428594D01*
X168711466Y-71399501D01*
X168711463Y-71399500D01*
X168711457Y-71399500D01*
X168488543Y-71399500D01*
X168488537Y-71399500D01*
X168488533Y-71399501D01*
X168267547Y-71428594D01*
X168267540Y-71428595D01*
X168267537Y-71428596D01*
X168052219Y-71486290D01*
X168052209Y-71486293D01*
X167846277Y-71571593D01*
X167846273Y-71571595D01*
X167653226Y-71683052D01*
X167653217Y-71683058D01*
X167476377Y-71818751D01*
X167476370Y-71818757D01*
X167437681Y-71857447D01*
X167376358Y-71890932D01*
X167306666Y-71885948D01*
X167262319Y-71857447D01*
X167223629Y-71818757D01*
X167223622Y-71818751D01*
X167046782Y-71683058D01*
X167046780Y-71683057D01*
X167046774Y-71683052D01*
X166853726Y-71571595D01*
X166853722Y-71571593D01*
X166647790Y-71486293D01*
X166647783Y-71486291D01*
X166647781Y-71486290D01*
X166432463Y-71428596D01*
X166432457Y-71428595D01*
X166432452Y-71428594D01*
X166211466Y-71399501D01*
X166211463Y-71399500D01*
X166211457Y-71399500D01*
X165988543Y-71399500D01*
X165988537Y-71399500D01*
X165988533Y-71399501D01*
X165767547Y-71428594D01*
X165767540Y-71428595D01*
X165767537Y-71428596D01*
X165552219Y-71486290D01*
X165552209Y-71486293D01*
X165346277Y-71571593D01*
X165346273Y-71571595D01*
X165153226Y-71683052D01*
X165153217Y-71683058D01*
X164976377Y-71818751D01*
X164976370Y-71818757D01*
X164818757Y-71976370D01*
X164818751Y-71976377D01*
X164683058Y-72153217D01*
X164683052Y-72153226D01*
X164576660Y-72337501D01*
X164526092Y-72385716D01*
X164469273Y-72399500D01*
X160133081Y-72399500D01*
X160066042Y-72379815D01*
X160020287Y-72327011D01*
X160018520Y-72322952D01*
X159977808Y-72224663D01*
X159977800Y-72224647D01*
X159834460Y-71976377D01*
X159833575Y-71974844D01*
X159743493Y-71857447D01*
X159657975Y-71745997D01*
X159657969Y-71745990D01*
X159454009Y-71542030D01*
X159454002Y-71542024D01*
X159225164Y-71366431D01*
X159225162Y-71366429D01*
X159225156Y-71366425D01*
X159225151Y-71366422D01*
X159225148Y-71366420D01*
X158975352Y-71222199D01*
X158975336Y-71222191D01*
X158708860Y-71111814D01*
X158708848Y-71111810D01*
X158708845Y-71111809D01*
X158430217Y-71037151D01*
X158430211Y-71037150D01*
X158430206Y-71037149D01*
X158144238Y-70999501D01*
X158144233Y-70999500D01*
X158144228Y-70999500D01*
X157855772Y-70999500D01*
X157855766Y-70999500D01*
X157855761Y-70999501D01*
X157569793Y-71037149D01*
X157569786Y-71037150D01*
X157569783Y-71037151D01*
X157291155Y-71111809D01*
X157291139Y-71111814D01*
X157024663Y-71222191D01*
X157024647Y-71222199D01*
X156774851Y-71366420D01*
X156774835Y-71366431D01*
X156545997Y-71542024D01*
X156545990Y-71542030D01*
X156342030Y-71745990D01*
X156342024Y-71745997D01*
X156166431Y-71974835D01*
X156166420Y-71974851D01*
X156022199Y-72224647D01*
X156022191Y-72224663D01*
X155911814Y-72491139D01*
X155911809Y-72491155D01*
X155837152Y-72769780D01*
X155837149Y-72769793D01*
X155799501Y-73055761D01*
X155799500Y-73055778D01*
X152800500Y-73055778D01*
X152800500Y-67524500D01*
X152820185Y-67457461D01*
X152872989Y-67411706D01*
X152924500Y-67400500D01*
X181075500Y-67400500D01*
X181142539Y-67420185D01*
G37*
%TD.AperFunction*%
%TA.AperFunction,Conductor*%
G36*
X173484099Y-101820185D02*
G01*
X173504741Y-101836819D01*
X176463181Y-104795259D01*
X176496666Y-104856582D01*
X176499500Y-104882940D01*
X176499500Y-116219078D01*
X176479815Y-116286117D01*
X176427011Y-116331872D01*
X176357853Y-116341816D01*
X176343410Y-116338854D01*
X176330675Y-116335442D01*
X176330662Y-116335439D01*
X176057684Y-116299501D01*
X176057679Y-116299500D01*
X176057674Y-116299500D01*
X175782326Y-116299500D01*
X175782320Y-116299500D01*
X175782315Y-116299501D01*
X175509344Y-116335438D01*
X175509337Y-116335439D01*
X175509334Y-116335440D01*
X175453125Y-116350500D01*
X175243369Y-116406704D01*
X174988982Y-116512075D01*
X174988971Y-116512080D01*
X174750516Y-116649754D01*
X174532073Y-116817370D01*
X174532066Y-116817376D01*
X174337376Y-117012066D01*
X174337370Y-117012073D01*
X174169754Y-117230516D01*
X174032080Y-117468971D01*
X174032075Y-117468982D01*
X173926704Y-117723369D01*
X173855441Y-117989331D01*
X173855438Y-117989344D01*
X173819501Y-118262315D01*
X173819500Y-118262332D01*
X173819500Y-118537667D01*
X173819501Y-118537684D01*
X173855438Y-118810655D01*
X173855439Y-118810660D01*
X173855440Y-118810666D01*
X173855441Y-118810668D01*
X173926704Y-119076630D01*
X174032075Y-119331017D01*
X174032080Y-119331028D01*
X174114861Y-119474407D01*
X174169751Y-119569479D01*
X174169753Y-119569482D01*
X174169754Y-119569483D01*
X174337370Y-119787926D01*
X174337376Y-119787933D01*
X174532066Y-119982623D01*
X174532072Y-119982628D01*
X174750521Y-120150249D01*
X174903778Y-120238732D01*
X174988971Y-120287919D01*
X174988976Y-120287921D01*
X174988979Y-120287923D01*
X175243368Y-120393295D01*
X175509334Y-120464560D01*
X175782326Y-120500500D01*
X175782330Y-120500500D01*
X175784958Y-120500846D01*
X175848855Y-120529112D01*
X175887326Y-120587437D01*
X175888157Y-120657301D01*
X175856454Y-120711466D01*
X172929857Y-123638064D01*
X172868534Y-123671549D01*
X172798842Y-123666565D01*
X172773285Y-123653485D01*
X172679185Y-123590609D01*
X172679172Y-123590602D01*
X172533501Y-123530264D01*
X172533489Y-123530261D01*
X172378845Y-123499500D01*
X172378842Y-123499500D01*
X172325316Y-123499500D01*
X172277864Y-123490061D01*
X172133501Y-123430264D01*
X172133489Y-123430261D01*
X171978845Y-123399500D01*
X171978842Y-123399500D01*
X171925316Y-123399500D01*
X171877864Y-123390061D01*
X171733501Y-123330264D01*
X171733489Y-123330261D01*
X171578845Y-123299500D01*
X171578842Y-123299500D01*
X168478843Y-123299500D01*
X168321158Y-123299500D01*
X168321153Y-123299500D01*
X168166510Y-123330260D01*
X168166502Y-123330262D01*
X168020824Y-123390604D01*
X168020814Y-123390609D01*
X167889711Y-123478210D01*
X167889707Y-123478213D01*
X159975882Y-131392038D01*
X159914559Y-131425523D01*
X159844867Y-131420539D01*
X159788934Y-131378667D01*
X159765727Y-131323754D01*
X159754796Y-131254735D01*
X159687238Y-131046811D01*
X159687237Y-131046808D01*
X159587980Y-130852008D01*
X159543191Y-130790360D01*
X159543190Y-130790360D01*
X158889494Y-131444057D01*
X158873381Y-131383919D01*
X158806502Y-131268080D01*
X158711920Y-131173498D01*
X158596081Y-131106619D01*
X158535940Y-131090504D01*
X159189638Y-130436807D01*
X159189638Y-130436806D01*
X159153606Y-130410628D01*
X159110939Y-130355299D01*
X159104959Y-130285685D01*
X159137565Y-130223890D01*
X159153599Y-130209994D01*
X159305199Y-130099852D01*
X159459852Y-129945199D01*
X159459854Y-129945195D01*
X159459857Y-129945193D01*
X159516229Y-129867601D01*
X159588407Y-129768257D01*
X159687701Y-129573383D01*
X159755286Y-129365375D01*
X159772912Y-129254082D01*
X159789500Y-129149361D01*
X159789500Y-128930638D01*
X159759645Y-128742147D01*
X159755286Y-128714625D01*
X159687701Y-128506617D01*
X159687701Y-128506616D01*
X159627221Y-128387919D01*
X159588407Y-128311743D01*
X159580147Y-128300374D01*
X159459857Y-128134806D01*
X159305199Y-127980148D01*
X159303860Y-127979175D01*
X159154028Y-127870316D01*
X159111364Y-127814989D01*
X159105385Y-127745376D01*
X159137990Y-127683580D01*
X159154023Y-127669686D01*
X159305199Y-127559852D01*
X159459852Y-127405199D01*
X159459854Y-127405195D01*
X159459857Y-127405193D01*
X159516229Y-127327601D01*
X159588407Y-127228257D01*
X159687701Y-127033383D01*
X159755286Y-126825375D01*
X159772912Y-126714082D01*
X159789500Y-126609361D01*
X159789500Y-126390638D01*
X159769595Y-126264971D01*
X159755286Y-126174625D01*
X159687701Y-125966617D01*
X159687701Y-125966616D01*
X159653315Y-125899132D01*
X159588407Y-125771743D01*
X159580147Y-125760374D01*
X159459857Y-125594806D01*
X159305197Y-125440146D01*
X159305192Y-125440142D01*
X159251615Y-125401216D01*
X159208949Y-125345886D01*
X159200500Y-125300898D01*
X159200500Y-122282939D01*
X159220185Y-122215900D01*
X159236814Y-122195263D01*
X174324985Y-107107091D01*
X174386306Y-107073608D01*
X174432057Y-107072301D01*
X174540644Y-107089500D01*
X174540646Y-107089500D01*
X174759361Y-107089500D01*
X174867946Y-107072301D01*
X174975375Y-107055286D01*
X175183383Y-106987701D01*
X175378257Y-106888407D01*
X175477601Y-106816229D01*
X175555193Y-106759857D01*
X175555195Y-106759854D01*
X175555199Y-106759852D01*
X175709852Y-106605199D01*
X175709854Y-106605195D01*
X175709857Y-106605193D01*
X175766229Y-106527601D01*
X175838407Y-106428257D01*
X175937701Y-106233383D01*
X176005286Y-106025375D01*
X176025764Y-105896081D01*
X176039500Y-105809361D01*
X176039500Y-105590638D01*
X176019595Y-105464971D01*
X176005286Y-105374625D01*
X175957197Y-105226619D01*
X175937702Y-105166619D01*
X175937701Y-105166616D01*
X175863585Y-105021158D01*
X175838407Y-104971743D01*
X175793810Y-104910360D01*
X175709857Y-104794806D01*
X175555193Y-104640142D01*
X175378260Y-104511595D01*
X175378259Y-104511594D01*
X175378257Y-104511593D01*
X175312740Y-104478210D01*
X175183383Y-104412298D01*
X175183380Y-104412297D01*
X174975376Y-104344714D01*
X174759361Y-104310500D01*
X174759356Y-104310500D01*
X174540644Y-104310500D01*
X174540639Y-104310500D01*
X174324623Y-104344714D01*
X174116619Y-104412297D01*
X174116616Y-104412298D01*
X173921739Y-104511595D01*
X173744806Y-104640142D01*
X173590142Y-104794806D01*
X173480318Y-104945969D01*
X173424989Y-104988635D01*
X173355375Y-104994614D01*
X173293580Y-104962009D01*
X173279682Y-104945969D01*
X173169857Y-104794806D01*
X173015193Y-104640142D01*
X172838260Y-104511595D01*
X172838259Y-104511594D01*
X172838257Y-104511593D01*
X172772740Y-104478210D01*
X172643383Y-104412298D01*
X172643380Y-104412297D01*
X172435376Y-104344714D01*
X172219361Y-104310500D01*
X172219356Y-104310500D01*
X172000644Y-104310500D01*
X172000639Y-104310500D01*
X171784623Y-104344714D01*
X171576619Y-104412297D01*
X171576616Y-104412298D01*
X171381739Y-104511595D01*
X171204806Y-104640142D01*
X171050146Y-104794802D01*
X171050142Y-104794807D01*
X170940008Y-104946394D01*
X170884678Y-104989060D01*
X170815065Y-104995039D01*
X170753270Y-104962433D01*
X170739372Y-104946394D01*
X170713192Y-104910360D01*
X170713191Y-104910360D01*
X170059494Y-105564057D01*
X170043381Y-105503919D01*
X169976502Y-105388080D01*
X169881920Y-105293498D01*
X169766081Y-105226619D01*
X169705940Y-105210504D01*
X170359638Y-104556807D01*
X170359638Y-104556806D01*
X170297995Y-104512021D01*
X170297993Y-104512020D01*
X170103191Y-104412762D01*
X170103188Y-104412761D01*
X169930424Y-104356627D01*
X169872748Y-104317189D01*
X169845550Y-104252831D01*
X169857465Y-104183984D01*
X169881055Y-104151022D01*
X172195259Y-101836819D01*
X172256582Y-101803334D01*
X172282940Y-101800500D01*
X173417060Y-101800500D01*
X173484099Y-101820185D01*
G37*
%TD.AperFunction*%
%TA.AperFunction,Conductor*%
G36*
X169096619Y-105896081D02*
G01*
X169163498Y-106011920D01*
X169258080Y-106106502D01*
X169373919Y-106173381D01*
X169434057Y-106189494D01*
X168780360Y-106843191D01*
X168842008Y-106887980D01*
X169036808Y-106987237D01*
X169036811Y-106987238D01*
X169244740Y-107054797D01*
X169460684Y-107089000D01*
X169679316Y-107089000D01*
X169895259Y-107054797D01*
X170103188Y-106987238D01*
X170103191Y-106987237D01*
X170297995Y-106887978D01*
X170359638Y-106843191D01*
X170359639Y-106843191D01*
X169705942Y-106189495D01*
X169766081Y-106173381D01*
X169881920Y-106106502D01*
X169976502Y-106011920D01*
X170043381Y-105896081D01*
X170059494Y-105835942D01*
X170713191Y-106489639D01*
X170713191Y-106489638D01*
X170739372Y-106453605D01*
X170794702Y-106410939D01*
X170864315Y-106404960D01*
X170926110Y-106437565D01*
X170940008Y-106453605D01*
X171050142Y-106605192D01*
X171050146Y-106605197D01*
X171204806Y-106759857D01*
X171319508Y-106843191D01*
X171381743Y-106888407D01*
X171509132Y-106953315D01*
X171576616Y-106987701D01*
X171576619Y-106987702D01*
X171784624Y-107055286D01*
X171827419Y-107062064D01*
X171890554Y-107091993D01*
X171927486Y-107151304D01*
X171926488Y-107221167D01*
X171895703Y-107272218D01*
X164587681Y-114580241D01*
X164526358Y-114613726D01*
X164456666Y-114608742D01*
X164412319Y-114580241D01*
X157101561Y-107269483D01*
X157068076Y-107208160D01*
X157073060Y-107138468D01*
X157114932Y-107082535D01*
X157169843Y-107059329D01*
X157195375Y-107055286D01*
X157403383Y-106987701D01*
X157598257Y-106888407D01*
X157697601Y-106816229D01*
X157775193Y-106759857D01*
X157775195Y-106759854D01*
X157775199Y-106759852D01*
X157929852Y-106605199D01*
X158039683Y-106454028D01*
X158095011Y-106411364D01*
X158164624Y-106405385D01*
X158226420Y-106437990D01*
X158240313Y-106454023D01*
X158330999Y-106578842D01*
X158350148Y-106605199D01*
X158504806Y-106759857D01*
X158619508Y-106843191D01*
X158681743Y-106888407D01*
X158809132Y-106953315D01*
X158876616Y-106987701D01*
X158876619Y-106987702D01*
X158946146Y-107010292D01*
X159084625Y-107055286D01*
X159184672Y-107071132D01*
X159300639Y-107089500D01*
X159300644Y-107089500D01*
X159519361Y-107089500D01*
X159627946Y-107072301D01*
X159735375Y-107055286D01*
X159943383Y-106987701D01*
X160138257Y-106888407D01*
X160237601Y-106816229D01*
X160315193Y-106759857D01*
X160315195Y-106759854D01*
X160315199Y-106759852D01*
X160469852Y-106605199D01*
X160579683Y-106454028D01*
X160635011Y-106411364D01*
X160704624Y-106405385D01*
X160766420Y-106437990D01*
X160780313Y-106454023D01*
X160870999Y-106578842D01*
X160890148Y-106605199D01*
X161044806Y-106759857D01*
X161159508Y-106843191D01*
X161221743Y-106888407D01*
X161349132Y-106953315D01*
X161416616Y-106987701D01*
X161416619Y-106987702D01*
X161486146Y-107010292D01*
X161624625Y-107055286D01*
X161724672Y-107071132D01*
X161840639Y-107089500D01*
X161840644Y-107089500D01*
X162059361Y-107089500D01*
X162167946Y-107072301D01*
X162275375Y-107055286D01*
X162483383Y-106987701D01*
X162678257Y-106888407D01*
X162777601Y-106816229D01*
X162855193Y-106759857D01*
X162855195Y-106759854D01*
X162855199Y-106759852D01*
X163009852Y-106605199D01*
X163119683Y-106454028D01*
X163175011Y-106411364D01*
X163244624Y-106405385D01*
X163306420Y-106437990D01*
X163320313Y-106454023D01*
X163410999Y-106578842D01*
X163430148Y-106605199D01*
X163584806Y-106759857D01*
X163699508Y-106843191D01*
X163761743Y-106888407D01*
X163889132Y-106953315D01*
X163956616Y-106987701D01*
X163956619Y-106987702D01*
X164026146Y-107010292D01*
X164164625Y-107055286D01*
X164264672Y-107071132D01*
X164380639Y-107089500D01*
X164380644Y-107089500D01*
X164599361Y-107089500D01*
X164707946Y-107072301D01*
X164815375Y-107055286D01*
X165023383Y-106987701D01*
X165218257Y-106888407D01*
X165317601Y-106816229D01*
X165395193Y-106759857D01*
X165395195Y-106759854D01*
X165395199Y-106759852D01*
X165549852Y-106605199D01*
X165659683Y-106454028D01*
X165715011Y-106411364D01*
X165784624Y-106405385D01*
X165846420Y-106437990D01*
X165860313Y-106454023D01*
X165950999Y-106578842D01*
X165970148Y-106605199D01*
X166124806Y-106759857D01*
X166239508Y-106843191D01*
X166301743Y-106888407D01*
X166429132Y-106953315D01*
X166496616Y-106987701D01*
X166496619Y-106987702D01*
X166566146Y-107010292D01*
X166704625Y-107055286D01*
X166804672Y-107071132D01*
X166920639Y-107089500D01*
X166920644Y-107089500D01*
X167139361Y-107089500D01*
X167247946Y-107072301D01*
X167355375Y-107055286D01*
X167563383Y-106987701D01*
X167758257Y-106888407D01*
X167857601Y-106816229D01*
X167935193Y-106759857D01*
X167935195Y-106759854D01*
X167935199Y-106759852D01*
X168089852Y-106605199D01*
X168199991Y-106453603D01*
X168255320Y-106410939D01*
X168324933Y-106404960D01*
X168386729Y-106437565D01*
X168400628Y-106453606D01*
X168426806Y-106489638D01*
X168426807Y-106489638D01*
X169080504Y-105835940D01*
X169096619Y-105896081D01*
G37*
%TD.AperFunction*%
%TA.AperFunction,Conductor*%
G36*
X168194075Y-96192993D02*
G01*
X168259901Y-96307007D01*
X168352993Y-96400099D01*
X168467007Y-96465925D01*
X168530590Y-96482962D01*
X167967009Y-97046541D01*
X167967010Y-97046542D01*
X168002755Y-97072512D01*
X168002768Y-97072520D01*
X168178626Y-97162126D01*
X168366353Y-97223123D01*
X168561303Y-97254000D01*
X168758697Y-97254000D01*
X168953647Y-97223122D01*
X168953653Y-97223121D01*
X169041842Y-97194466D01*
X169111683Y-97192469D01*
X169171517Y-97228549D01*
X169202346Y-97291250D01*
X169194382Y-97360664D01*
X169167843Y-97400077D01*
X162275015Y-104292905D01*
X162213692Y-104326390D01*
X162167936Y-104327697D01*
X162059361Y-104310500D01*
X162059356Y-104310500D01*
X161840644Y-104310500D01*
X161840639Y-104310500D01*
X161624623Y-104344714D01*
X161416619Y-104412297D01*
X161416616Y-104412298D01*
X161221739Y-104511595D01*
X161044806Y-104640142D01*
X160890142Y-104794806D01*
X160780318Y-104945969D01*
X160724989Y-104988635D01*
X160655375Y-104994614D01*
X160593580Y-104962009D01*
X160579682Y-104945969D01*
X160469857Y-104794806D01*
X160315193Y-104640142D01*
X160138260Y-104511595D01*
X160138259Y-104511594D01*
X160138257Y-104511593D01*
X160072740Y-104478210D01*
X159943383Y-104412298D01*
X159943380Y-104412297D01*
X159735376Y-104344714D01*
X159519361Y-104310500D01*
X159519356Y-104310500D01*
X159300644Y-104310500D01*
X159300639Y-104310500D01*
X159084623Y-104344714D01*
X158876619Y-104412297D01*
X158876616Y-104412298D01*
X158681739Y-104511595D01*
X158504806Y-104640142D01*
X158350142Y-104794806D01*
X158240318Y-104945969D01*
X158184989Y-104988635D01*
X158115375Y-104994614D01*
X158053580Y-104962009D01*
X158039682Y-104945969D01*
X157929857Y-104794806D01*
X157775193Y-104640142D01*
X157598260Y-104511595D01*
X157598259Y-104511594D01*
X157598257Y-104511593D01*
X157532740Y-104478210D01*
X157403383Y-104412298D01*
X157403380Y-104412297D01*
X157230821Y-104356230D01*
X157173145Y-104316793D01*
X157145947Y-104252434D01*
X157157862Y-104183588D01*
X157181455Y-104150621D01*
X162992843Y-98339234D01*
X163010384Y-98329656D01*
X163025017Y-98316033D01*
X163040425Y-98313252D01*
X163054164Y-98305751D01*
X163074101Y-98307176D01*
X163093776Y-98303627D01*
X163120754Y-98310513D01*
X163123856Y-98310735D01*
X163127934Y-98312340D01*
X163223831Y-98352061D01*
X163223832Y-98352062D01*
X163223833Y-98352062D01*
X163266502Y-98369737D01*
X163421152Y-98400499D01*
X163421155Y-98400500D01*
X163421157Y-98400500D01*
X164578844Y-98400500D01*
X164578845Y-98400499D01*
X164733497Y-98369737D01*
X164875942Y-98310735D01*
X164879172Y-98309397D01*
X164879172Y-98309396D01*
X164879179Y-98309394D01*
X165010289Y-98221789D01*
X165941258Y-97290818D01*
X166002581Y-97257334D01*
X166028939Y-97254500D01*
X166218736Y-97254500D01*
X166413763Y-97223610D01*
X166415268Y-97223121D01*
X166601561Y-97162591D01*
X166777501Y-97072944D01*
X166867192Y-97007779D01*
X166937246Y-96956884D01*
X166937248Y-96956881D01*
X166937252Y-96956879D01*
X167076879Y-96817252D01*
X167076881Y-96817248D01*
X167076884Y-96817246D01*
X167192943Y-96657502D01*
X167194044Y-96655342D01*
X167279797Y-96487043D01*
X167327768Y-96436250D01*
X167395589Y-96419455D01*
X167461724Y-96441992D01*
X167500763Y-96487045D01*
X167587481Y-96657236D01*
X167613457Y-96692988D01*
X167613457Y-96692989D01*
X168177037Y-96129409D01*
X168194075Y-96192993D01*
G37*
%TD.AperFunction*%
%TD*%
M02*
