%TF.GenerationSoftware,KiCad,Pcbnew,10.0.4*%
%TF.CreationDate,2026-08-06T19:29:43+02:00*%
%TF.ProjectId,onboard-systems,6f6e626f-6172-4642-9d73-797374656d73,rev?*%
%TF.SameCoordinates,Original*%
%TF.FileFunction,Copper,L1,Top*%
%TF.FilePolarity,Positive*%
%FSLAX46Y46*%
G04 Gerber Fmt 4.6, Leading zero omitted, Abs format (unit mm)*
G04 Created by KiCad (PCBNEW 10.0.4) date 2026-08-06 19:29:43*
%MOMM*%
%LPD*%
G01*
G04 APERTURE LIST*
%TA.AperFunction,SMDPad,CuDef*%
%ADD10R,1.800000X1.800000*%
%TD*%
%TA.AperFunction,SMDPad,CuDef*%
%ADD11C,1.800000*%
%TD*%
%TA.AperFunction,ComponentPad*%
%ADD12R,1.508000X1.508000*%
%TD*%
%TA.AperFunction,ComponentPad*%
%ADD13C,1.508000*%
%TD*%
%TA.AperFunction,ComponentPad*%
%ADD14C,1.778000*%
%TD*%
%TA.AperFunction,ComponentPad*%
%ADD15C,3.200000*%
%TD*%
%TA.AperFunction,Conductor*%
%ADD16C,0.800000*%
%TD*%
%TA.AperFunction,Conductor*%
%ADD17C,0.799800*%
%TD*%
G04 APERTURE END LIST*
D10*
%TO.P,R1,1*%
%TO.N,Net-(U1-D5{slash}GPIO6)*%
X166019000Y-107000000D03*
D11*
%TO.P,R1,2*%
%TO.N,SDA_J1_OUT*%
X166019000Y-126000000D03*
%TD*%
D12*
%TO.P,U1,1,D0/GPIO1_1*%
%TO.N,unconnected-(U1-D0{slash}GPIO1-Pad1)*%
X161849048Y-80760000D03*
D13*
%TO.P,U1,2,D1/GPIO2_2*%
%TO.N,unconnected-(U1-D1{slash}GPIO2-Pad2)*%
X164389048Y-80760000D03*
%TO.P,U1,3,D2/GPIO3_3*%
%TO.N,unconnected-(U1-D2{slash}GPIO3-Pad3)*%
X166929048Y-80760000D03*
%TO.P,U1,4,D3/GPIO4_4*%
%TO.N,unconnected-(U1-D3{slash}GPIO4-Pad4)*%
X169469048Y-80760000D03*
%TO.P,U1,5,D4/GPIO5_5*%
%TO.N,Net-(U1-D4{slash}GPIO5)*%
X172009048Y-80760000D03*
%TO.P,U1,6,D5/GPIO6_6*%
%TO.N,Net-(U1-D5{slash}GPIO6)*%
X174549048Y-80760000D03*
%TO.P,U1,7,D6/GPIO43_7*%
%TO.N,unconnected-(U1-D6{slash}GPIO43-Pad7)*%
X177089048Y-80760000D03*
%TO.P,U1,8,D7/GPIO44_8*%
%TO.N,unconnected-(U1-D7{slash}GPIO44-Pad8)*%
X161849048Y-96000000D03*
%TO.P,U1,9,D8/GPIO7_9*%
%TO.N,unconnected-(U1-D8{slash}GPIO7-Pad9)*%
X164389048Y-96000000D03*
%TO.P,U1,10,D9/GPIO8_10*%
%TO.N,unconnected-(U1-D9{slash}GPIO8-Pad10)*%
X166929048Y-96000000D03*
%TO.P,U1,11,D10/GPIO9_11*%
%TO.N,unconnected-(U1-D10{slash}GPIO9-Pad11)*%
X169469048Y-96000000D03*
%TO.P,U1,12,3V3_12*%
%TO.N,Net-(U1-3V3)*%
X172009048Y-96000000D03*
%TO.P,U1,13,GND_13*%
%TO.N,GND*%
X174549048Y-96000000D03*
%TO.P,U1,14,5V_14*%
%TO.N,unconnected-(U1-5V-Pad14)*%
X177089048Y-96000000D03*
%TD*%
D14*
%TO.P,U3,1,VIN_1*%
%TO.N,Net-(U1-3V3)*%
X174649048Y-126500000D03*
%TO.P,U3,2,3Vo_2*%
%TO.N,unconnected-(U3-3Vo-Pad2)*%
X174649048Y-129040000D03*
%TO.P,U3,3,GND_3*%
%TO.N,GND*%
X174649048Y-131580000D03*
%TO.P,U3,4,SCL_4*%
%TO.N,SDA_J1_OUT*%
X174649048Y-134120000D03*
%TO.P,U3,5,SDA_5*%
%TO.N,Net-(U1-D4{slash}GPIO5)*%
X174649048Y-136660000D03*
%TO.P,U3,6,DO_6*%
%TO.N,unconnected-(U3-DO-Pad6)*%
X174649048Y-139200000D03*
%TO.P,U3,7,CS_7*%
%TO.N,unconnected-(U3-CS-Pad7)*%
X174649048Y-141740000D03*
%TO.P,U3,8,INT1_8*%
%TO.N,unconnected-(U3-INT1-Pad8)*%
X174649048Y-144280000D03*
%TO.P,U3,9,INT2_9*%
%TO.N,unconnected-(U3-INT2-Pad9)*%
X174649048Y-146820000D03*
%TO.P,U3,10,SCX_10*%
%TO.N,unconnected-(U3-SCX-Pad10)*%
X161949048Y-131580000D03*
%TO.P,U3,11,SDX_11*%
%TO.N,unconnected-(U3-SDX-Pad11)*%
X161949048Y-134120000D03*
%TO.P,U3,12,CS_AUX_12*%
%TO.N,unconnected-(U3-CS_AUX-Pad12)*%
X161949048Y-136660000D03*
%TO.P,U3,13,DO_AUX_13*%
%TO.N,unconnected-(U3-DO_AUX-Pad13)*%
X161949048Y-139200000D03*
%TO.P,U3,14,GND2_14*%
%TO.N,GND*%
X161949048Y-141740000D03*
D15*
%TO.P,U3,MH1*%
%TO.N,N/C*%
X161949048Y-126500000D03*
%TO.P,U3,MH2*%
X161949048Y-146820000D03*
%TD*%
D14*
%TO.P,U2,1,VIN_1*%
%TO.N,Net-(U1-3V3)*%
X158399048Y-105700000D03*
%TO.P,U2,2,3Vo_2*%
%TO.N,unconnected-(U2-3Vo-Pad2)*%
X160939048Y-105700000D03*
%TO.P,U2,3,GND_3*%
%TO.N,GND*%
X163479048Y-105700000D03*
%TO.P,U2,4,SCL_4*%
%TO.N,Net-(U1-D5{slash}GPIO6)*%
X166019048Y-105700000D03*
%TO.P,U2,5,SDO_5*%
%TO.N,unconnected-(U2-SDO-Pad5)*%
X168559048Y-105700000D03*
%TO.P,U2,6,SDA_6*%
%TO.N,Net-(U1-D4{slash}GPIO5)*%
X171099048Y-105700000D03*
%TO.P,U2,7,CS_7*%
%TO.N,unconnected-(U2-CS-Pad7)*%
X173639048Y-105700000D03*
%TO.P,U2,8,INT_8*%
%TO.N,unconnected-(U2-INT-Pad8)*%
X176179048Y-105700000D03*
D15*
%TO.P,U2,MH1*%
%TO.N,N/C*%
X157129048Y-118400000D03*
%TO.P,U2,MH2*%
X177449048Y-118400000D03*
%TD*%
%TO.N,Net-(U1-D5{slash}GPIO6)*%
D16*
X159400000Y-99100000D02*
X166000000Y-105700000D01*
X160800000Y-79300000D02*
X160400000Y-79700000D01*
X172600000Y-79300000D02*
X160800000Y-79300000D01*
X160400000Y-79700000D02*
X160400000Y-90900000D01*
X174100000Y-80800000D02*
X172600000Y-79300000D01*
X160400000Y-90900000D02*
X159400000Y-91900000D01*
X159400000Y-91900000D02*
X159400000Y-99100000D01*
X174500000Y-80800000D02*
X174100000Y-80800000D01*
%TO.N,SDA_J1_OUT*%
X166500000Y-126000000D02*
X166000000Y-126000000D01*
X174600000Y-134100000D02*
X166500000Y-126000000D01*
%TO.N,Net-(U1-D4{slash}GPIO5)*%
X160500000Y-96700000D02*
X160500000Y-96400000D01*
X171100000Y-105700000D02*
X174600000Y-109200000D01*
X164600000Y-126800000D02*
X174500000Y-136700000D01*
X164500000Y-125600000D02*
X164400000Y-125700000D01*
X160400000Y-96300000D02*
X160400000Y-92400000D01*
X160400000Y-92400000D02*
X172000000Y-80800000D01*
X161300000Y-97500000D02*
X160500000Y-96700000D01*
X164400000Y-126500000D02*
X164600000Y-126700000D01*
X160500000Y-96400000D02*
X160400000Y-96300000D01*
X164400000Y-125700000D02*
X164400000Y-126500000D01*
X171100000Y-105700000D02*
X162900000Y-97500000D01*
X164600000Y-126700000D02*
X164600000Y-126800000D01*
X164500000Y-125300000D02*
X164500000Y-125600000D01*
X162900000Y-97500000D02*
X161300000Y-97500000D01*
X174600000Y-109200000D02*
X174600000Y-115200000D01*
X174600000Y-115200000D02*
X164500000Y-125300000D01*
%TO.N,Net-(U1-3V3)*%
X174600000Y-101900000D02*
X177600000Y-104900000D01*
X176300000Y-116400000D02*
X176200000Y-116500000D01*
X177700000Y-105200000D02*
X177700000Y-105400000D01*
X160400000Y-78300000D02*
X160200000Y-78500000D01*
X178500000Y-80100000D02*
X176700000Y-78300000D01*
X174600000Y-98600000D02*
X174600000Y-101900000D01*
X176700000Y-116200000D02*
X176600000Y-116300000D01*
X177600000Y-105100000D02*
X177700000Y-105200000D01*
X178500000Y-81400000D02*
X178500000Y-80100000D01*
X172000000Y-96000000D02*
X172000000Y-87900000D01*
X176100000Y-116500000D02*
X174600000Y-118000000D01*
X160100000Y-78500000D02*
X158400000Y-80200000D01*
X176700000Y-78300000D02*
X160400000Y-78300000D01*
X177800000Y-105500000D02*
X177800000Y-115900000D01*
X174600000Y-118000000D02*
X174600000Y-126500000D01*
X160200000Y-78500000D02*
X160100000Y-78500000D01*
D17*
X158400000Y-80200000D02*
X158400000Y-105700000D01*
D16*
X176200000Y-116500000D02*
X176100000Y-116500000D01*
X176900000Y-116200000D02*
X176700000Y-116200000D01*
X177700000Y-105400000D02*
X177800000Y-105500000D01*
X172000000Y-96000000D02*
X174600000Y-98600000D01*
X177000000Y-116100000D02*
X176900000Y-116200000D01*
X177600000Y-104900000D02*
X177600000Y-105100000D01*
X177800000Y-115900000D02*
X177600000Y-116100000D01*
X176400000Y-116400000D02*
X176300000Y-116400000D01*
X177600000Y-116100000D02*
X177000000Y-116100000D01*
X176600000Y-116300000D02*
X176500000Y-116300000D01*
X176500000Y-116300000D02*
X176400000Y-116400000D01*
X172000000Y-87900000D02*
X178500000Y-81400000D01*
%TD*%
%TA.AperFunction,Conductor*%
%TO.N,GND*%
G36*
X173705703Y-117470310D02*
G01*
X173761636Y-117512182D01*
X173786053Y-117577646D01*
X173776930Y-117633944D01*
X173734106Y-117737329D01*
X173734103Y-117737341D01*
X173699500Y-117911303D01*
X173699500Y-125433135D01*
X173679815Y-125500174D01*
X173663181Y-125520816D01*
X173589194Y-125594802D01*
X173589190Y-125594806D01*
X173460643Y-125771739D01*
X173361346Y-125966616D01*
X173361345Y-125966619D01*
X173293762Y-126174623D01*
X173259548Y-126390638D01*
X173259548Y-126609361D01*
X173293762Y-126825376D01*
X173361345Y-127033380D01*
X173361346Y-127033383D01*
X173460643Y-127228260D01*
X173589190Y-127405193D01*
X173743854Y-127559857D01*
X173895017Y-127669682D01*
X173937683Y-127725011D01*
X173943662Y-127794625D01*
X173911057Y-127856420D01*
X173895017Y-127870318D01*
X173743854Y-127980142D01*
X173589190Y-128134806D01*
X173460643Y-128311739D01*
X173361346Y-128506616D01*
X173361345Y-128506619D01*
X173293762Y-128714623D01*
X173259548Y-128930638D01*
X173259548Y-129149361D01*
X173293762Y-129365376D01*
X173361345Y-129573380D01*
X173361346Y-129573383D01*
X173460643Y-129768260D01*
X173589190Y-129945193D01*
X173589196Y-129945199D01*
X173743849Y-130099852D01*
X173895443Y-130209991D01*
X173938108Y-130265319D01*
X173944087Y-130334932D01*
X173911482Y-130396728D01*
X173895442Y-130410626D01*
X173859408Y-130436805D01*
X173859408Y-130436807D01*
X174513105Y-131090504D01*
X174452967Y-131106619D01*
X174337128Y-131173498D01*
X174242546Y-131268080D01*
X174175667Y-131383919D01*
X174159552Y-131444058D01*
X173505855Y-130790360D01*
X173505854Y-130790360D01*
X173461071Y-130852001D01*
X173361810Y-131046808D01*
X173361809Y-131046811D01*
X173292744Y-131259376D01*
X173291553Y-131258989D01*
X173259629Y-131314560D01*
X173197596Y-131346711D01*
X173128028Y-131340220D01*
X173086184Y-131312684D01*
X167376930Y-125603430D01*
X167346681Y-125554068D01*
X167316895Y-125462394D01*
X167216815Y-125265978D01*
X167200260Y-125243192D01*
X167087247Y-125087641D01*
X167087243Y-125087636D01*
X166931363Y-124931756D01*
X166931358Y-124931752D01*
X166753026Y-124802187D01*
X166701284Y-124775823D01*
X166585975Y-124717069D01*
X166535182Y-124669097D01*
X166518387Y-124601276D01*
X166540924Y-124535142D01*
X166554586Y-124518912D01*
X173574689Y-117498810D01*
X173636011Y-117465326D01*
X173705703Y-117470310D01*
G37*
%TD.AperFunction*%
%TA.AperFunction,Conductor*%
G36*
X159505603Y-100479548D02*
G01*
X159512081Y-100485580D01*
X163175179Y-104148678D01*
X163208664Y-104210001D01*
X163203680Y-104279693D01*
X163161808Y-104335626D01*
X163125816Y-104354290D01*
X162945859Y-104412761D01*
X162945856Y-104412762D01*
X162751049Y-104512023D01*
X162689408Y-104556806D01*
X162689408Y-104556807D01*
X163343106Y-105210504D01*
X163282967Y-105226619D01*
X163167128Y-105293498D01*
X163072546Y-105388080D01*
X163005667Y-105503919D01*
X162989552Y-105564057D01*
X162335855Y-104910360D01*
X162335853Y-104910360D01*
X162309674Y-104946394D01*
X162254345Y-104989060D01*
X162184731Y-104995039D01*
X162122936Y-104962434D01*
X162109043Y-104946401D01*
X161998900Y-104794801D01*
X161844247Y-104640148D01*
X161844241Y-104640142D01*
X161667308Y-104511595D01*
X161667307Y-104511594D01*
X161667305Y-104511593D01*
X161603501Y-104479083D01*
X161472431Y-104412298D01*
X161472428Y-104412297D01*
X161264424Y-104344714D01*
X161048409Y-104310500D01*
X161048404Y-104310500D01*
X160829692Y-104310500D01*
X160829687Y-104310500D01*
X160613671Y-104344714D01*
X160405667Y-104412297D01*
X160405664Y-104412298D01*
X160210787Y-104511595D01*
X160033854Y-104640142D01*
X159879190Y-104794806D01*
X159769366Y-104945969D01*
X159714037Y-104988635D01*
X159644423Y-104994614D01*
X159582628Y-104962009D01*
X159568730Y-104945969D01*
X159458905Y-104794806D01*
X159336719Y-104672620D01*
X159303234Y-104611297D01*
X159300400Y-104584939D01*
X159300400Y-100573261D01*
X159320085Y-100506222D01*
X159372889Y-100460467D01*
X159442047Y-100450523D01*
X159505603Y-100479548D01*
G37*
%TD.AperFunction*%
%TA.AperFunction,Conductor*%
G36*
X181142539Y-75420185D02*
G01*
X181188294Y-75472989D01*
X181199500Y-75524500D01*
X181199500Y-150175500D01*
X181179815Y-150242539D01*
X181127011Y-150288294D01*
X181075500Y-150299500D01*
X152924500Y-150299500D01*
X152857461Y-150279815D01*
X152811706Y-150227011D01*
X152800500Y-150175500D01*
X152800500Y-146682332D01*
X159848548Y-146682332D01*
X159848548Y-146957667D01*
X159848549Y-146957684D01*
X159884486Y-147230655D01*
X159884487Y-147230660D01*
X159884488Y-147230666D01*
X159884489Y-147230668D01*
X159955752Y-147496630D01*
X160061123Y-147751017D01*
X160061128Y-147751028D01*
X160135506Y-147879852D01*
X160198799Y-147989479D01*
X160198801Y-147989482D01*
X160198802Y-147989483D01*
X160366418Y-148207926D01*
X160366424Y-148207933D01*
X160561114Y-148402623D01*
X160561120Y-148402628D01*
X160779569Y-148570249D01*
X160932826Y-148658732D01*
X161018019Y-148707919D01*
X161018024Y-148707921D01*
X161018027Y-148707923D01*
X161272416Y-148813295D01*
X161538382Y-148884560D01*
X161811374Y-148920500D01*
X161811381Y-148920500D01*
X162086715Y-148920500D01*
X162086722Y-148920500D01*
X162359714Y-148884560D01*
X162625680Y-148813295D01*
X162880069Y-148707923D01*
X163118527Y-148570249D01*
X163336976Y-148402628D01*
X163531676Y-148207928D01*
X163699297Y-147989479D01*
X163836971Y-147751021D01*
X163942343Y-147496632D01*
X164013608Y-147230666D01*
X164049548Y-146957674D01*
X164049548Y-146682326D01*
X164013608Y-146409334D01*
X163942343Y-146143368D01*
X163836971Y-145888979D01*
X163836969Y-145888976D01*
X163836967Y-145888971D01*
X163762590Y-145760148D01*
X163699297Y-145650521D01*
X163531676Y-145432072D01*
X163531671Y-145432066D01*
X163336981Y-145237376D01*
X163336974Y-145237370D01*
X163118531Y-145069754D01*
X163118530Y-145069753D01*
X163118527Y-145069751D01*
X163012022Y-145008260D01*
X162880076Y-144932080D01*
X162880065Y-144932075D01*
X162625678Y-144826704D01*
X162492697Y-144791072D01*
X162359714Y-144755440D01*
X162359708Y-144755439D01*
X162359703Y-144755438D01*
X162086732Y-144719501D01*
X162086727Y-144719500D01*
X162086722Y-144719500D01*
X161811374Y-144719500D01*
X161811368Y-144719500D01*
X161811363Y-144719501D01*
X161538392Y-144755438D01*
X161538385Y-144755439D01*
X161538382Y-144755440D01*
X161482173Y-144770500D01*
X161272417Y-144826704D01*
X161018030Y-144932075D01*
X161018019Y-144932080D01*
X160779564Y-145069754D01*
X160561121Y-145237370D01*
X160561114Y-145237376D01*
X160366424Y-145432066D01*
X160366418Y-145432073D01*
X160198802Y-145650516D01*
X160061128Y-145888971D01*
X160061123Y-145888982D01*
X159955752Y-146143369D01*
X159884489Y-146409331D01*
X159884486Y-146409344D01*
X159848549Y-146682315D01*
X159848548Y-146682332D01*
X152800500Y-146682332D01*
X152800500Y-131470638D01*
X160559548Y-131470638D01*
X160559548Y-131689361D01*
X160593762Y-131905376D01*
X160661345Y-132113380D01*
X160661346Y-132113383D01*
X160760643Y-132308260D01*
X160889190Y-132485193D01*
X161043854Y-132639857D01*
X161195017Y-132749682D01*
X161237683Y-132805011D01*
X161243662Y-132874625D01*
X161211057Y-132936420D01*
X161195017Y-132950318D01*
X161043854Y-133060142D01*
X160889190Y-133214806D01*
X160760643Y-133391739D01*
X160661346Y-133586616D01*
X160661345Y-133586619D01*
X160593762Y-133794623D01*
X160559548Y-134010638D01*
X160559548Y-134229361D01*
X160593762Y-134445376D01*
X160661345Y-134653380D01*
X160661346Y-134653383D01*
X160760643Y-134848260D01*
X160889190Y-135025193D01*
X161043854Y-135179857D01*
X161195017Y-135289682D01*
X161237683Y-135345011D01*
X161243662Y-135414625D01*
X161211057Y-135476420D01*
X161195017Y-135490318D01*
X161043854Y-135600142D01*
X160889190Y-135754806D01*
X160760643Y-135931739D01*
X160661346Y-136126616D01*
X160661345Y-136126619D01*
X160593762Y-136334623D01*
X160559548Y-136550638D01*
X160559548Y-136769361D01*
X160593762Y-136985376D01*
X160661345Y-137193380D01*
X160661346Y-137193383D01*
X160760643Y-137388260D01*
X160889190Y-137565193D01*
X161043854Y-137719857D01*
X161195017Y-137829682D01*
X161237683Y-137885011D01*
X161243662Y-137954625D01*
X161211057Y-138016420D01*
X161195017Y-138030318D01*
X161043854Y-138140142D01*
X160889190Y-138294806D01*
X160760643Y-138471739D01*
X160661346Y-138666616D01*
X160661345Y-138666619D01*
X160593762Y-138874623D01*
X160559548Y-139090638D01*
X160559548Y-139309361D01*
X160593762Y-139525376D01*
X160661345Y-139733380D01*
X160661346Y-139733383D01*
X160760643Y-139928260D01*
X160889190Y-140105193D01*
X160889196Y-140105199D01*
X161043849Y-140259852D01*
X161195443Y-140369991D01*
X161238108Y-140425319D01*
X161244087Y-140494932D01*
X161211482Y-140556728D01*
X161195442Y-140570626D01*
X161159408Y-140596805D01*
X161159408Y-140596807D01*
X161813105Y-141250504D01*
X161752967Y-141266619D01*
X161637128Y-141333498D01*
X161542546Y-141428080D01*
X161475667Y-141543919D01*
X161459552Y-141604057D01*
X160805855Y-140950360D01*
X160805854Y-140950360D01*
X160761071Y-141012001D01*
X160661810Y-141206808D01*
X160661809Y-141206811D01*
X160594250Y-141414740D01*
X160560048Y-141630683D01*
X160560048Y-141849316D01*
X160594250Y-142065259D01*
X160661809Y-142273188D01*
X160661810Y-142273191D01*
X160761068Y-142467993D01*
X160761069Y-142467995D01*
X160805854Y-142529638D01*
X160805855Y-142529638D01*
X161459552Y-141875941D01*
X161475667Y-141936081D01*
X161542546Y-142051920D01*
X161637128Y-142146502D01*
X161752967Y-142213381D01*
X161813105Y-142229494D01*
X161159408Y-142883191D01*
X161221056Y-142927980D01*
X161415856Y-143027237D01*
X161415859Y-143027238D01*
X161623788Y-143094797D01*
X161839732Y-143129000D01*
X162058364Y-143129000D01*
X162274307Y-143094797D01*
X162482236Y-143027238D01*
X162482239Y-143027237D01*
X162677043Y-142927978D01*
X162738686Y-142883191D01*
X162738687Y-142883191D01*
X162084990Y-142229495D01*
X162145129Y-142213381D01*
X162260968Y-142146502D01*
X162355550Y-142051920D01*
X162422429Y-141936081D01*
X162438542Y-141875942D01*
X163092239Y-142529639D01*
X163092239Y-142529638D01*
X163137026Y-142467995D01*
X163236285Y-142273191D01*
X163236286Y-142273188D01*
X163303845Y-142065259D01*
X163338048Y-141849316D01*
X163338048Y-141630683D01*
X163303845Y-141414740D01*
X163236286Y-141206811D01*
X163236285Y-141206808D01*
X163137028Y-141012008D01*
X163092239Y-140950360D01*
X162438542Y-141604057D01*
X162422429Y-141543919D01*
X162355550Y-141428080D01*
X162260968Y-141333498D01*
X162145129Y-141266619D01*
X162084988Y-141250504D01*
X162738686Y-140596807D01*
X162738686Y-140596806D01*
X162702654Y-140570628D01*
X162659987Y-140515299D01*
X162654007Y-140445685D01*
X162686613Y-140383890D01*
X162702647Y-140369994D01*
X162854247Y-140259852D01*
X163008900Y-140105199D01*
X163008902Y-140105195D01*
X163008905Y-140105193D01*
X163065277Y-140027601D01*
X163137455Y-139928257D01*
X163236749Y-139733383D01*
X163304334Y-139525375D01*
X163321960Y-139414082D01*
X163338548Y-139309361D01*
X163338548Y-139090638D01*
X163318643Y-138964971D01*
X163304334Y-138874625D01*
X163236749Y-138666617D01*
X163236749Y-138666616D01*
X163202363Y-138599132D01*
X163137455Y-138471743D01*
X163129195Y-138460374D01*
X163008905Y-138294806D01*
X162854247Y-138140148D01*
X162854239Y-138140142D01*
X162703076Y-138030316D01*
X162660412Y-137974989D01*
X162654433Y-137905376D01*
X162687038Y-137843580D01*
X162703071Y-137829686D01*
X162854247Y-137719852D01*
X163008900Y-137565199D01*
X163008902Y-137565195D01*
X163008905Y-137565193D01*
X163065277Y-137487601D01*
X163137455Y-137388257D01*
X163236749Y-137193383D01*
X163304334Y-136985375D01*
X163321960Y-136874082D01*
X163338548Y-136769361D01*
X163338548Y-136550638D01*
X163318643Y-136424971D01*
X163304334Y-136334625D01*
X163236749Y-136126617D01*
X163236749Y-136126616D01*
X163202363Y-136059132D01*
X163137455Y-135931743D01*
X163129195Y-135920374D01*
X163008905Y-135754806D01*
X162854247Y-135600148D01*
X162854239Y-135600142D01*
X162703076Y-135490316D01*
X162660412Y-135434989D01*
X162654433Y-135365376D01*
X162687038Y-135303580D01*
X162703071Y-135289686D01*
X162854247Y-135179852D01*
X163008900Y-135025199D01*
X163008902Y-135025195D01*
X163008905Y-135025193D01*
X163065277Y-134947601D01*
X163137455Y-134848257D01*
X163236749Y-134653383D01*
X163304334Y-134445375D01*
X163321960Y-134334082D01*
X163338548Y-134229361D01*
X163338548Y-134010638D01*
X163318643Y-133884971D01*
X163304334Y-133794625D01*
X163236749Y-133586617D01*
X163236749Y-133586616D01*
X163202363Y-133519132D01*
X163137455Y-133391743D01*
X163129195Y-133380374D01*
X163008905Y-133214806D01*
X162854247Y-133060148D01*
X162854239Y-133060142D01*
X162703076Y-132950316D01*
X162660412Y-132894989D01*
X162654433Y-132825376D01*
X162687038Y-132763580D01*
X162703071Y-132749686D01*
X162854247Y-132639852D01*
X163008900Y-132485199D01*
X163008902Y-132485195D01*
X163008905Y-132485193D01*
X163065277Y-132407601D01*
X163137455Y-132308257D01*
X163236749Y-132113383D01*
X163304334Y-131905375D01*
X163327870Y-131756777D01*
X163338548Y-131689361D01*
X163338548Y-131470638D01*
X163313827Y-131314560D01*
X163304334Y-131254625D01*
X163256245Y-131106619D01*
X163236750Y-131046619D01*
X163236749Y-131046616D01*
X163202363Y-130979132D01*
X163137455Y-130851743D01*
X163092858Y-130790360D01*
X163008905Y-130674806D01*
X162854241Y-130520142D01*
X162677308Y-130391595D01*
X162677307Y-130391594D01*
X162677305Y-130391593D01*
X162606075Y-130355299D01*
X162482431Y-130292298D01*
X162482428Y-130292297D01*
X162274424Y-130224714D01*
X162058409Y-130190500D01*
X162058404Y-130190500D01*
X161839692Y-130190500D01*
X161839687Y-130190500D01*
X161623671Y-130224714D01*
X161415667Y-130292297D01*
X161415664Y-130292298D01*
X161220787Y-130391595D01*
X161043854Y-130520142D01*
X160889190Y-130674806D01*
X160760643Y-130851739D01*
X160661346Y-131046616D01*
X160661345Y-131046619D01*
X160593762Y-131254623D01*
X160559548Y-131470638D01*
X152800500Y-131470638D01*
X152800500Y-118262332D01*
X155028548Y-118262332D01*
X155028548Y-118537667D01*
X155028549Y-118537684D01*
X155064486Y-118810655D01*
X155064487Y-118810660D01*
X155064488Y-118810666D01*
X155064489Y-118810668D01*
X155135752Y-119076630D01*
X155241123Y-119331017D01*
X155241128Y-119331028D01*
X155323909Y-119474407D01*
X155378799Y-119569479D01*
X155378801Y-119569482D01*
X155378802Y-119569483D01*
X155546418Y-119787926D01*
X155546424Y-119787933D01*
X155741114Y-119982623D01*
X155741120Y-119982628D01*
X155959569Y-120150249D01*
X156112826Y-120238732D01*
X156198019Y-120287919D01*
X156198024Y-120287921D01*
X156198027Y-120287923D01*
X156452416Y-120393295D01*
X156718382Y-120464560D01*
X156991374Y-120500500D01*
X156991381Y-120500500D01*
X157266715Y-120500500D01*
X157266722Y-120500500D01*
X157539714Y-120464560D01*
X157805680Y-120393295D01*
X158060069Y-120287923D01*
X158298527Y-120150249D01*
X158516976Y-119982628D01*
X158711676Y-119787928D01*
X158879297Y-119569479D01*
X159016971Y-119331021D01*
X159122343Y-119076632D01*
X159193608Y-118810666D01*
X159229548Y-118537674D01*
X159229548Y-118262326D01*
X159193608Y-117989334D01*
X159122343Y-117723368D01*
X159016971Y-117468979D01*
X159016969Y-117468976D01*
X159016967Y-117468971D01*
X158967780Y-117383778D01*
X158879297Y-117230521D01*
X158711676Y-117012072D01*
X158711671Y-117012066D01*
X158516981Y-116817376D01*
X158516974Y-116817370D01*
X158298531Y-116649754D01*
X158298528Y-116649752D01*
X158298527Y-116649751D01*
X158203455Y-116594861D01*
X158060076Y-116512080D01*
X158060065Y-116512075D01*
X157805678Y-116406704D01*
X157672697Y-116371072D01*
X157539714Y-116335440D01*
X157539708Y-116335439D01*
X157539703Y-116335438D01*
X157266732Y-116299501D01*
X157266727Y-116299500D01*
X157266722Y-116299500D01*
X156991374Y-116299500D01*
X156991368Y-116299500D01*
X156991363Y-116299501D01*
X156718392Y-116335438D01*
X156718385Y-116335439D01*
X156718382Y-116335440D01*
X156662173Y-116350500D01*
X156452417Y-116406704D01*
X156198030Y-116512075D01*
X156198019Y-116512080D01*
X155959564Y-116649754D01*
X155741121Y-116817370D01*
X155741114Y-116817376D01*
X155546424Y-117012066D01*
X155546418Y-117012073D01*
X155378802Y-117230516D01*
X155241128Y-117468971D01*
X155241123Y-117468982D01*
X155135752Y-117723369D01*
X155064489Y-117989331D01*
X155064486Y-117989344D01*
X155028549Y-118262315D01*
X155028548Y-118262332D01*
X152800500Y-118262332D01*
X152800500Y-105590638D01*
X157009548Y-105590638D01*
X157009548Y-105809361D01*
X157043762Y-106025376D01*
X157111345Y-106233380D01*
X157111346Y-106233383D01*
X157178830Y-106365825D01*
X157198770Y-106404960D01*
X157210643Y-106428260D01*
X157339190Y-106605193D01*
X157493854Y-106759857D01*
X157608556Y-106843191D01*
X157670791Y-106888407D01*
X157798180Y-106953315D01*
X157865664Y-106987701D01*
X157865667Y-106987702D01*
X157896208Y-106997625D01*
X158073673Y-107055286D01*
X158173720Y-107071132D01*
X158289687Y-107089500D01*
X158289692Y-107089500D01*
X158508409Y-107089500D01*
X158613130Y-107072912D01*
X158724423Y-107055286D01*
X158932431Y-106987701D01*
X159127305Y-106888407D01*
X159226649Y-106816229D01*
X159304241Y-106759857D01*
X159304243Y-106759854D01*
X159304247Y-106759852D01*
X159458900Y-106605199D01*
X159568731Y-106454028D01*
X159624059Y-106411364D01*
X159693672Y-106405385D01*
X159755468Y-106437990D01*
X159769361Y-106454023D01*
X159810686Y-106510902D01*
X159879196Y-106605199D01*
X160033854Y-106759857D01*
X160148556Y-106843191D01*
X160210791Y-106888407D01*
X160338180Y-106953315D01*
X160405664Y-106987701D01*
X160405667Y-106987702D01*
X160436208Y-106997625D01*
X160613673Y-107055286D01*
X160713720Y-107071132D01*
X160829687Y-107089500D01*
X160829692Y-107089500D01*
X161048409Y-107089500D01*
X161153130Y-107072912D01*
X161264423Y-107055286D01*
X161472431Y-106987701D01*
X161667305Y-106888407D01*
X161766649Y-106816229D01*
X161844241Y-106759857D01*
X161844243Y-106759854D01*
X161844247Y-106759852D01*
X161998900Y-106605199D01*
X162109039Y-106453603D01*
X162164368Y-106410939D01*
X162233981Y-106404960D01*
X162295777Y-106437565D01*
X162309676Y-106453606D01*
X162335854Y-106489638D01*
X162335855Y-106489638D01*
X162989552Y-105835941D01*
X163005667Y-105896081D01*
X163072546Y-106011920D01*
X163167128Y-106106502D01*
X163282967Y-106173381D01*
X163343105Y-106189494D01*
X162689408Y-106843191D01*
X162751056Y-106887980D01*
X162945856Y-106987237D01*
X162945859Y-106987238D01*
X163153788Y-107054797D01*
X163369732Y-107089000D01*
X163588364Y-107089000D01*
X163804307Y-107054797D01*
X164012236Y-106987238D01*
X164012239Y-106987237D01*
X164207043Y-106887978D01*
X164268686Y-106843191D01*
X164268687Y-106843191D01*
X163614990Y-106189495D01*
X163675129Y-106173381D01*
X163790968Y-106106502D01*
X163885550Y-106011920D01*
X163952429Y-105896081D01*
X163968543Y-105835941D01*
X164582181Y-106449579D01*
X164615666Y-106510902D01*
X164618500Y-106537260D01*
X164618500Y-107947870D01*
X164618501Y-107947876D01*
X164624908Y-108007483D01*
X164675202Y-108142328D01*
X164675206Y-108142335D01*
X164761452Y-108257544D01*
X164761455Y-108257547D01*
X164876664Y-108343793D01*
X164876671Y-108343797D01*
X165011517Y-108394091D01*
X165011516Y-108394091D01*
X165018444Y-108394835D01*
X165071127Y-108400500D01*
X166966872Y-108400499D01*
X167026483Y-108394091D01*
X167161331Y-108343796D01*
X167276546Y-108257546D01*
X167362796Y-108142331D01*
X167413091Y-108007483D01*
X167419500Y-107947873D01*
X167419499Y-106824863D01*
X167439184Y-106757825D01*
X167491987Y-106712070D01*
X167561146Y-106702126D01*
X167624702Y-106731151D01*
X167631180Y-106737183D01*
X167653854Y-106759857D01*
X167768556Y-106843191D01*
X167830791Y-106888407D01*
X167958180Y-106953315D01*
X168025664Y-106987701D01*
X168025667Y-106987702D01*
X168056208Y-106997625D01*
X168233673Y-107055286D01*
X168333720Y-107071132D01*
X168449687Y-107089500D01*
X168449692Y-107089500D01*
X168668409Y-107089500D01*
X168773130Y-107072912D01*
X168884423Y-107055286D01*
X169092431Y-106987701D01*
X169287305Y-106888407D01*
X169386649Y-106816229D01*
X169464241Y-106759857D01*
X169464243Y-106759854D01*
X169464247Y-106759852D01*
X169618900Y-106605199D01*
X169728731Y-106454028D01*
X169784059Y-106411364D01*
X169853672Y-106405385D01*
X169915468Y-106437990D01*
X169929361Y-106454023D01*
X169970686Y-106510902D01*
X170039196Y-106605199D01*
X170193854Y-106759857D01*
X170308556Y-106843191D01*
X170370791Y-106888407D01*
X170498180Y-106953315D01*
X170565664Y-106987701D01*
X170565667Y-106987702D01*
X170596208Y-106997625D01*
X170773673Y-107055286D01*
X170873720Y-107071132D01*
X170989687Y-107089500D01*
X171164638Y-107089500D01*
X171231677Y-107109185D01*
X171252319Y-107125819D01*
X173663181Y-109536680D01*
X173696666Y-109598003D01*
X173699500Y-109624361D01*
X173699500Y-114775637D01*
X173679815Y-114842676D01*
X173663181Y-114863318D01*
X163800540Y-124725958D01*
X163800534Y-124725965D01*
X163767220Y-124775823D01*
X163767209Y-124775841D01*
X163764797Y-124779452D01*
X163701987Y-124873453D01*
X163679950Y-124926656D01*
X163676953Y-124933890D01*
X163676953Y-124933891D01*
X163653232Y-124991158D01*
X163609390Y-125045561D01*
X163543096Y-125067625D01*
X163475396Y-125050345D01*
X163450990Y-125031385D01*
X163336981Y-124917376D01*
X163336974Y-124917370D01*
X163118531Y-124749754D01*
X163118530Y-124749753D01*
X163118527Y-124749751D01*
X163023455Y-124694861D01*
X162880076Y-124612080D01*
X162880065Y-124612075D01*
X162625678Y-124506704D01*
X162492697Y-124471072D01*
X162359714Y-124435440D01*
X162359708Y-124435439D01*
X162359703Y-124435438D01*
X162086732Y-124399501D01*
X162086727Y-124399500D01*
X162086722Y-124399500D01*
X161811374Y-124399500D01*
X161811368Y-124399500D01*
X161811363Y-124399501D01*
X161538392Y-124435438D01*
X161538385Y-124435439D01*
X161538382Y-124435440D01*
X161482173Y-124450500D01*
X161272417Y-124506704D01*
X161018030Y-124612075D01*
X161018019Y-124612080D01*
X160779564Y-124749754D01*
X160561121Y-124917370D01*
X160561114Y-124917376D01*
X160366424Y-125112066D01*
X160366418Y-125112073D01*
X160198802Y-125330516D01*
X160061128Y-125568971D01*
X160061123Y-125568982D01*
X159955752Y-125823369D01*
X159884489Y-126089331D01*
X159884486Y-126089344D01*
X159848549Y-126362315D01*
X159848548Y-126362332D01*
X159848548Y-126637667D01*
X159848549Y-126637684D01*
X159884486Y-126910655D01*
X159884487Y-126910660D01*
X159884488Y-126910666D01*
X159884489Y-126910668D01*
X159955752Y-127176630D01*
X160061123Y-127431017D01*
X160061128Y-127431028D01*
X160135505Y-127559851D01*
X160198799Y-127669479D01*
X160198801Y-127669482D01*
X160198802Y-127669483D01*
X160366418Y-127887926D01*
X160366424Y-127887933D01*
X160561114Y-128082623D01*
X160561121Y-128082629D01*
X160629120Y-128134806D01*
X160779569Y-128250249D01*
X160886073Y-128311739D01*
X161018019Y-128387919D01*
X161018024Y-128387921D01*
X161018027Y-128387923D01*
X161272416Y-128493295D01*
X161538382Y-128564560D01*
X161811374Y-128600500D01*
X161811381Y-128600500D01*
X162086715Y-128600500D01*
X162086722Y-128600500D01*
X162359714Y-128564560D01*
X162625680Y-128493295D01*
X162880069Y-128387923D01*
X163118527Y-128250249D01*
X163336976Y-128082628D01*
X163531676Y-127887928D01*
X163699297Y-127669479D01*
X163800295Y-127494544D01*
X163850862Y-127446329D01*
X163919469Y-127433107D01*
X163984334Y-127459075D01*
X163995363Y-127468864D01*
X173224224Y-136697723D01*
X173257709Y-136759046D01*
X173259016Y-136766005D01*
X173293762Y-136985376D01*
X173361345Y-137193380D01*
X173361346Y-137193383D01*
X173460643Y-137388260D01*
X173589190Y-137565193D01*
X173743854Y-137719857D01*
X173895017Y-137829682D01*
X173937683Y-137885011D01*
X173943662Y-137954625D01*
X173911057Y-138016420D01*
X173895017Y-138030318D01*
X173743854Y-138140142D01*
X173589190Y-138294806D01*
X173460643Y-138471739D01*
X173361346Y-138666616D01*
X173361345Y-138666619D01*
X173293762Y-138874623D01*
X173259548Y-139090638D01*
X173259548Y-139309361D01*
X173293762Y-139525376D01*
X173361345Y-139733380D01*
X173361346Y-139733383D01*
X173460643Y-139928260D01*
X173589190Y-140105193D01*
X173743854Y-140259857D01*
X173895017Y-140369682D01*
X173937683Y-140425011D01*
X173943662Y-140494625D01*
X173911057Y-140556420D01*
X173895017Y-140570318D01*
X173743854Y-140680142D01*
X173589190Y-140834806D01*
X173460643Y-141011739D01*
X173361346Y-141206616D01*
X173361345Y-141206619D01*
X173293762Y-141414623D01*
X173259548Y-141630638D01*
X173259548Y-141849361D01*
X173293762Y-142065376D01*
X173361345Y-142273380D01*
X173361346Y-142273383D01*
X173428830Y-142405825D01*
X173460506Y-142467993D01*
X173460643Y-142468260D01*
X173589190Y-142645193D01*
X173743854Y-142799857D01*
X173895017Y-142909682D01*
X173937683Y-142965011D01*
X173943662Y-143034625D01*
X173911057Y-143096420D01*
X173895017Y-143110318D01*
X173743854Y-143220142D01*
X173589190Y-143374806D01*
X173460643Y-143551739D01*
X173361346Y-143746616D01*
X173361345Y-143746619D01*
X173293762Y-143954623D01*
X173259548Y-144170638D01*
X173259548Y-144389361D01*
X173293762Y-144605376D01*
X173361345Y-144813380D01*
X173361346Y-144813383D01*
X173460643Y-145008260D01*
X173589190Y-145185193D01*
X173743854Y-145339857D01*
X173895017Y-145449682D01*
X173937683Y-145505011D01*
X173943662Y-145574625D01*
X173911057Y-145636420D01*
X173895017Y-145650318D01*
X173743854Y-145760142D01*
X173589190Y-145914806D01*
X173460643Y-146091739D01*
X173361346Y-146286616D01*
X173361345Y-146286619D01*
X173293762Y-146494623D01*
X173259548Y-146710638D01*
X173259548Y-146929361D01*
X173293762Y-147145376D01*
X173361345Y-147353380D01*
X173361346Y-147353383D01*
X173460643Y-147548260D01*
X173589190Y-147725193D01*
X173743854Y-147879857D01*
X173894744Y-147989483D01*
X173920791Y-148008407D01*
X174048180Y-148073315D01*
X174115664Y-148107701D01*
X174115667Y-148107702D01*
X174219669Y-148141493D01*
X174323673Y-148175286D01*
X174423720Y-148191132D01*
X174539687Y-148209500D01*
X174539692Y-148209500D01*
X174758409Y-148209500D01*
X174863130Y-148192912D01*
X174974423Y-148175286D01*
X175182431Y-148107701D01*
X175377305Y-148008407D01*
X175476649Y-147936229D01*
X175554241Y-147879857D01*
X175554243Y-147879854D01*
X175554247Y-147879852D01*
X175708900Y-147725199D01*
X175708902Y-147725195D01*
X175708905Y-147725193D01*
X175765277Y-147647601D01*
X175837455Y-147548257D01*
X175936749Y-147353383D01*
X176004334Y-147145375D01*
X176021960Y-147034082D01*
X176038548Y-146929361D01*
X176038548Y-146710638D01*
X176018643Y-146584971D01*
X176004334Y-146494625D01*
X175936749Y-146286617D01*
X175936749Y-146286616D01*
X175902363Y-146219132D01*
X175837455Y-146091743D01*
X175829195Y-146080374D01*
X175708905Y-145914806D01*
X175554247Y-145760148D01*
X175554239Y-145760142D01*
X175403076Y-145650316D01*
X175360412Y-145594989D01*
X175354433Y-145525376D01*
X175387038Y-145463580D01*
X175403071Y-145449686D01*
X175554247Y-145339852D01*
X175708900Y-145185199D01*
X175708902Y-145185195D01*
X175708905Y-145185193D01*
X175792777Y-145069751D01*
X175837455Y-145008257D01*
X175936749Y-144813383D01*
X176004334Y-144605375D01*
X176021960Y-144494082D01*
X176038548Y-144389361D01*
X176038548Y-144170638D01*
X176018643Y-144044971D01*
X176004334Y-143954625D01*
X175936749Y-143746617D01*
X175936749Y-143746616D01*
X175902363Y-143679132D01*
X175837455Y-143551743D01*
X175829195Y-143540374D01*
X175708905Y-143374806D01*
X175554247Y-143220148D01*
X175554239Y-143220142D01*
X175403076Y-143110316D01*
X175360412Y-143054989D01*
X175354433Y-142985376D01*
X175387038Y-142923580D01*
X175403071Y-142909686D01*
X175554247Y-142799852D01*
X175708900Y-142645199D01*
X175708902Y-142645195D01*
X175708905Y-142645193D01*
X175765277Y-142567601D01*
X175837455Y-142468257D01*
X175936749Y-142273383D01*
X176004334Y-142065375D01*
X176024812Y-141936081D01*
X176038548Y-141849361D01*
X176038548Y-141630638D01*
X176018643Y-141504971D01*
X176004334Y-141414625D01*
X175956245Y-141266619D01*
X175936750Y-141206619D01*
X175936749Y-141206616D01*
X175902363Y-141139132D01*
X175837455Y-141011743D01*
X175792858Y-140950360D01*
X175708905Y-140834806D01*
X175554247Y-140680148D01*
X175554239Y-140680142D01*
X175403076Y-140570316D01*
X175360412Y-140514989D01*
X175354433Y-140445376D01*
X175387038Y-140383580D01*
X175403071Y-140369686D01*
X175554247Y-140259852D01*
X175708900Y-140105199D01*
X175708902Y-140105195D01*
X175708905Y-140105193D01*
X175765277Y-140027601D01*
X175837455Y-139928257D01*
X175936749Y-139733383D01*
X176004334Y-139525375D01*
X176021960Y-139414082D01*
X176038548Y-139309361D01*
X176038548Y-139090638D01*
X176018643Y-138964971D01*
X176004334Y-138874625D01*
X175936749Y-138666617D01*
X175936749Y-138666616D01*
X175902363Y-138599132D01*
X175837455Y-138471743D01*
X175829195Y-138460374D01*
X175708905Y-138294806D01*
X175554247Y-138140148D01*
X175554239Y-138140142D01*
X175403076Y-138030316D01*
X175360412Y-137974989D01*
X175354433Y-137905376D01*
X175387038Y-137843580D01*
X175403071Y-137829686D01*
X175554247Y-137719852D01*
X175708900Y-137565199D01*
X175708902Y-137565195D01*
X175708905Y-137565193D01*
X175765277Y-137487601D01*
X175837455Y-137388257D01*
X175936749Y-137193383D01*
X176004334Y-136985375D01*
X176021960Y-136874082D01*
X176038548Y-136769361D01*
X176038548Y-136550638D01*
X176018643Y-136424971D01*
X176004334Y-136334625D01*
X175936749Y-136126617D01*
X175936749Y-136126616D01*
X175902363Y-136059132D01*
X175837455Y-135931743D01*
X175829195Y-135920374D01*
X175708905Y-135754806D01*
X175554247Y-135600148D01*
X175554239Y-135600142D01*
X175403076Y-135490316D01*
X175360412Y-135434989D01*
X175354433Y-135365376D01*
X175387038Y-135303580D01*
X175403071Y-135289686D01*
X175554247Y-135179852D01*
X175708900Y-135025199D01*
X175708902Y-135025195D01*
X175708905Y-135025193D01*
X175765277Y-134947601D01*
X175837455Y-134848257D01*
X175936749Y-134653383D01*
X176004334Y-134445375D01*
X176021960Y-134334082D01*
X176038548Y-134229361D01*
X176038548Y-134010638D01*
X176018643Y-133884971D01*
X176004334Y-133794625D01*
X175936749Y-133586617D01*
X175936749Y-133586616D01*
X175902363Y-133519132D01*
X175837455Y-133391743D01*
X175829195Y-133380374D01*
X175708905Y-133214806D01*
X175554245Y-133060146D01*
X175554240Y-133060142D01*
X175402653Y-132950008D01*
X175359987Y-132894678D01*
X175354008Y-132825065D01*
X175386613Y-132763270D01*
X175402653Y-132749372D01*
X175438686Y-132723191D01*
X175438687Y-132723191D01*
X174784989Y-132069495D01*
X174845129Y-132053381D01*
X174960968Y-131986502D01*
X175055550Y-131891920D01*
X175122429Y-131776081D01*
X175138542Y-131715942D01*
X175792239Y-132369639D01*
X175792239Y-132369638D01*
X175837026Y-132307995D01*
X175936285Y-132113191D01*
X175936286Y-132113188D01*
X176003845Y-131905259D01*
X176038048Y-131689316D01*
X176038048Y-131470683D01*
X176003845Y-131254740D01*
X175936286Y-131046811D01*
X175936285Y-131046808D01*
X175837028Y-130852008D01*
X175792239Y-130790360D01*
X175138542Y-131444057D01*
X175122429Y-131383919D01*
X175055550Y-131268080D01*
X174960968Y-131173498D01*
X174845129Y-131106619D01*
X174784988Y-131090504D01*
X175438686Y-130436807D01*
X175438686Y-130436806D01*
X175402654Y-130410628D01*
X175359987Y-130355299D01*
X175354007Y-130285685D01*
X175386613Y-130223890D01*
X175402647Y-130209994D01*
X175554247Y-130099852D01*
X175708900Y-129945199D01*
X175708902Y-129945195D01*
X175708905Y-129945193D01*
X175765277Y-129867601D01*
X175837455Y-129768257D01*
X175936749Y-129573383D01*
X176004334Y-129365375D01*
X176021960Y-129254082D01*
X176038548Y-129149361D01*
X176038548Y-128930638D01*
X176018643Y-128804971D01*
X176004334Y-128714625D01*
X175936749Y-128506617D01*
X175936749Y-128506616D01*
X175876269Y-128387919D01*
X175837455Y-128311743D01*
X175829195Y-128300374D01*
X175708905Y-128134806D01*
X175554247Y-127980148D01*
X175554239Y-127980142D01*
X175403076Y-127870316D01*
X175360412Y-127814989D01*
X175354433Y-127745376D01*
X175387038Y-127683580D01*
X175403071Y-127669686D01*
X175554247Y-127559852D01*
X175708900Y-127405199D01*
X175708902Y-127405195D01*
X175708905Y-127405193D01*
X175781121Y-127305794D01*
X175837455Y-127228257D01*
X175936749Y-127033383D01*
X176004334Y-126825375D01*
X176021960Y-126714082D01*
X176038548Y-126609361D01*
X176038548Y-126390638D01*
X176018643Y-126264971D01*
X176004334Y-126174625D01*
X175936749Y-125966617D01*
X175936749Y-125966616D01*
X175902363Y-125899132D01*
X175837455Y-125771743D01*
X175829195Y-125760374D01*
X175708905Y-125594806D01*
X175554249Y-125440150D01*
X175554247Y-125440148D01*
X175553923Y-125439913D01*
X175551608Y-125438230D01*
X175550850Y-125437247D01*
X175550542Y-125436984D01*
X175550597Y-125436919D01*
X175508946Y-125382897D01*
X175500500Y-125337917D01*
X175500500Y-119676343D01*
X175520185Y-119609304D01*
X175572989Y-119563549D01*
X175642147Y-119553605D01*
X175705703Y-119582630D01*
X175722876Y-119600857D01*
X175866418Y-119787926D01*
X175866424Y-119787933D01*
X176061114Y-119982623D01*
X176061120Y-119982628D01*
X176279569Y-120150249D01*
X176432826Y-120238732D01*
X176518019Y-120287919D01*
X176518024Y-120287921D01*
X176518027Y-120287923D01*
X176772416Y-120393295D01*
X177038382Y-120464560D01*
X177311374Y-120500500D01*
X177311381Y-120500500D01*
X177586715Y-120500500D01*
X177586722Y-120500500D01*
X177859714Y-120464560D01*
X178125680Y-120393295D01*
X178380069Y-120287923D01*
X178618527Y-120150249D01*
X178836976Y-119982628D01*
X179031676Y-119787928D01*
X179199297Y-119569479D01*
X179336971Y-119331021D01*
X179442343Y-119076632D01*
X179513608Y-118810666D01*
X179549548Y-118537674D01*
X179549548Y-118262326D01*
X179513608Y-117989334D01*
X179442343Y-117723368D01*
X179336971Y-117468979D01*
X179336969Y-117468976D01*
X179336967Y-117468971D01*
X179287780Y-117383778D01*
X179199297Y-117230521D01*
X179031676Y-117012072D01*
X179031671Y-117012066D01*
X178836981Y-116817376D01*
X178836974Y-116817370D01*
X178618529Y-116649752D01*
X178562539Y-116617426D01*
X178514324Y-116566858D01*
X178501102Y-116498251D01*
X178521439Y-116441147D01*
X178541378Y-116411307D01*
X178555440Y-116390260D01*
X178598013Y-116326547D01*
X178645746Y-116211309D01*
X178665895Y-116162666D01*
X178700500Y-115988691D01*
X178700500Y-115811308D01*
X178700500Y-105411309D01*
X178700500Y-105411306D01*
X178700031Y-105408949D01*
X178700028Y-105408938D01*
X178699410Y-105405831D01*
X178665894Y-105237334D01*
X178645746Y-105188692D01*
X178616152Y-105117247D01*
X178595682Y-105067824D01*
X178596143Y-105067632D01*
X178586392Y-105040388D01*
X178580608Y-105011308D01*
X178565894Y-104937334D01*
X178551253Y-104901988D01*
X178498013Y-104773453D01*
X178496762Y-104771582D01*
X178493596Y-104764003D01*
X178493037Y-104758956D01*
X178486392Y-104740386D01*
X178465895Y-104637334D01*
X178400339Y-104479071D01*
X178398695Y-104474474D01*
X178299465Y-104325966D01*
X178247680Y-104274181D01*
X178174035Y-104200536D01*
X175536819Y-101563319D01*
X175503334Y-101501996D01*
X175500500Y-101475638D01*
X175500500Y-98511306D01*
X175500499Y-98511304D01*
X175465896Y-98337341D01*
X175465893Y-98337332D01*
X175398016Y-98173459D01*
X175398009Y-98173446D01*
X175299465Y-98025966D01*
X175253148Y-97979649D01*
X175174035Y-97900536D01*
X174716022Y-97442523D01*
X174682538Y-97381201D01*
X174687522Y-97311509D01*
X174729394Y-97255576D01*
X174784308Y-97232369D01*
X174842699Y-97223121D01*
X175030421Y-97162126D01*
X175206289Y-97072516D01*
X175242036Y-97046543D01*
X175242036Y-97046541D01*
X174678456Y-96482962D01*
X174742041Y-96465925D01*
X174856055Y-96400099D01*
X174949147Y-96307007D01*
X175014973Y-96192993D01*
X175032010Y-96129409D01*
X175595589Y-96692988D01*
X175595591Y-96692988D01*
X175621564Y-96657241D01*
X175708283Y-96487046D01*
X175756258Y-96436250D01*
X175824079Y-96419455D01*
X175890213Y-96441992D01*
X175929250Y-96487042D01*
X175986551Y-96599500D01*
X176016106Y-96657505D01*
X176132163Y-96817246D01*
X176271801Y-96956884D01*
X176395206Y-97046541D01*
X176431547Y-97072944D01*
X176607487Y-97162591D01*
X176732685Y-97203270D01*
X176795284Y-97223610D01*
X176990312Y-97254500D01*
X176990317Y-97254500D01*
X177187784Y-97254500D01*
X177382811Y-97223610D01*
X177384316Y-97223121D01*
X177570609Y-97162591D01*
X177746549Y-97072944D01*
X177836240Y-97007779D01*
X177906294Y-96956884D01*
X177906296Y-96956881D01*
X177906300Y-96956879D01*
X178045927Y-96817252D01*
X178045929Y-96817248D01*
X178045932Y-96817246D01*
X178096827Y-96747192D01*
X178161992Y-96657501D01*
X178251639Y-96481561D01*
X178312658Y-96293763D01*
X178343548Y-96098736D01*
X178343548Y-95901263D01*
X178312658Y-95706236D01*
X178256719Y-95534075D01*
X178251639Y-95518439D01*
X178161992Y-95342499D01*
X178136207Y-95307009D01*
X178045932Y-95182753D01*
X177906294Y-95043115D01*
X177746552Y-94927058D01*
X177746551Y-94927057D01*
X177746549Y-94927056D01*
X177570609Y-94837409D01*
X177570606Y-94837408D01*
X177382811Y-94776389D01*
X177187784Y-94745500D01*
X177187779Y-94745500D01*
X176990317Y-94745500D01*
X176990312Y-94745500D01*
X176795284Y-94776389D01*
X176607489Y-94837408D01*
X176431543Y-94927058D01*
X176271801Y-95043115D01*
X176132163Y-95182753D01*
X176016106Y-95342495D01*
X176016104Y-95342499D01*
X175929251Y-95512954D01*
X175881278Y-95563749D01*
X175813457Y-95580544D01*
X175747322Y-95558006D01*
X175708283Y-95512953D01*
X175621568Y-95342768D01*
X175621560Y-95342755D01*
X175595590Y-95307010D01*
X175595589Y-95307009D01*
X175032010Y-95870589D01*
X175014973Y-95807007D01*
X174949147Y-95692993D01*
X174856055Y-95599901D01*
X174742041Y-95534075D01*
X174678457Y-95517037D01*
X175242037Y-94953457D01*
X175206287Y-94927483D01*
X175030421Y-94837873D01*
X174842694Y-94776876D01*
X174647745Y-94746000D01*
X174450351Y-94746000D01*
X174255401Y-94776876D01*
X174067674Y-94837873D01*
X173891810Y-94927482D01*
X173891808Y-94927483D01*
X173856058Y-94953456D01*
X173856058Y-94953457D01*
X174419639Y-95517037D01*
X174356055Y-95534075D01*
X174242041Y-95599901D01*
X174148949Y-95692993D01*
X174083123Y-95807007D01*
X174066085Y-95870591D01*
X173502505Y-95307010D01*
X173502504Y-95307010D01*
X173476531Y-95342760D01*
X173476527Y-95342767D01*
X173389811Y-95512954D01*
X173341836Y-95563749D01*
X173274015Y-95580544D01*
X173207881Y-95558006D01*
X173168846Y-95512957D01*
X173081992Y-95342499D01*
X173081990Y-95342496D01*
X173081989Y-95342494D01*
X172965932Y-95182753D01*
X172936819Y-95153640D01*
X172922115Y-95126712D01*
X172905523Y-95100894D01*
X172904631Y-95094693D01*
X172903334Y-95092317D01*
X172900500Y-95065959D01*
X172900500Y-88324362D01*
X172920185Y-88257323D01*
X172936819Y-88236681D01*
X179199462Y-81974038D01*
X179199464Y-81974036D01*
X179233838Y-81922591D01*
X179267945Y-81871547D01*
X179276543Y-81858676D01*
X179298013Y-81826547D01*
X179341296Y-81722051D01*
X179365895Y-81662666D01*
X179400500Y-81488692D01*
X179400500Y-81311308D01*
X179400500Y-80011309D01*
X179400500Y-80011306D01*
X179400499Y-80011304D01*
X179365896Y-79837341D01*
X179365893Y-79837332D01*
X179298016Y-79673459D01*
X179298009Y-79673446D01*
X179199465Y-79525966D01*
X179172251Y-79498752D01*
X179074035Y-79400536D01*
X178873999Y-79200500D01*
X177274038Y-77600537D01*
X177274034Y-77600533D01*
X177219622Y-77564178D01*
X177219616Y-77564175D01*
X177214959Y-77561063D01*
X177126547Y-77501987D01*
X177044606Y-77468046D01*
X176962666Y-77434105D01*
X176962658Y-77434103D01*
X176788696Y-77399500D01*
X176788692Y-77399500D01*
X176788691Y-77399500D01*
X160488692Y-77399500D01*
X160311309Y-77399500D01*
X160311304Y-77399500D01*
X160137339Y-77434103D01*
X160137323Y-77434108D01*
X160021453Y-77482102D01*
X160021454Y-77482103D01*
X159973454Y-77501986D01*
X159827508Y-77599505D01*
X159825967Y-77600534D01*
X159778056Y-77648443D01*
X159750791Y-77669046D01*
X159744483Y-77672564D01*
X159673453Y-77701987D01*
X159585040Y-77761063D01*
X159580915Y-77763819D01*
X159580910Y-77763822D01*
X159525961Y-77800537D01*
X157700540Y-79625958D01*
X157700534Y-79625965D01*
X157601988Y-79773451D01*
X157534105Y-79937333D01*
X157534103Y-79937341D01*
X157499500Y-80111303D01*
X157499500Y-80293774D01*
X157499600Y-80295805D01*
X157499600Y-104583034D01*
X157479915Y-104650073D01*
X157463282Y-104670715D01*
X157339189Y-104794808D01*
X157210643Y-104971739D01*
X157111346Y-105166616D01*
X157111345Y-105166619D01*
X157043762Y-105374623D01*
X157009548Y-105590638D01*
X152800500Y-105590638D01*
X152800500Y-75524500D01*
X152820185Y-75457461D01*
X152872989Y-75411706D01*
X152924500Y-75400500D01*
X181075500Y-75400500D01*
X181142539Y-75420185D01*
G37*
%TD.AperFunction*%
%TD*%
M02*
